<?xml version="1.0" encoding="utf-8"?>
<!-- Generator: Adobe Illustrator 23.0.4, SVG Export Plug-In . SVG Version: 6.00 Build 0)  -->
<svg version="1.1" id="Layer_1" xmlns="http://www.w3.org/2000/svg" xmlns:xlink="http://www.w3.org/1999/xlink" x="0px" y="0px"
	 viewBox="0 0 908.4 718.8" style="enable-background:new 0 0 908.4 718.8;" xml:space="preserve">
<style type="text/css">
	.st0{fill:url(#SVGID_1_);}
	.st1{clip-path:url(#SVGID_3_);}
	.st2{fill:url(#SVGID_4_);}
	.st3{fill:#C444DF;}
	.st4{opacity:0.28;fill:#FFFFFF;enable-background:new    ;}
	.st5{fill:url(#SVGID_5_);}
	.st6{fill:#290133;}
	.st7{fill:url(#SVGID_6_);}
	.st8{fill:url(#SVGID_7_);}
	.st9{fill:url(#SVGID_8_);}
	.st10{fill:url(#SVGID_9_);}
	.st11{fill:url(#SVGID_10_);}
	.st12{fill:#471054;}
	.st13{fill:url(#SVGID_11_);}
	.st14{fill:url(#SVGID_12_);}
	.st15{fill:#FFFFFF;}
	.st16{fill:#FCB300;}
	.st17{fill:#F79800;}
	.st18{fill:url(#SVGID_13_);}
	.st19{fill:url(#SVGID_14_);}
	.st20{fill:url(#SVGID_15_);}
	.st21{opacity:0.43;fill:#FFFFFF;enable-background:new    ;}
	.st22{fill:url(#SVGID_16_);}
	.st23{opacity:0.54;}
</style>
<g>
	
		<linearGradient id="SVGID_1_" gradientUnits="userSpaceOnUse" x1="189.4899" y1="381.7867" x2="349.8744" y2="381.7867" gradientTransform="matrix(1 0 0 -1 0 630.3585)">
		<stop  offset="0" style="stop-color:#F9229A"/>
		<stop  offset="0.1665" style="stop-color:#F924A0"/>
		<stop  offset="0.3938" style="stop-color:#F72AB2"/>
		<stop  offset="0.6563" style="stop-color:#F534CE"/>
		<stop  offset="0.943" style="stop-color:#F241F6"/>
		<stop  offset="1" style="stop-color:#F144FF"/>
	</linearGradient>
	<path class="st0" d="M328,249.4c-16.6,19.3-36.9,35.2-60.1,45.7c-17.2,7.8-38,13.6-57.6,9.8c-44.8-8.7-14.3-89.2,62.2-107.6
		s78.5,9,77.1,18.8C348.6,222.4,339.8,235.6,328,249.4z"/>
	<g>
		<g>
			<defs>
				<path id="SVGID_2_" d="M385.2,224.6c-48.1,57.2-111.4,99.9-182.7,122.6c-1.4,0.5-2.9,0.9-4.4,1.4
					c-93.8,29.2-147.4,124.5-97.3,220.9S387.1,699.3,602,637s310.5-230.1,241.2-395.1C773.9,76.8,638,70.8,561.1,89.6
					C495.3,105.6,427.6,174.1,385.2,224.6z"/>
			</defs>
			<clipPath id="SVGID_3_">
				<use xlink:href="#SVGID_2_"  style="overflow:visible;"/>
			</clipPath>
			<g class="st1">
				
					<linearGradient id="SVGID_4_" gradientUnits="userSpaceOnUse" x1="81.6618" y1="254.9552" x2="865.5128" y2="254.9552" gradientTransform="matrix(1 0 0 -1 0 630.3585)">
					<stop  offset="0" style="stop-color:#F9229A"/>
					<stop  offset="0.1665" style="stop-color:#F924A0"/>
					<stop  offset="0.3938" style="stop-color:#F72AB2"/>
					<stop  offset="0.6563" style="stop-color:#F534CE"/>
					<stop  offset="0.943" style="stop-color:#F241F6"/>
					<stop  offset="1" style="stop-color:#F144FF"/>
				</linearGradient>
				<path class="st2" d="M385.2,224.6c-48.1,57.2-111.4,99.9-182.7,122.6c-1.4,0.5-2.9,0.9-4.4,1.4
					c-93.8,29.2-147.4,124.5-97.3,220.9S387.1,699.3,602,637s310.5-230.1,241.2-395.1C773.9,76.8,638,70.8,561.1,89.6
					C495.3,105.6,427.6,174.1,385.2,224.6z"/>
				<g>
					<rect x="589.3" y="141.4" class="st3" width="141.9" height="192.3"/>
					<rect x="604.7" y="160.6" class="st4" width="111.2" height="5.5"/>
					<rect x="604.7" y="181" class="st4" width="111.2" height="5.5"/>
					<rect x="604.7" y="201.5" class="st4" width="111.2" height="5.5"/>
					<rect x="604.7" y="221.9" class="st4" width="111.2" height="5.5"/>
					<rect x="604.7" y="242.3" class="st4" width="111.2" height="5.5"/>
					<rect x="604.7" y="262.7" class="st4" width="111.2" height="5.5"/>
					<rect x="604.7" y="283.1" class="st4" width="111.2" height="5.5"/>
					<rect x="604.7" y="303.5" class="st4" width="111.2" height="5.5"/>
				</g>
				<g>
					
						<linearGradient id="SVGID_5_" gradientUnits="userSpaceOnUse" x1="483.4405" y1="315.3943" x2="50.6119" y2="37.0323" gradientTransform="matrix(1 0 0 -1 0 630.3585)">
						<stop  offset="0.2738" style="stop-color:#FCB300"/>
						<stop  offset="0.3728" style="stop-color:#FCAD02"/>
						<stop  offset="0.5079" style="stop-color:#FB9B08"/>
						<stop  offset="0.664" style="stop-color:#FB7F11"/>
						<stop  offset="0.8342" style="stop-color:#FA571D"/>
						<stop  offset="1" style="stop-color:#F9292C"/>
					</linearGradient>
					<polygon class="st5" points="95.1,553.4 76.3,530.5 203.1,426.6 244.4,455.5 385,353.5 428.3,382.5 697.4,210.9 713.3,235.8 
						427.9,417.8 385.7,389.6 244.6,491.9 204.5,463.7 					"/>
				</g>
				<path class="st6" d="M201,595.3c0,0,6.3,31.4,9.3,49.4s-24.9,83.8-24.9,83.8s-9.1-7.5-9.1-9s6.1-62.4,6.1-62.4l-10.1-37.9
					l-36.1,88.3l-12.8-5l22.5-104.6C146,598,180.2,571.9,201,595.3z"/>
				
					<linearGradient id="SVGID_6_" gradientUnits="userSpaceOnUse" x1="296.7274" y1="213.7292" x2="705.4275" y2="213.7292" gradientTransform="matrix(1 0 0 -1 0 630.3585)">
					<stop  offset="0" style="stop-color:#6A0587"/>
					<stop  offset="0.246" style="stop-color:#660681"/>
					<stop  offset="0.5818" style="stop-color:#5A0B6F"/>
					<stop  offset="0.9679" style="stop-color:#461153"/>
					<stop  offset="1" style="stop-color:#441250"/>
				</linearGradient>
				<path class="st7" d="M699,306.6H303.1c-3.5,0-6.4,2.8-6.4,6.4v213.7l0,0h19.9h388.8V313C705.4,309.5,702.5,306.6,699,306.6z"/>
				
					<linearGradient id="SVGID_7_" gradientUnits="userSpaceOnUse" x1="441.2275" y1="18.8793" x2="560.8275" y2="18.8793" gradientTransform="matrix(1 0 0 -1 0 630.3585)">
					<stop  offset="0" style="stop-color:#6A0587"/>
					<stop  offset="0.246" style="stop-color:#660681"/>
					<stop  offset="0.5818" style="stop-color:#5A0B6F"/>
					<stop  offset="0.9679" style="stop-color:#461153"/>
					<stop  offset="1" style="stop-color:#441250"/>
				</linearGradient>
				<path class="st8" d="M501,606.7h-55c-2.7,0-4.8,2.2-4.8,4.8l0,0c0,2.7,2.2,4.8,4.8,4.8h55h55c2.7,0,4.8-2.2,4.8-4.8l0,0
					c0-2.7-2.2-4.8-4.8-4.8H501z"/>
				<rect x="316.6" y="326.1" class="st3" width="368.9" height="174.3"/>
				<path class="st3" d="M296.7,526.7v28.2c0,3.5,2.8,6.4,6.4,6.4H699c3.5,0,6.4-2.8,6.4-6.4v-28.2H296.7z"/>
				
					<linearGradient id="SVGID_8_" gradientUnits="userSpaceOnUse" x1="450.5275" y1="46.4292" x2="551.6274" y2="46.4292" gradientTransform="matrix(1 0 0 -1 0 630.3585)">
					<stop  offset="0" style="stop-color:#6A0587"/>
					<stop  offset="0.246" style="stop-color:#660681"/>
					<stop  offset="0.5818" style="stop-color:#5A0B6F"/>
					<stop  offset="0.9679" style="stop-color:#461153"/>
					<stop  offset="1" style="stop-color:#441250"/>
				</linearGradient>
				<polygon class="st9" points="455.8,561.2 450.5,606.7 501,606.7 551.6,606.7 546.3,561.2 				"/>
				<path class="st6" d="M201.9,484.4l-1-7.3c0,0,2-3.5,1-8.2s-3.5-2.5-3.5-2.5s-1.5-5.4-7.7-4.4s-13.6,5.2-15.8,6.7
					s-5.4,6.7-4.9,11.4c0,0-3.5,4.7,1.2,11.4s10.6,10.4,17.3,10.4C195.2,501.7,201.9,484.4,201.9,484.4z"/>
				
					<linearGradient id="SVGID_9_" gradientUnits="userSpaceOnUse" x1="490.8774" y1="154.3981" x2="490.8774" y2="341.6638" gradientTransform="matrix(1 0 0 -1 0 630.3585)">
					<stop  offset="0.2738" style="stop-color:#FCB300"/>
					<stop  offset="0.3728" style="stop-color:#FCAD02"/>
					<stop  offset="0.5079" style="stop-color:#FB9B08"/>
					<stop  offset="0.664" style="stop-color:#FB7F11"/>
					<stop  offset="0.8342" style="stop-color:#FA571D"/>
					<stop  offset="1" style="stop-color:#F9292C"/>
				</linearGradient>
				<polygon class="st10" points="505.2,291.2 490.9,291.2 476.5,291.2 449.9,474.1 490.9,474.1 531.8,474.1 				"/>
				
					<linearGradient id="SVGID_10_" gradientUnits="userSpaceOnUse" x1="501.0275" y1="218.954" x2="501.0275" y2="120.7129" gradientTransform="matrix(1 0 0 -1 0 630.3585)">
					<stop  offset="0.2738" style="stop-color:#FCB300"/>
					<stop  offset="0.3728" style="stop-color:#FCAD02"/>
					<stop  offset="0.5079" style="stop-color:#FB9B08"/>
					<stop  offset="0.664" style="stop-color:#FB7F11"/>
					<stop  offset="0.8342" style="stop-color:#FA571D"/>
					<stop  offset="1" style="stop-color:#F9292C"/>
				</linearGradient>
				<path class="st11" d="M316.6,500.4h368.9v-67.7c-2.1-0.4-4.2-0.6-6.4-0.6c-13.5,0-25.3,7.6-31.3,18.8c-0.4,0-0.7,0-1.1,0
					c-9.2,0-17.1,5.3-20.8,13c-4.2-3.1-9.4-5-15-5c-4.1,0-7.9,1-11.4,2.7c-5.1-9-14.8-15-25.8-15c-12.4,0-23,7.6-27.4,18.3
					c-2.5-1.6-5.4-2.5-8.6-2.5c-2.9,0-5.6,0.8-8,2.2c-3.6-7.9-11.5-13.3-20.7-13.3c-6.4,0-12.2,2.6-16.3,6.9
					c-5-4.7-11.7-7.6-19.1-7.6c-11.1,0-20.6,6.5-25.1,15.9c-3.2-2.5-7.2-3.9-11.6-3.9c-4.7,0-9,1.7-12.3,4.6
					c-3.2-13.5-15.3-23.6-29.7-23.6c-10.7,0-20.1,5.5-25.6,13.8c-4.2-4-9.8-6.4-16-6.4c-0.4,0-0.7,0-1.1,0
					c-6-11.2-17.7-18.8-31.3-18.8c-1.5,0-2.9,0.1-4.4,0.3L316.6,500.4L316.6,500.4z"/>
				<g>
					<circle class="st12" cx="814.8" cy="320.8" r="93.7"/>
					
						<linearGradient id="SVGID_11_" gradientUnits="userSpaceOnUse" x1="743.1274" y1="309.5793" x2="886.5273" y2="309.5793" gradientTransform="matrix(1 0 0 -1 0 630.3585)">
						<stop  offset="0" style="stop-color:#F9229A"/>
						<stop  offset="0.1665" style="stop-color:#F924A0"/>
						<stop  offset="0.3938" style="stop-color:#F72AB2"/>
						<stop  offset="0.6563" style="stop-color:#F534CE"/>
						<stop  offset="0.943" style="stop-color:#F241F6"/>
						<stop  offset="1" style="stop-color:#F144FF"/>
					</linearGradient>
					<circle class="st13" cx="814.8" cy="320.8" r="71.7"/>
					<circle class="st12" cx="814.8" cy="320.8" r="55.4"/>
					
						<linearGradient id="SVGID_12_" gradientUnits="userSpaceOnUse" x1="777.6274" y1="309.5793" x2="852.0273" y2="309.5793" gradientTransform="matrix(1 0 0 -1 0 630.3585)">
						<stop  offset="0" style="stop-color:#F9229A"/>
						<stop  offset="0.1665" style="stop-color:#F924A0"/>
						<stop  offset="0.3938" style="stop-color:#F72AB2"/>
						<stop  offset="0.6563" style="stop-color:#F534CE"/>
						<stop  offset="0.943" style="stop-color:#F241F6"/>
						<stop  offset="1" style="stop-color:#F144FF"/>
					</linearGradient>
					<circle class="st14" cx="814.8" cy="320.8" r="37.2"/>
					<circle class="st12" cx="814.8" cy="320.8" r="19.9"/>
				</g>
				<path class="st15" d="M200.9,477c0,0,5.9,11.3,4.2,16.7s-6.2,5.4-7.2,6.7c-1,1.2-1.5,7.4-1.5,7.4h-7.9v-6.2c0,0-4.2-2-5.4-3
					s-3.5-5.1,1-6.3c4.4-1.1,4.7-9.3,7.2-10C193.7,481.7,199.9,480.6,200.9,477z"/>
				<path class="st16" d="M191.5,504.4c0,0-11.1,0.2-18,3.5c-6.9,3.2-19.6,13.3-23.7,18.8c-5.8,7.8-10.1,13.1-10.1,13.1
					s5.9,7.2,13.1,9.6c0,0-3.2,14.8-4.9,27.2s-1.7,21.5-1.7,21.5s12.4,5.2,30.1,5.2s27.4-10.1,27.4-10.1s1-27.4,5.2-44
					s16.6-31.9,16.6-31.9s-7.2-8.9-17.3-12.9c0,0-5.6,6.7-14.6,1.7L191.5,504.4z"/>
				<path class="st15" d="M143.3,540.7c-2.1,0.1-12.9,18-17.1,26.9s-9.1,28.2-9.1,28.2l8.1,9.3c0,0,10.7-30.8,16.1-38.5
					c5.4-7.7,14.1-17.3,14.1-17.3S151.5,540.5,143.3,540.7z"/>
				<polygon class="st12" points="208.6,423.6 237.2,471.3 243.9,466.6 215.2,418.1 				"/>
				<path class="st15" d="M208,506.2c0,0,7.4-6.4,10.9-14.1c3.5-7.7,4.7-46.7,4.7-46.7s-4.9-2.7-7.8-6.7c-2.8-4,4.6-8.2,10.3-4.9
					c5.7,3.2,4.9,4.7,7.2,11.9c2.2,7.2,1,42.3,0,49.4c-1,7.2-13.8,26.3-13.8,26.3L208,506.2z"/>
				<polygon class="st12" points="213,419.3 247.1,353.4 288.4,406 220.4,430.5 				"/>
				<path class="st12" d="M401.5,686.9l-8.5-2.3c0.8-9.5-0.5-18.8-3.5-27.5l7.7-4.4c-2.9-7.9-7.2-15.3-12.5-21.8l-7.7,4.4
					c-5.9-7-13.3-12.8-21.9-16.9l2.3-8.5c-3.8-1.7-7.7-3.2-11.9-4.3c-4.1-1.1-8.3-1.9-12.4-2.3l-2.3,8.5c-9.5-0.8-18.8,0.5-27.5,3.5
					l-4.4-7.7c-7.9,2.9-15.3,7.2-21.8,12.5l4.4,7.7c-7,5.9-12.8,13.3-16.9,21.9l-8.5-2.3c-1.7,3.8-3.2,7.7-4.3,11.9
					c-1.1,4.1-1.9,8.3-2.3,12.4l8.5,2.3c-0.8,9.5,0.5,18.8,3.5,27.5l-7.7,4.4c2.9,7.9,7.2,15.3,12.5,21.8l7.7-4.4
					c5.9,7,13.3,12.8,21.9,16.9l-2.3,8.5c3.8,1.7,7.7,3.2,11.9,4.3s8.3,1.9,12.4,2.3l2.3-8.5c9.5,0.8,18.8-0.5,27.5-3.5l4.4,7.7
					c7.9-2.9,15.3-7.2,21.8-12.5l-4.4-7.7c7-5.9,12.8-13.3,16.9-21.9l8.5,2.3c1.7-3.8,3.2-7.7,4.3-11.9
					C400.4,695.2,401.1,691,401.5,686.9z M316.9,710.8c-17.4-4.7-27.7-22.7-22.9-40.1s22.7-27.7,40.1-22.9s27.7,22.7,22.9,40.1
					S334.3,715.5,316.9,710.8z"/>
				<path class="st12" d="M294.7,611.7l-7.3-2c0.6-8.1-0.4-16.1-3-23.5l6.6-3.8c-2.5-6.8-6.1-13.1-10.7-18.7l-6.6,3.8
					c-5.1-6-11.4-10.9-18.7-14.5l2-7.3c-3.2-1.5-6.6-2.7-10.1-3.7s-7.1-1.6-10.6-2l-2,7.3c-8.1-0.6-16.1,0.4-23.5,3l-3.8-6.6
					c-6.8,2.5-13.1,6.1-18.7,10.7l3.8,6.6c-6,5.1-10.9,11.4-14.5,18.7l-7.3-2c-1.5,3.2-2.7,6.6-3.7,10.1s-1.6,7.1-2,10.6l7.3,2
					c-0.6,8.1,0.4,16.1,3,23.5l-6.6,3.8c2.5,6.8,6.1,13.1,10.7,18.7l6.6-3.8c5.1,6,11.4,10.9,18.7,14.5l-2,7.3
					c3.2,1.5,6.6,2.7,10.1,3.7s7.1,1.6,10.6,2l2-7.3c8.1,0.6,16.1-0.4,23.5-3l3.8,6.6c6.8-2.5,13.1-6.1,18.7-10.7l-3.8-6.6
					c6-5.1,10.9-11.4,14.5-18.7l7.3,2c1.5-3.2,2.7-6.6,3.7-10.1S294.4,615.2,294.7,611.7z M222.4,632.1c-14.9-4-23.7-19.4-19.6-34.3
					c4-14.9,19.4-23.7,34.3-19.6c14.9,4,23.7,19.4,19.6,34.3C252.6,627.3,237.3,636.1,222.4,632.1z"/>
				<path class="st12" d="M377.7,582.6l-6.2-1.7c0.6-6.9-0.4-13.7-2.6-20.1l5.6-3.2c-2.1-5.8-5.2-11.2-9.1-16l-5.6,3.2
					c-4.3-5.1-9.8-9.3-16-12.4l1.7-6.2c-2.8-1.3-5.7-2.3-8.7-3.1s-6.1-1.4-9.1-1.7l-1.7,6.2c-6.9-0.6-13.7,0.4-20.1,2.6l-3.2-5.6
					c-5.8,2.1-11.2,5.2-16,9.1l3.2,5.6c-5.1,4.3-9.3,9.8-12.4,16l-6.2-1.7c-1.3,2.8-2.3,5.7-3.1,8.7s-1.4,6.1-1.7,9.1l6.2,1.7
					c-0.6,6.9,0.4,13.7,2.6,20.1l-5.6,3.2c2.1,5.8,5.2,11.2,9.1,16l5.6-3.2c4.3,5.1,9.8,9.3,16,12.4l-1.7,6.2
					c2.8,1.3,5.7,2.3,8.7,3.1s6.1,1.4,9.1,1.7l1.7-6.2c6.9,0.6,13.7-0.4,20.1-2.6l3.2,5.6c5.8-2.1,11.2-5.2,16-9.1l-3.2-5.6
					c5.1-4.3,9.3-9.8,12.4-16l6.2,1.7c1.3-2.8,2.3-5.7,3.1-8.7C376.9,588.6,377.4,585.6,377.7,582.6z M315.9,600
					c-12.7-3.5-20.2-16.6-16.8-29.3c3.5-12.7,16.6-20.2,29.3-16.8c12.7,3.5,20.2,16.6,16.8,29.3S328.6,603.4,315.9,600z"/>
				<g>
					<circle class="st16" cx="577.7" cy="618" r="45.9"/>
					<circle class="st17" cx="577.7" cy="618" r="34"/>
					<g>
						<path class="st15" d="M575.4,632.4c-3.2-0.1-6.4-0.9-9.4-2.2v-7.4c1.7,0.9,3.6,1.6,5.6,2.2c2,0.6,3.8,0.9,5.3,0.9
							c1.3,0,2.2-0.2,2.8-0.5s0.9-0.8,0.9-1.5c0-0.5-0.2-0.9-0.6-1.2c-0.4-0.3-1.1-0.7-2.1-1.2c-1-0.4-2.3-0.9-4-1.6
							c-1.9-0.7-3.4-1.5-4.5-2.3c-1.2-0.9-2-1.8-2.5-2.9c-0.5-1.1-0.8-2.4-0.8-4c0-2.4,0.8-4.3,2.3-5.7c1.6-1.4,3.9-2.2,7-2.5v-3
							h4.6v3c2.9,0.2,5.9,0.9,8.9,2.2l-2.6,6.3c-3.1-1.4-5.9-2.1-8.4-2.1c-1.2,0-2,0.1-2.5,0.4c-0.5,0.3-0.7,0.7-0.7,1.3
							c0,0.5,0.2,0.9,0.5,1.2s0.9,0.7,1.8,1.1c0.9,0.4,2,0.8,3.6,1.4c3.1,1.1,5.3,2.3,6.7,3.7c1.3,1.4,2,3.2,2,5.4
							c0,2.5-0.8,4.5-2.4,6.1c-1.6,1.6-3.9,2.5-6.9,2.9v4.3h-4.6L575.4,632.4L575.4,632.4z"/>
					</g>
				</g>
				<g>
					<circle class="st16" cx="654.3" cy="596.7" r="52.9"/>
					
						<ellipse transform="matrix(0.1602 -0.9871 0.9871 0.1602 -39.4589 1146.9801)" class="st17" cx="654.3" cy="596.7" rx="39.2" ry="39.2"/>
					<g>
						<path class="st15" d="M645.1,610.7c-3.3-1.7-6.3-3.9-8.8-6.7l3.5-7.7c1.4,1.7,3,3.4,4.8,5s3.5,2.7,5.1,3.4
							c1.3,0.6,2.4,0.9,3.1,0.8c0.8,0,1.3-0.4,1.6-1.2c0.2-0.5,0.2-1-0.1-1.6c-0.3-0.6-0.8-1.3-1.7-2.2c-0.8-0.9-2-2.1-3.4-3.5
							c-1.6-1.6-2.9-3.2-3.7-4.6c-0.8-1.5-1.2-2.9-1.3-4.2c0-1.4,0.3-2.9,1.1-4.6c1.2-2.6,2.9-4.2,5.2-4.9c2.3-0.7,5.2-0.5,8.6,0.7
							l1.4-3.2l4.8,2.2l-1.4,3.1c3,1.6,5.8,3.7,8.3,6.5l-5.8,5.4c-2.6-2.9-5.2-5-7.8-6.2c-1.2-0.6-2.2-0.8-2.8-0.7
							c-0.6,0.1-1.1,0.4-1.4,1c-0.2,0.5-0.2,1,0,1.5s0.7,1.2,1.4,2c0.7,0.8,1.7,1.9,3.1,3.1c2.7,2.6,4.5,5,5.2,7.1s0.6,4.3-0.5,6.6
							c-1.2,2.6-3,4.3-5.4,5.2s-5.3,0.8-8.6-0.3l-2,4.5l-4.8-2.2L645.1,610.7z"/>
					</g>
				</g>
				<g>
					
						<ellipse transform="matrix(0.1602 -0.9871 0.9871 0.1602 -50.319 1045.6156)" class="st16" cx="589.3" cy="552.4" rx="47" ry="47"/>
					
						<ellipse transform="matrix(0.1602 -0.9871 0.9871 0.1602 -50.319 1045.6156)" class="st17" cx="589.3" cy="552.4" rx="34.9" ry="34.9"/>
					<g>
						<path class="st15" d="M600.6,562.1c-1.9,2.7-4.2,5.1-7,7l-6.4-4c1.7-1,3.3-2.2,4.9-3.7c1.6-1.4,2.8-2.8,3.6-4.1
							c0.7-1.1,1-2,1.1-2.6c0.1-0.7-0.2-1.2-0.8-1.6c-0.4-0.3-0.9-0.3-1.4-0.1s-1.2,0.6-2.1,1.2c-0.9,0.6-2.1,1.5-3.5,2.6
							c-1.6,1.3-3.1,2.2-4.5,2.7s-2.7,0.7-3.9,0.6c-1.2-0.1-2.5-0.6-3.9-1.5c-2.1-1.3-3.4-3-3.7-5.1s0.2-4.6,1.6-7.5l-2.6-1.6l2.5-4
							l2.6,1.6c1.7-2.5,4-4.7,6.7-6.6l4.1,5.7c-2.9,1.9-5,4-6.3,6.1c-0.6,1-1,1.8-1,2.4c0,0.6,0.2,1,0.7,1.3
							c0.4,0.3,0.9,0.3,1.3,0.2c0.5-0.1,1.1-0.5,1.9-1c0.8-0.5,1.8-1.3,3.1-2.4c2.6-2.1,4.9-3.4,6.9-3.8c1.9-0.4,3.9,0,5.8,1.2
							c2.2,1.3,3.5,3.1,4,5.3s0.1,4.7-1.2,7.6l3.7,2.3l-2.5,4L600.6,562.1z"/>
					</g>
				</g>
				<g>
					<circle class="st16" cx="492.6" cy="491.3" r="38.2"/>
					<circle class="st17" cx="492.6" cy="491.3" r="28.3"/>
					<g>
						<path class="st15" d="M495.8,503c-2.5,1-5.1,1.5-7.8,1.6l-2.5-5.6c1.6,0.1,3.3,0,5-0.3c1.7-0.2,3.2-0.6,4.3-1.2
							c1-0.4,1.6-0.9,1.9-1.3c0.3-0.4,0.4-0.9,0.1-1.5c-0.2-0.4-0.5-0.6-0.9-0.7c-0.4-0.1-1.1-0.2-2-0.1c-0.9,0-2.1,0.1-3.5,0.2
							c-1.7,0.1-3.1,0.1-4.2-0.2c-1.2-0.3-2.1-0.7-2.9-1.3c-0.8-0.6-1.4-1.6-2-2.8c-0.8-1.8-0.9-3.6-0.2-5.1c0.7-1.6,2.2-3,4.5-4.4
							l-1-2.3l3.5-1.6l1,2.3c2.3-0.9,4.8-1.4,7.5-1.4l0.2,5.7c-2.8,0-5.2,0.4-7,1.3c-0.9,0.4-1.5,0.8-1.7,1.2
							c-0.3,0.4-0.3,0.8-0.1,1.2s0.4,0.6,0.8,0.7c0.4,0.1,1,0.2,1.7,0.2c0.8,0,1.8-0.1,3.2-0.2c2.7-0.2,4.8-0.1,6.3,0.5
							s2.6,1.7,3.4,3.4c0.9,1.9,1,3.7,0.3,5.4s-2.1,3.2-4.2,4.6l1.5,3.2l-3.5,1.6L495.8,503z"/>
					</g>
				</g>
				<g>
					<circle class="st16" cx="626.1" cy="452.4" r="25.4"/>
					<circle class="st17" cx="626.1" cy="452.4" r="18.9"/>
					<g>
						<path class="st15" d="M621.4,458.9c-1.6-0.9-2.9-2-4.1-3.4l1.9-3.6c0.6,0.9,1.4,1.7,2.2,2.5s1.6,1.4,2.4,1.8
							c0.6,0.3,1.1,0.5,1.5,0.5s0.6-0.2,0.8-0.5c0.1-0.2,0.1-0.5,0-0.8s-0.4-0.6-0.7-1.1c-0.4-0.5-0.9-1.1-1.6-1.8
							c-0.8-0.8-1.3-1.6-1.7-2.3c-0.3-0.7-0.5-1.4-0.5-2.1c0-0.7,0.2-1.4,0.6-2.2c0.6-1.2,1.5-1.9,2.6-2.2c1.1-0.3,2.5-0.1,4.1,0.5
							l0.8-1.5l2.3,1.2l-0.8,1.5c1.4,0.8,2.7,1.9,3.8,3.3l-2.9,2.4c-1.2-1.5-2.4-2.5-3.6-3.1c-0.6-0.3-1-0.4-1.3-0.4
							s-0.5,0.2-0.7,0.4c-0.1,0.2-0.1,0.5,0,0.7s0.3,0.6,0.6,1c0.3,0.4,0.8,0.9,1.4,1.6c1.2,1.3,2,2.5,2.3,3.5s0.2,2.1-0.4,3.2
							c-0.6,1.2-1.5,2-2.7,2.4s-2.5,0.3-4.1-0.3l-1.1,2.1l-2.3-1.2L621.4,458.9z"/>
					</g>
				</g>
				<polygon class="st16" points="756,190.1 670.7,211.8 685.6,235.1 700.5,258.4 				"/>
				<rect x="450.5" y="606.2" class="st15" width="70.4" height="1"/>
				<path class="st15" d="M270.6,656l-4-6.9l0.3-0.3c6.1-5.2,10.9-11.4,14.4-18.6l0.2-0.4l7.3,2c1.4-3.1,2.6-6.4,3.5-9.7
					s1.5-6.7,1.9-10.1l-7.3-2v-0.4c0.6-7.9-0.4-15.8-3-23.3l-0.1-0.4l6.6-3.8c-2.4-6.4-5.9-12.4-10.2-17.8l-6.2,3.6l-0.5-0.9l6.9-4
					l0.3,0.3c4.6,5.6,8.2,12,10.8,18.8l0.1,0.4l-6.6,3.8c2.5,7.4,3.5,15.1,2.9,22.9l7.3,2v0.4c-0.4,3.6-1,7.2-2,10.7
					c-0.9,3.5-2.2,6.9-3.7,10.2l-0.2,0.4l-7.3-2c-3.5,7-8.2,13.2-14.1,18.3l3.6,6.2L270.6,656z"/>
				<path class="st15" d="M376.6,635.6c-6-7.1-13.4-12.7-21.7-16.8l-0.4-0.2l2.3-8.5c-3.7-1.7-7.5-3-11.4-4.1s-7.9-1.8-11.9-2.2
					l-2.3,8.5h-0.4c-6.2-0.5-12.4-0.1-18.5,1.1l-0.2-1c6-1.2,12.2-1.6,18.4-1.1l2.3-8.6h0.4c4.2,0.4,8.4,1.2,12.5,2.3
					s8.1,2.6,11.9,4.3l0.4,0.2l-2.3,8.6c8.4,4.1,15.7,9.8,21.7,16.9L376.6,635.6z"/>
				<g>
					<polygon class="st15" points="633,361.6 793.7,335.5 670.1,368.6 					"/>
					<polygon class="st15" points="732.8,403.7 681.1,374.9 793.7,335.5 					"/>
					<polygon class="st15" points="670.1,368.6 674.7,403.7 681.1,374.9 793.7,335.5 					"/>
					<polygon class="st15" points="681.1,374.9 674.7,403.7 705.3,388.4 					"/>
					
						<linearGradient id="SVGID_13_" gradientUnits="userSpaceOnUse" x1="674.4275" y1="256.2293" x2="767.0275" y2="256.2293" gradientTransform="matrix(1 0 0 -1 0 630.3585)">
						<stop  offset="0" style="stop-color:#6A0587"/>
						<stop  offset="0.246" style="stop-color:#660681"/>
						<stop  offset="0.5818" style="stop-color:#5A0B6F"/>
						<stop  offset="0.9679" style="stop-color:#461153"/>
						<stop  offset="1" style="stop-color:#441250"/>
					</linearGradient>
					<polygon class="st18" points="675.1,403.8 674.4,403.7 680.8,374.7 681,374.6 766.8,344.5 767,345.2 681.4,375.2 					"/>
					
						<linearGradient id="SVGID_14_" gradientUnits="userSpaceOnUse" x1="670.0275" y1="275.9792" x2="776.0275" y2="275.9792" gradientTransform="matrix(1 0 0 -1 0 630.3585)">
						<stop  offset="0" style="stop-color:#6A0587"/>
						<stop  offset="0.246" style="stop-color:#660681"/>
						<stop  offset="0.5818" style="stop-color:#5A0B6F"/>
						<stop  offset="0.9679" style="stop-color:#461153"/>
						<stop  offset="1" style="stop-color:#441250"/>
					</linearGradient>
					<polygon class="st19" points="670.2,368.9 670,368.2 775.8,339.9 776,340.6 					"/>
					
						<linearGradient id="SVGID_15_" gradientUnits="userSpaceOnUse" x1="680.9727" y1="251.5792" x2="695.1343" y2="251.5792" gradientTransform="matrix(1 0 0 -1 0 630.3585)">
						<stop  offset="0" style="stop-color:#6A0587"/>
						<stop  offset="0.246" style="stop-color:#660681"/>
						<stop  offset="0.5818" style="stop-color:#5A0B6F"/>
						<stop  offset="0.9679" style="stop-color:#461153"/>
						<stop  offset="1" style="stop-color:#441250"/>
					</linearGradient>
					<polygon class="st20" points="694.7,383 680.9,375.3 681.3,374.6 695.1,382.3 					"/>
				</g>
				<g>
					<rect x="411" y="608.5" class="st12" width="11.4" height="110.3"/>
					<rect x="430" y="592.5" class="st12" width="11.4" height="126.3"/>
					<rect x="449.1" y="578.6" class="st12" width="11.4" height="140.2"/>
					<rect x="468.1" y="565.6" class="st12" width="11.4" height="153.3"/>
					<rect x="487.1" y="552" class="st12" width="11.4" height="166.9"/>
					<rect x="506.2" y="537.5" class="st12" width="11.4" height="181.3"/>
				</g>
				
					<rect x="257.8" y="343.2" transform="matrix(0.439 -0.8985 0.8985 0.439 -155.7617 438.8523)" class="st12" width="31.5" height="2"/>
				
					<rect x="277.5" y="365" transform="matrix(0.7318 -0.6815 0.6815 0.7318 -172.0049 294.8324)" class="st12" width="22.3" height="2"/>
				
					<rect x="289.5" y="387" transform="matrix(0.9491 -0.3149 0.3149 0.9491 -106.6125 116.1844)" class="st12" width="33.5" height="2"/>
				<g>
					<path class="st16" d="M868.9,539.5H733.6c-5.3,0-9.5-4.3-9.5-9.5v-84.6c0-5.3,4.3-9.5,9.5-9.5h135.3c5.3,0,9.5,4.3,9.5,9.5V530
						C878.5,535.2,874.2,539.5,868.9,539.5z"/>
					<path class="st17" d="M727.3,438.3l74,58.1l74-58.1c-1.7-1.5-3.9-2.5-6.4-2.5H733.6C731.2,435.8,728.9,436.8,727.3,438.3z"/>
				</g>
			</g>
		</g>
	</g>
	<g>
		<path class="st3" d="M227.8,428.2H51.4c-4.4,0-8-3.6-8-8v-44.4c0-4.4,3.6-8,8-8h176.4c4.4,0,8,3.6,8,8v44.4
			C235.8,424.6,232.2,428.2,227.8,428.2z"/>
		<rect x="54.7" y="378.6" class="st21" width="169.9" height="5"/>
		<rect x="54.7" y="389.4" class="st21" width="169.9" height="5"/>
		<rect x="54.7" y="400.2" class="st21" width="169.9" height="5"/>
		<rect x="54.7" y="411" class="st21" width="169.9" height="5"/>
		<polygon class="st3" points="84.1,420.8 84.1,448.1 118.9,420.8 		"/>
	</g>
	<path class="st3" d="M498.6,47c-3.6-5.6-11.8-5.6-15.4,0c-15.1,23.4-47,79.4-44.5,130.8c3.3,67.2,34.4,92.9,34.4,92.9H491h17.9
		c0,0,31.1-25.8,34.4-92.9C545.6,126.4,513.7,70.5,498.6,47z"/>
	<path class="st12" d="M441.7,204.7L441.7,204.7c0,0-2.9,0.9-7,2.7c-10.8,4.7-18.5,14.5-20.5,26.1c-2.9,16.2-6.3,42.5-4.2,66.6
		c0,0,26.4-33.4,49.9-45.8C453.3,243.7,445.9,227.6,441.7,204.7z"/>
	<path class="st12" d="M540,204.7L540,204.7c0,0,2.9,0.9,7,2.7c10.8,4.7,18.5,14.5,20.5,26.1c2.9,16.2,6.3,42.5,4.2,66.6
		c0,0-26.4-33.4-49.9-45.8C528.4,243.7,535.9,227.6,540,204.7z"/>
	<circle class="st15" cx="490.9" cy="126.6" r="24.1"/>
	<path class="st12" d="M253.1,262c2.9,0,5.7,0.7,8.2,1.9c0.5-13.2,11.4-23.7,24.7-23.7c3.7,0,7.3,0.9,10.4,2.3c1-14,12.7-25,26.9-25
		c12.7,0,23.3,8.8,26.2,20.6c6.7,1.1,12.1,6.1,13.7,12.7c12.4,1.1,22.2,11.5,22.2,24.2c0,13.4-10.9,24.3-24.3,24.3
		c-0.4,0-0.9,0-1.3-0.1v0.1H253.1c-10.3,0-18.6-8.3-18.6-18.6S242.8,262,253.1,262z"/>
	<path class="st12" d="M714.6,77c-3.6,0-7,0.9-10,2.3c-0.7-16.1-13.9-29-30.2-29c-4.6,0-8.9,1-12.8,2.9c-1.3-17.1-15.5-30.6-33-30.6
		c-15.6,0-28.6,10.8-32.1,25.2c-8.3,1.3-14.9,7.5-16.8,15.5c-15.2,1.3-27.1,14.1-27.1,29.6c0,16.4,13.3,29.8,29.8,29.8
		c0.5,0,1-0.1,1.6-0.1v0.1h130.6c12.6,0,22.8-10.2,22.8-22.8C737.4,87.2,727.2,77,714.6,77z"/>
	<path class="st12" d="M508.7,270.8h-17.9h-17.9l-9.2,23.4c0,0,13.9,6,27,6s27-6,27-6L508.7,270.8z"/>
	
		<linearGradient id="SVGID_16_" gradientUnits="userSpaceOnUse" x1="787.0255" y1="443.5793" x2="863.9275" y2="443.5793" gradientTransform="matrix(1 0 0 -1 0 630.3585)">
		<stop  offset="0" style="stop-color:#6A0587"/>
		<stop  offset="0.246" style="stop-color:#660681"/>
		<stop  offset="0.5818" style="stop-color:#5A0B6F"/>
		<stop  offset="0.9679" style="stop-color:#461153"/>
		<stop  offset="1" style="stop-color:#441250"/>
	</linearGradient>
	<path class="st22" d="M794.9,153.4H856c4.4,0,7.9,3.6,7.9,7.9V199c0,4.4-3.6,7.9-7.9,7.9h-10.5v13.3L832,206.9h-37.1
		c-4.4,0-7.9-3.6-7.9-7.9v-37.7C786.9,157,790.5,153.4,794.9,153.4z"/>
	<g class="st23">
		<rect x="798.1" y="168.6" class="st21" width="54.5" height="8.2"/>
		<rect x="798.1" y="185.3" class="st21" width="54.5" height="8.2"/>
	</g>
	<path class="st3" d="M828.3,128.8h-61.1c-4.4,0-7.9,3.6-7.9,7.9v37.7c0,4.4,3.6,7.9,7.9,7.9h10.5v13.3l13.5-13.3h37.1
		c4.4,0,7.9-3.6,7.9-7.9v-37.7C836.3,132.4,832.7,128.8,828.3,128.8z"/>
	<g class="st23">
		<rect x="770.9" y="143.2" class="st21" width="54.5" height="8.2"/>
		<rect x="770.9" y="159.9" class="st21" width="54.5" height="8.2"/>
	</g>
</g>
</svg>
