<?xml version="1.0" encoding="utf-8"?>
<!-- Generator: Adobe Illustrator 23.0.4, SVG Export Plug-In . SVG Version: 6.00 Build 0)  -->
<svg version="1.1" id="Layer_1" xmlns="http://www.w3.org/2000/svg" xmlns:xlink="http://www.w3.org/1999/xlink" x="0px" y="0px"
	 viewBox="0 0 2333.8 2000" style="enable-background:new 0 0 2333.8 2000;" xml:space="preserve">
<style type="text/css">
	.st0{fill:#4B5375;}
	.st1{fill:#61688E;}
	.st2{fill:#6069A0;}
	.st3{fill:url(#SVGID_1_);}
	.st4{fill:#EFF2F9;}
	.st5{fill:#98A1D8;}
	.st6{fill:#DAE1F2;}
	.st7{fill:url(#SVGID_2_);}
	.st8{fill:#A3AAE5;}
	.st9{fill:#7F84AD;}
	.st10{fill:#E2E8F7;}
	.st11{fill:#D375AD;}
	.st12{fill:#94C474;}
	.st13{fill:#CCC16D;}
	.st14{fill:#A1A6C6;}
	.st15{fill:#444B6B;}
	.st16{fill:#CED4ED;}
	.st17{fill:#727BA0;}
	.st18{fill:#A9B0C9;}
	.st19{fill:#F59898;}
	.st20{fill:#FFFFFF;}
	.st21{fill:#D1D5E5;}
	.st22{fill:#2F324C;}
	.st23{fill:#7A3B25;}
	.st24{fill:#D8B368;}
	.st25{fill:#FFDB8A;}
	.st26{fill:#404263;}
	.st27{fill:#964D2D;}
	.st28{fill:#646884;}
	.st29{fill:#505372;}
	.st30{fill:#A8AFC6;}
	.st31{fill:#EFF1F9;}
</style>
<ellipse transform="matrix(1.950019e-02 -0.9998 0.9998 1.950019e-02 -725.7508 2982.3091)" class="st0" cx="1157.6" cy="1861.2" rx="111.6" ry="1015.7"/>
<ellipse class="st1" cx="1158.1" cy="1838.5" rx="1015.7" ry="123.9"/>
<path class="st1" d="M2081.5,223.5h-155.9c-12.1,0-22-9.9-22-22v-96.3c0-12.1,9.9-22,22-22h155.9c12.1,0,22,9.9,22,22v96.3
	C2103.5,213.6,2093.6,223.5,2081.5,223.5z M1925.6,92.8c-6.8,0-12.4,5.5-12.4,12.4v96.3c0,6.8,5.5,12.4,12.4,12.4h155.9
	c6.8,0,12.4-5.5,12.4-12.4v-96.3c0-6.8-5.5-12.4-12.4-12.4H1925.6z"/>
<g>
	
		<rect x="2051.6" y="107.4" transform="matrix(0.7071 -0.7071 0.7071 0.7071 510.1079 1492.2856)" class="st1" width="9.6" height="46"/>
	
		<rect x="2033.5" y="125.6" transform="matrix(0.7072 -0.707 0.707 0.7072 509.8796 1492.1238)" class="st1" width="46" height="9.6"/>
</g>
<path class="st2" d="M424.4,902.9V148c0-47.5,38.5-86,86-86h-53.2c-47.5,0-86,38.5-86,86v755c0,47.5,38.5,86,86,86h53.2
	C462.9,988.9,424.4,950.4,424.4,902.9z"/>
<linearGradient id="SVGID_1_" gradientUnits="userSpaceOnUse" x1="1764.1158" y1="1938.9451" x2="467.5914" y2="1005.7776" gradientTransform="matrix(1 0 0 -1 0 2000)">
	<stop  offset="0" style="stop-color:#A9AFEB"/>
	<stop  offset="1" style="stop-color:#BEC3E3"/>
</linearGradient>
<path class="st3" d="M1742.3,988.9H495.4c-47.5,0-86-38.5-86-86V148c0-47.5,38.5-86,86-86h1246.9c47.5,0,86,38.5,86,86v755
	C1828.3,950.4,1789.8,988.9,1742.3,988.9z"/>
<polygon class="st4" points="1794.7,589.7 1467.6,589.7 1467.6,584.2 1789.2,584.2 1789.2,180.7 1943.1,180.7 1943.1,186.2 
	1794.7,186.2 "/>
<path class="st5" d="M1355.7,510.6h-76.1l-8.5-14.1h-51.5v26.9v11.2v61.9c0,7.1,5.7,12.8,12.8,12.8h123.3c7.1,0,12.8-5.7,12.8-12.8
	v-73.1C1368.6,516.4,1362.8,510.6,1355.7,510.6z"/>
<g>
	<path class="st4" d="M1380,503.6c-12.5,0-22.7-10.2-22.7-22.7c0-12.5,10.2-22.7,22.7-22.7c12.5,0,22.7,10.2,22.7,22.7
		C1402.6,493.5,1392.5,503.6,1380,503.6z M1380,462.5c-10.2,0-18.5,8.3-18.5,18.5c0,10.2,8.3,18.5,18.5,18.5
		c10.2,0,18.5-8.3,18.5-18.5C1398.5,470.8,1390.2,462.5,1380,462.5z"/>
	<g>
		
			<rect x="1367.4" y="478.9" transform="matrix(0.7071 -0.7071 0.7071 0.7071 64.0721 1116.6495)" class="st4" width="25.1" height="4.1"/>
		
			<rect x="1377.9" y="468.4" transform="matrix(0.7071 -0.7071 0.7071 0.7071 64.0939 1116.6274)" class="st4" width="4.1" height="25.1"/>
	</g>
</g>
<g>
	<path class="st4" d="M927.7,558c-18.5,0-33.5-15-33.5-33.5c0-18.5,15-33.5,33.5-33.5c18.5,0,33.5,15,33.5,33.5
		C961.2,543,946.1,558,927.7,558z M927.7,496.6c-15.4,0-28,12.5-28,28c0,15.4,12.5,28,28,28c15.4,0,28-12.5,28-28
		C955.6,509.2,943.1,496.6,927.7,496.6z"/>
	<path class="st4" d="M927.7,589.7c-35.9,0-65.2-29.2-65.2-65.2c0-35.9,29.2-65.2,65.2-65.2c35.9,0,65.2,29.2,65.2,65.2
		S963.6,589.7,927.7,589.7z M927.7,464.9c-32.9,0-59.6,26.8-59.6,59.6s26.8,59.6,59.6,59.6c32.9,0,59.6-26.8,59.6-59.6
		S960.6,464.9,927.7,464.9z"/>
	<path class="st4" d="M927.7,627.3c-56.7,0-102.7-46.1-102.7-102.7c0-56.7,46.1-102.7,102.7-102.7c56.7,0,102.7,46.1,102.7,102.7
		C1030.4,581.2,984.3,627.3,927.7,627.3z M927.7,427.3c-53.6,0-97.2,43.6-97.2,97.2s43.6,97.2,97.2,97.2c53.6,0,97.2-43.6,97.2-97.2
		S981.3,427.3,927.7,427.3z"/>
</g>
<g>
	<path class="st4" d="M898.4,1082.6h-41.7v-2.8h41.7c15.4,0,27.9-12.5,27.9-27.9V650.5h2.8V1052
		C929.1,1068.9,915.3,1082.6,898.4,1082.6z"/>
	<circle class="st4" cx="927.7" cy="650.5" r="8.1"/>
	<circle class="st4" cx="857.8" cy="1081.3" r="8.1"/>
</g>
<rect x="470.1" y="188.7" class="st6" width="453.3" height="14.7"/>
<rect x="946" y="188.7" class="st6" width="15.3" height="14.7"/>
<g>
	<rect x="971.4" y="849.2" class="st5" width="78.4" height="15.9"/>
	<rect x="971.4" y="876.8" class="st5" width="138.8" height="15.9"/>
	<rect x="971.4" y="904.4" class="st5" width="106" height="15.9"/>
	<rect x="971.4" y="932" class="st5" width="54.8" height="15.9"/>
</g>
<g>
	<path class="st4" d="M638.6,295.8l33.9-17.4v5L644,297.7v0.1l28.5,14.3v5l-33.9-17.4V295.8z"/>
	<path class="st4" d="M677.3,320.1l20.4-52.9h5l-20.4,52.9H677.3z"/>
	<path class="st4" d="M741,299.8l-33.9,17.4v-5l28.8-14.3v-0.1l-28.8-14.3v-5l33.9,17.4V299.8z"/>
</g>
<g>
	<path class="st1" d="M361,1010.5h-37.3c-2.7,0-4.8,2.1-4.8,4.8v11.3c0,2.7,2.1,4.8,4.8,4.8H361c2.7,0,4.8-2.1,4.8-4.8v-11.3
		C365.8,1012.7,363.7,1010.5,361,1010.5z"/>
	<path class="st1" d="M435.1,1047.5H323.7c-2.7,0-4.8,2.1-4.8,4.8v11.3c0,2.7,2.1,4.8,4.8,4.8h111.3c2.7,0,4.8-2.1,4.8-4.8v-11.3
		C439.9,1049.6,437.7,1047.5,435.1,1047.5z"/>
	<path class="st1" d="M435.1,1084.4H323.7c-2.7,0-4.8,2.1-4.8,4.8v11.3c0,2.7,2.1,4.8,4.8,4.8h111.3c2.7,0,4.8-2.1,4.8-4.8v-11.3
		C439.9,1086.6,437.7,1084.4,435.1,1084.4z"/>
	<path class="st1" d="M475.6,1084.4h-16.3c-2.7,0-4.8,2.1-4.8,4.8v11.3c0,2.7,2.1,4.8,4.8,4.8h16.3c2.7,0,4.8-2.1,4.8-4.8v-11.3
		C480.4,1086.6,478.2,1084.4,475.6,1084.4z"/>
	<path class="st1" d="M417.6,1121.3h-93.9c-2.7,0-4.8,2.1-4.8,4.8v11.3c0,2.7,2.1,4.8,4.8,4.8h93.9c2.7,0,4.8-2.1,4.8-4.8v-11.3
		C422.4,1123.5,420.3,1121.3,417.6,1121.3z"/>
</g>
<g>
	<path class="st1" d="M1863.9,1153.5h-61.5c-2.7,0-4.8,2.1-4.8,4.8v11.3c0,2.7,2.1,4.8,4.8,4.8h61.5c2.7,0,4.8-2.1,4.8-4.8v-11.3
		C1868.7,1155.7,1866.6,1153.5,1863.9,1153.5z"/>
	<path class="st1" d="M1913.8,1190.5h-111.3c-2.7,0-4.8,2.1-4.8,4.8v11.3c0,2.7,2.1,4.8,4.8,4.8h111.3c2.7,0,4.8-2.1,4.8-4.8v-11.3
		C1918.6,1192.6,1916.5,1190.5,1913.8,1190.5z"/>
	<path class="st1" d="M1844.5,1227.4h-42.1c-2.7,0-4.8,2.1-4.8,4.8v11.3c0,2.7,2.1,4.8,4.8,4.8h42.1c2.7,0,4.8-2.1,4.8-4.8v-11.3
		C1849.3,1229.6,1847.2,1227.4,1844.5,1227.4z"/>
	<path class="st1" d="M1885.1,1227.4h-16.3c-2.7,0-4.8,2.1-4.8,4.8v11.3c0,2.7,2.1,4.8,4.8,4.8h16.3c2.7,0,4.8-2.1,4.8-4.8v-11.3
		C1889.9,1229.6,1887.7,1227.4,1885.1,1227.4z"/>
	<path class="st1" d="M1896.4,1264.3h-93.9c-2.7,0-4.8,2.1-4.8,4.8v11.3c0,2.7,2.1,4.8,4.8,4.8h93.9c2.7,0,4.8-2.1,4.8-4.8v-11.3
		C1901.2,1266.5,1899,1264.3,1896.4,1264.3z"/>
	<path class="st1" d="M1955.9,1264.3h-32.5c-2.7,0-4.8,2.1-4.8,4.8v11.3c0,2.7,2.1,4.8,4.8,4.8h32.5c2.7,0,4.8-2.1,4.8-4.8v-11.3
		C1960.7,1266.5,1958.6,1264.3,1955.9,1264.3z"/>
</g>
<g>
	<path class="st4" d="M1215.1,360.7c-9.1,0-18-0.7-25.8-2.1c-18.1-3.2-28.5-9.3-28.5-16.7c0-12.3,27.3-18.8,54.3-18.8
		c27,0,54.3,6.5,54.3,18.8c0,7.4-10.4,13.5-28.5,16.7C1233.1,359.9,1224.2,360.7,1215.1,360.7z M1215.1,328.6
		c-30.2,0-48.8,7.7-48.8,13.3c0,3.5,8.2,8.5,24,11.3c7.5,1.3,16.1,2,24.8,2c8.7,0,17.3-0.7,24.8-2c15.7-2.8,24-7.8,24-11.3
		C1263.9,336.3,1245.4,328.6,1215.1,328.6z"/>
	<path class="st4" d="M1215.1,388.6c-9.1,0-18-0.7-25.8-2.1c-18.1-3.2-28.5-9.3-28.5-16.7v-28h5.5c0,3.5,8.2,8.5,24,11.3
		c7.5,1.3,16.1,2,24.8,2c8.7,0,17.3-0.7,24.8-2c15.7-2.8,24-7.8,24-11.3h5.5v28c0,7.4-10.4,13.5-28.5,16.7
		C1233.1,387.9,1224.2,388.6,1215.1,388.6z M1166.3,350.5v19.3c0,3.5,8.2,8.5,24,11.3c7.5,1.3,16.1,2,24.8,2s17.3-0.7,24.8-2
		c15.7-2.8,24-7.8,24-11.3v-19.3c-4.8,3.4-12.7,6.2-23,8c-7.8,1.4-16.7,2.1-25.8,2.1s-18-0.7-25.8-2.1
		C1179,356.7,1171.1,354,1166.3,350.5z"/>
	<path class="st4" d="M1215.1,416.6c-9,0-17.8-0.7-25.5-2.1l-0.2,0c-18.1-3.2-28.5-9.3-28.5-16.7v-28h5.5c0,3.5,8.2,8.5,24,11.3
		c7.5,1.3,16.1,2,24.8,2s17.3-0.7,24.8-2c15.7-2.8,24-7.8,24-11.3h5.5v28c0,7.4-10.4,13.5-28.5,16.7l-0.2,0
		C1232.9,415.9,1224.1,416.6,1215.1,416.6z M1190.1,409l0.2,0c7.5,1.3,16.1,2,24.8,2c8.7,0,17.3-0.7,24.8-2l0.2,0
		c15.6-2.8,23.8-7.7,23.8-11.2v-19.3c-4.8,3.4-12.7,6.2-23,8c-7.8,1.4-16.7,2.1-25.8,2.1s-18-0.7-25.8-2.1c-10.4-1.8-18.2-4.6-23-8
		v19.3C1166.3,401.3,1174.5,406.2,1190.1,409z"/>
	<path class="st4" d="M1215.1,444.5c-27,0-54.3-6.5-54.3-18.8v-28h5.5c0,3.5,8.2,8.5,23.8,11.2l0.2,0c7.5,1.3,16.1,2,24.8,2
		c8.7,0,17.3-0.7,24.8-2l0.2,0c15.6-2.8,23.8-7.7,23.8-11.2h5.5v28C1269.5,438.1,1242.1,444.5,1215.1,444.5z M1166.3,406.4v19.3
		c0,5.6,18.6,13.3,48.8,13.3c30.2,0,48.8-7.7,48.8-13.3v-19.3c-4.8,3.4-12.7,6.2-23,8l-0.2,0c-7.7,1.4-16.6,2.1-25.5,2.1
		c-9,0-17.8-0.7-25.5-2.1l-0.2,0C1179,412.6,1171.1,409.9,1166.3,406.4z"/>
</g>
<path class="st5" d="M1198.5,158h-7.6c-1.3-12.8-9.7-23.4-21.1-28c0,0,0,0,0,0c0.1-1.5,0.2-2.9,0.2-4.4c0-27.4-22.2-49.6-49.6-49.6
	c-25,0-45.6,18.4-49.1,42.4c0,0,0,0,0,0c-20.1,3.7-35.9,19.5-39.6,39.6h-9.7c-8.5,0-15.4,6.9-15.4,15.5s6.9,15.5,15.4,15.5h176.6
	c8.5,0,15.4-6.9,15.4-15.5C1213.9,165,1207,158,1198.5,158z"/>
<circle class="st4" cx="1213.9" cy="301.8" r="8.1"/>
<circle class="st4" cx="1108.2" cy="211.5" r="8.1"/>
<polygon class="st4" points="1215.3,301.8 1212.5,301.8 1212.5,258.9 1106.8,258.9 1106.8,211.5 1109.5,211.5 1109.5,256.1 
	1215.3,256.1 "/>
<g>
	<path class="st2" d="M767.3,1232.3H565.6c-16.9,0-30.6-13.7-30.6-30.6V940.2c0-16.9,13.7-30.6,30.6-30.6h201.7
		c16.9,0,30.6,13.7,30.6,30.6v261.5C797.9,1218.6,784.2,1232.3,767.3,1232.3z"/>
	
		<linearGradient id="SVGID_2_" gradientUnits="userSpaceOnUse" x1="689.8413" y1="1091.1581" x2="689.8413" y2="776.373" gradientTransform="matrix(1 0 0 -1 0 2000)">
		<stop  offset="0" style="stop-color:#C2C7F5"/>
		<stop  offset="3.540000e-02" style="stop-color:#C5CAF6"/>
		<stop  offset="0.2869" style="stop-color:#D4D9FB"/>
		<stop  offset="0.5781" style="stop-color:#DDE2FE"/>
		<stop  offset="1" style="stop-color:#E0E5FF"/>
	</linearGradient>
	<path class="st7" d="M790.7,1232.3H589c-16.9,0-30.6-13.7-30.6-30.6V940.2c0-16.9,13.7-30.6,30.6-30.6h201.7
		c16.9,0,30.6,13.7,30.6,30.6v261.5C821.3,1218.6,807.6,1232.3,790.7,1232.3z"/>
	<g>
		<path class="st8" d="M730.8,949.5H593.1c-3,0-5.5,2.5-5.5,5.5v14.5c0,3,2.5,5.5,5.5,5.5h137.6c3,0,5.5-2.5,5.5-5.5V955
			C736.3,951.9,733.8,949.5,730.8,949.5z"/>
		<path class="st8" d="M721.1,1003.8h-128c-3,0-5.5,2.5-5.5,5.5v14.5c0,3,2.5,5.5,5.5,5.5h128c3,0,5.5-2.5,5.5-5.5v-14.5
			C726.6,1006.3,724.2,1003.8,721.1,1003.8z"/>
		<path class="st8" d="M695.7,1058.2H593.1c-3,0-5.5,2.5-5.5,5.5v14.5c0,3,2.5,5.5,5.5,5.5h102.5c3,0,5.5-2.5,5.5-5.5v-14.5
			C701.2,1060.7,698.7,1058.2,695.7,1058.2z"/>
		<path class="st8" d="M654.4,1112.6h-61.2c-3,0-5.5,2.5-5.5,5.5v14.5c0,3,2.5,5.5,5.5,5.5h61.2c3,0,5.5-2.5,5.5-5.5v-14.5
			C659.9,1115,657.4,1112.6,654.4,1112.6z"/>
		<path class="st8" d="M730.8,1166.9H593.1c-3,0-5.5,2.5-5.5,5.5v14.5c0,3,2.5,5.5,5.5,5.5h137.6c3,0,5.5-2.5,5.5-5.5v-14.5
			C736.3,1169.4,733.8,1166.9,730.8,1166.9z"/>
	</g>
</g>
<g>
	<rect x="635.1" y="504.3" class="st4" width="2.9" height="311.5"/>
	<path class="st9" d="M674,478.4h-75c-3.4,0-6.2,2.8-6.2,6.2v24.4c0,3.4,2.8,6.2,6.2,6.2h75c3.4,0,6.2-2.8,6.2-6.2v-24.4
		C680.2,481.2,677.4,478.4,674,478.4z"/>
	<path class="st9" d="M674,806h-75c-3.4,0-6.2,2.8-6.2,6.2v24.4c0,3.4,2.8,6.2,6.2,6.2h75c3.4,0,6.2-2.8,6.2-6.2v-24.4
		C680.2,808.8,677.4,806,674,806z"/>
	<path class="st6" d="M674,694.9h-75c-3.4,0-6.2,2.8-6.2,6.2v24.4c0,3.4,2.8,6.2,6.2,6.2h75c3.4,0,6.2-2.8,6.2-6.2v-24.4
		C680.2,697.7,677.4,694.9,674,694.9z"/>
	<polygon class="st4" points="752.6,779.3 636.5,779.3 636.5,776.4 749.7,776.4 749.7,599.3 559.3,599.3 559.3,596.4 752.6,596.4 	
		"/>
	<path class="st6" d="M783.3,582H719c-2.9,0-5.3,2.4-5.3,5.3v21c0,2.9,2.4,5.3,5.3,5.3h64.3c2.9,0,5.3-2.4,5.3-5.3v-21
		C788.7,584.4,786.3,582,783.3,582z"/>
	<path class="st6" d="M569.8,582h-64.3c-2.9,0-5.3,2.4-5.3,5.3v21c0,2.9,2.4,5.3,5.3,5.3h64.3c2.9,0,5.3-2.4,5.3-5.3v-21
		C575.1,584.4,572.7,582,569.8,582z"/>
	
		<rect x="610" y="571.4" transform="matrix(0.7071 -0.7071 0.7071 0.7071 -236.3125 625.1837)" class="st8" width="52.9" height="52.9"/>
</g>
<g>
	<path class="st10" d="M414.5,416.1H215.2c-16.7,0-30.3-13.5-30.3-30.3V127.4c0-16.7,13.5-30.3,30.3-30.3h199.3
		c16.7,0,30.3,13.5,30.3,30.3v258.4C444.7,402.6,431.2,416.1,414.5,416.1z"/>
	<path class="st2" d="M205.3,146.2v239.6c0,5.4,4.4,9.8,9.8,9.8h199.3c5.4,0,9.8-4.4,9.8-9.8V146.2H205.3z"/>
	<g>
		<circle class="st11" cx="224.6" cy="123.1" r="9.5"/>
		<circle class="st12" cx="256.9" cy="123.1" r="9.5"/>
		<circle class="st13" cx="289.2" cy="123.1" r="9.5"/>
	</g>
	<g>
		<rect x="224" y="174.2" class="st6" width="53.4" height="12.7"/>
		<rect x="224" y="200" class="st6" width="113.7" height="12.7"/>
		<rect x="351.5" y="200" class="st13" width="44.8" height="12.7"/>
		<rect x="224" y="225.9" class="st11" width="32.8" height="12.7"/>
		<rect x="271.1" y="225.9" class="st8" width="37.2" height="12.7"/>
		<rect x="314.8" y="225.9" class="st6" width="70" height="12.7"/>
		<rect x="224" y="251.7" class="st12" width="53.4" height="12.7"/>
		<rect x="254.2" y="277.5" class="st6" width="29.6" height="12.7"/>
		<rect x="292.8" y="277.5" class="st8" width="66.7" height="12.7"/>
		<rect x="371.3" y="277.5" class="st13" width="30" height="12.7"/>
		<rect x="254.2" y="303.4" class="st11" width="44.5" height="12.7"/>
		<rect x="304.6" y="303.4" class="st13" width="17.5" height="12.7"/>
		<rect x="331.4" y="303.4" class="st6" width="34.5" height="12.7"/>
		<rect x="375.2" y="303.4" class="st6" width="22.1" height="12.7"/>
		<rect x="254.2" y="329.2" class="st6" width="29.6" height="12.7"/>
		<rect x="293.5" y="329.2" class="st11" width="29.6" height="12.7"/>
		<rect x="224" y="355" class="st12" width="53.4" height="12.7"/>
	</g>
</g>
<g>
	<path class="st14" d="M2103.3,649.6h-194.6c-16.3,0-29.5-13.2-29.5-29.5V367.7c0-16.3,13.2-29.5,29.5-29.5h194.6
		c16.3,0,29.5,13.2,29.5,29.5V620C2132.8,636.3,2119.6,649.6,2103.3,649.6z"/>
	<path class="st1" d="M1899.1,386.1v234c0,5.3,4.3,9.6,9.6,9.6h194.6c5.3,0,9.6-4.3,9.6-9.6v-234H1899.1z"/>
	<g>
		<circle class="st15" cx="1917.9" cy="363.5" r="9.3"/>
		<circle class="st9" cx="1949.4" cy="363.5" r="9.3"/>
		<path class="st16" d="M1980.9,354.2c5.1,0,9.3,4.2,9.3,9.3s-4.2,9.3-9.3,9.3s-9.3-4.2-9.3-9.3S1975.8,354.2,1980.9,354.2z"/>
	</g>
	<g>
		<rect x="1917.4" y="413.4" class="st16" width="52.2" height="12.4"/>
		<rect x="1917.4" y="438.6" class="st16" width="111.1" height="12.4"/>
		<rect x="2041.8" y="438.6" class="st9" width="43.8" height="12.4"/>
		<rect x="1917.4" y="463.8" class="st15" width="32" height="12.4"/>
		<rect x="1963.4" y="463.8" class="st17" width="36.3" height="12.4"/>
		<rect x="2006" y="463.8" class="st16" width="68.3" height="12.4"/>
		<rect x="1917.4" y="489" class="st9" width="52.2" height="12.4"/>
		<rect x="1946.8" y="514.3" class="st9" width="28.9" height="12.4"/>
		<rect x="1984.5" y="514.3" class="st17" width="65.2" height="12.4"/>
		<rect x="2061.1" y="514.3" class="st9" width="29.3" height="12.4"/>
		<rect x="1946.8" y="539.5" class="st15" width="43.4" height="12.4"/>
		<rect x="1996" y="539.5" class="st17" width="17.1" height="12.4"/>
		<rect x="2022.1" y="539.5" class="st16" width="33.7" height="12.4"/>
		<rect x="2065" y="539.5" class="st17" width="21.6" height="12.4"/>
		<rect x="1946.8" y="564.7" class="st16" width="28.9" height="12.4"/>
		<rect x="1985.2" y="564.7" class="st15" width="28.9" height="12.4"/>
		<rect x="1917.4" y="589.9" class="st9" width="52.2" height="12.4"/>
	</g>
</g>
<g>
	<path class="st4" d="M472.8,135.1l21-10.8v3.1l-17.7,8.9v0.1l17.7,8.9v3.1l-21-10.8V135.1z"/>
	<path class="st4" d="M500.1,116.2h4v13.7h0.1c0.6-1.1,1.6-2.1,2.9-2.8c1.2-0.7,2.6-1.1,4.1-1.1c2.9,0,7.7,1.8,7.7,9.4v13h-4v-12.6
		c0-3.5-1.3-6.5-5.1-6.5c-2.6,0-4.6,1.8-5.3,4c-0.2,0.5-0.3,1.1-0.3,1.9v13.2h-4V116.2z"/>
	<path class="st4" d="M529.8,120.2v6.3h5.7v3h-5.7v11.8c0,2.7,0.8,4.3,3,4.3c1,0,1.8-0.1,2.3-0.3l0.2,3c-0.8,0.3-2,0.5-3.5,0.5
		c-1.9,0-3.4-0.6-4.3-1.7c-1.1-1.2-1.5-3.1-1.5-5.7v-11.9h-3.4v-3h3.4v-5.3L529.8,120.2z"/>
	<path class="st4" d="M540,132.4c0-2.3,0-4.1-0.2-5.9h3.5l0.2,3.5h0.1c1.2-2.1,3.3-4,6.9-4c3,0,5.3,1.8,6.2,4.4h0.1
		c0.7-1.2,1.5-2.2,2.4-2.9c1.3-1,2.8-1.5,4.8-1.5c2.9,0,7.2,1.9,7.2,9.5v12.9h-3.9V136c0-4.2-1.5-6.7-4.8-6.7c-2.3,0-4,1.7-4.7,3.6
		c-0.2,0.5-0.3,1.3-0.3,2v13.5h-3.9v-13.1c0-3.5-1.5-6-4.6-6c-2.5,0-4.3,2-4.9,4c-0.2,0.6-0.3,1.3-0.3,1.9v13.2H540L540,132.4
		L540,132.4z"/>
	<path class="st4" d="M577.8,116.2h4v32.1h-4V116.2z"/>
	<path class="st4" d="M609.2,137.6l-21,10.8v-3.1l17.8-8.9v-0.1l-17.8-8.9v-3.1l21,10.8L609.2,137.6L609.2,137.6z"/>
</g>
<path class="st1" d="M1087.3,1171.6c0-2.2-0.1-4.3-0.4-6.4l10.1-16l-12.3-21.4l-18.9,0.7c-3.4-2.6-7.2-4.7-11.1-6.4l-8.8-16.7h-24.7
	l-8.8,16.7c-4,1.7-7.7,3.9-11.1,6.4l-18.9-0.7l-12.3,21.4l10.1,16c-0.3,2.1-0.4,4.3-0.4,6.4c0,2.2,0.1,4.3,0.4,6.4l-10.1,16
	l12.3,21.4l18.9-0.7c3.4,2.6,7.2,4.7,11.1,6.4l8.8,16.7h24.7l8.8-16.7c4-1.7,7.7-3.9,11.1-6.4l18.9,0.7l12.3-21.4l-10.1-16
	C1087.2,1175.9,1087.3,1173.8,1087.3,1171.6z M1033.5,1204.9c-18.4,0-33.4-15-33.4-33.4c0-18.4,15-33.4,33.4-33.4
	c18.4,0,33.4,15,33.4,33.4C1066.8,1190,1051.8,1204.9,1033.5,1204.9z"/>
<path class="st18" d="M1189.7,1092.2c-1.2-1.2-2.4-2.2-3.6-3.2l-3.2-13.9l-18-4.8l-9.7,10.5c-3.2,0.5-6.3,1.3-9.4,2.5l-13.6-4.2
	l-13.2,13.2l4.2,13.6c-1.2,3-2,6.2-2.5,9.4l-10.5,9.7l4.8,18l13.9,3.2c1,1.3,2.1,2.5,3.2,3.6c1.2,1.2,2.4,2.2,3.6,3.2l3.2,13.9
	l18,4.8l9.7-10.5c3.2-0.5,6.3-1.3,9.4-2.5l13.6,4.2l13.2-13.2l-4.2-13.6c1.2-3,2-6.2,2.5-9.4l10.5-9.7l-4.8-18l-13.9-3.2
	C1191.9,1094.5,1190.9,1093.3,1189.7,1092.2z M1178.8,1138.7c-9.8,9.8-25.8,9.8-35.6,0c-9.8-9.8-9.8-25.8,0-35.6
	c9.8-9.8,25.8-9.8,35.6,0C1188.6,1112.9,1188.6,1128.9,1178.8,1138.7z"/>
<path class="st4" d="M1746.3,119.6c-1.2-1.2-2.4-2.2-3.6-3.2l-3.2-13.9l-18-4.8l-9.7,10.5c-3.2,0.5-6.3,1.3-9.4,2.5l-13.6-4.2
	l-13.2,13.2l4.2,13.6c-1.2,3-2,6.2-2.5,9.4l-10.5,9.7l4.8,18l13.9,3.2c1,1.3,2.1,2.5,3.2,3.6c1.2,1.2,2.4,2.2,3.6,3.2l3.2,13.9
	l18,4.8l9.7-10.5c3.2-0.5,6.3-1.3,9.4-2.5l13.6,4.2l13.2-13.2l-4.2-13.6c1.2-3,2-6.2,2.5-9.4l10.5-9.7l-4.8-18l-13.9-3.2
	C1748.5,122,1747.5,120.8,1746.3,119.6z M1735.4,166.1c-9.8,9.8-25.8,9.8-35.6,0c-9.8-9.8-9.8-25.8,0-35.6c9.8-9.8,25.8-9.8,35.6,0
	C1745.2,140.4,1745.2,156.3,1735.4,166.1z"/>
<rect x="2061.1" y="641.8" class="st14" width="35" height="22.4"/>
<path class="st14" d="M1842.8,1051.7h-317.9v-9.6h317.9c33.5,0,60.8-27.3,60.8-60.8v-80.7c0-38.8,31.6-70.4,70.4-70.4h55.5
	c24.4,0,44.3-19.9,44.3-44.3V653h9.6v132.8c0,29.7-24.2,53.9-53.9,53.9H1974c-33.5,0-60.8,27.3-60.8,60.8v80.7
	C1913.2,1020.1,1881.6,1051.7,1842.8,1051.7z"/>
<g>
	<path class="st10" d="M1531.6,1144.9h-178c-14.9,0-27-12.1-27-27V887.1c0-14.9,12.1-27,27-27h178c14.9,0,27,12.1,27,27v230.8
		C1558.7,1132.8,1546.6,1144.9,1531.6,1144.9z"/>
	<path class="st2" d="M1344.8,903.8v214c0,4.8,3.9,8.8,8.8,8.8h178c4.8,0,8.8-3.9,8.8-8.8v-214H1344.8z"/>
	<g>
		<circle class="st11" cx="1362" cy="883.2" r="8.5"/>
		<circle class="st12" cx="1390.9" cy="883.2" r="8.5"/>
		<circle class="st13" cx="1419.7" cy="883.2" r="8.5"/>
	</g>
	<path class="st11" d="M1376.1,1021.6c-0.5,0-0.9-0.3-1-0.8c-0.2-0.6,0.2-1.1,0.7-1.3c8.2-2.2,15.2-9.1,20.9-20.5
		c1.5-2.9,2.8-5.9,4.1-8.9c2.9-6.5,5.8-13.1,10.2-18.9c6.3-8.2,17.4-14.9,28.1-11.6c6.1,1.9,11.3,6.7,15.9,14.7
		c1.2,2.1,2.3,4.2,3.4,6.3c2.1,4.1,4.3,8.4,7.3,12c3.8,4.8,10.4,9.5,17.4,8.5c6.6-1,10.9-6.3,15.5-11.9c3.9-4.8,7.9-9.7,13.5-12.1
		c0.5-0.2,1.2,0,1.4,0.6c0.2,0.5,0,1.2-0.6,1.4c-5.1,2.2-9,6.9-12.7,11.5c-4.7,5.7-9.5,11.6-16.8,12.7c-7.9,1.2-15.2-4-19.4-9.2
		c-3.1-3.8-5.3-8.2-7.5-12.4c-1.1-2.1-2.2-4.2-3.3-6.2c-4.4-7.5-9.2-12-14.7-13.8c-9.7-3-19.9,3.3-25.8,10.8
		c-4.2,5.5-7.1,12.1-10,18.4c-1.3,3-2.7,6-4.1,9c-6,11.9-13.5,19.2-22.2,21.6C1376.3,1021.6,1376.2,1021.6,1376.1,1021.6z"/>
	<polygon class="st6" points="1524.9,1041.5 1360.4,1041.5 1360.4,932.8 1363.6,932.8 1363.6,1038.3 1524.9,1038.3 	"/>
	<rect x="1362" y="1060.1" class="st6" width="40.9" height="11.8"/>
	<rect x="1411.2" y="1060.1" class="st8" width="40.9" height="11.8"/>
	<rect x="1461" y="1060.1" class="st13" width="20.5" height="11.8"/>
	<rect x="1362" y="1076.4" class="st6" width="40.9" height="11.8"/>
	<rect x="1411.2" y="1076.4" class="st11" width="40.9" height="11.8"/>
	<rect x="1461" y="1076.4" class="st13" width="20.5" height="11.8"/>
	<rect x="1362" y="1092.8" class="st6" width="40.9" height="11.8"/>
	<rect x="1411.2" y="1092.8" class="st8" width="40.9" height="11.8"/>
	<rect x="1461" y="1092.8" class="st13" width="20.5" height="11.8"/>
</g>
<ellipse class="st0" cx="1513.4" cy="1865.2" rx="321.2" ry="45.3"/>
<g>
	<path class="st19" d="M1273,813.5c-12.4,0-24.8-4.7-34.3-14l-183.7-181c-19.2-18.9-19.5-49.9-0.5-69.1
		c18.9-19.2,49.9-19.5,69.1-0.5l183.7,181c19.2,18.9,19.5,49.9,0.5,69.1C1298.3,808.7,1285.6,813.5,1273,813.5z"/>
	<path class="st19" d="M1273,813.5c-10.1,0-20.2-3.1-29-9.5c-21.7-16-26.3-46.6-10.3-68.3l51.7-70.1c16-21.7,46.6-26.3,68.3-10.3
		c21.7,16,26.3,46.6,10.3,68.3l-51.7,70.1C1302.7,806.7,1288,813.5,1273,813.5z"/>
	<circle class="st20" cx="1324.7" cy="694.5" r="64.5"/>
	<path class="st21" d="M1324.7,743.4c-10.2,0-20.4-3.2-29.2-9.7c-21.6-16.1-26.1-46.7-10-68.4l141.6-190
		c16.1-21.6,46.7-26.1,68.4-10c21.6,16.1,26.1,46.7,10,68.4l-141.6,190C1354.3,736.6,1339.6,743.4,1324.7,743.4z"/>
	<polygon class="st22" points="1409.3,952.6 1412,1784.2 1520.7,1784.2 1552.4,962.2 	"/>
	<path class="st23" d="M1520.7,1865.2h-205.1v-21.4c0-32.9,26.7-59.6,59.6-59.6h145.5V1865.2z"/>
	<path class="st20" d="M1701.4,550.2v376.3h-297.9V550.2c0-61.9,50.2-112.1,112.1-112.1h73.8
		C1651.2,438.1,1701.4,488.3,1701.4,550.2z"/>
	<g>
		<circle class="st21" cx="1546.1" cy="461.1" r="70.1"/>
		<g>
			<g>
				<path class="st21" d="M1550.8,527.2l32,17.8c16.5,9.2,36.7-3.4,35.6-22.3c-1.9-32.3-4.2-70.5-4.2-69.7
					C1614.2,454.4,1550.8,527.2,1550.8,527.2z"/>
				<path class="st21" d="M1541.5,527.2l-32,17.8c-16.5,9.2-36.7-3.4-35.6-22.3c1.9-32.3,4.2-70.5,4.2-69.7
					C1478.1,454.4,1541.5,527.2,1541.5,527.2z"/>
			</g>
		</g>
	</g>
	<path class="st19" d="M1487.1,272.2v175.5c0,33.1,26.8,59.9,59.9,59.9h0c33.1,0,59.9-26.8,59.9-59.9V272.2H1487.1z"/>
	<g>
		<path class="st24" d="M1352.3,175.6h96.6v118.1h-14.8c-45.2,0-81.8-36.6-81.8-81.8V175.6z"/>
		<path class="st25" d="M1448.9,392.3h-92.7v-43.4c0-14.2,11.5-25.8,25.8-25.8h66.9V392.3z"/>
		<path class="st19" d="M1362.7,186.5v150.3c0,45.1,36.5,81.6,81.6,81.6h158.6V186.5c0-29.8-24.2-54-54-54h-132.3
			C1386.9,132.5,1362.7,156.7,1362.7,186.5z"/>
		<path class="st25" d="M1554.6,112.9h29.7c24,0,43.4,19.4,43.4,43.4v201c0,8.5-6.9,15.3-15.3,15.3h-2.3
			c-30.6,0-55.5-24.8-55.5-55.5V112.9z"/>
		<rect x="1515.4" y="156" class="st25" width="83.5" height="160.6"/>
		<circle class="st19" cx="1541.5" cy="312.7" r="39.2"/>
		<path class="st25" d="M1484.4,438h-77.7c-27.9,0-50.6-22.6-50.6-50.6v-26c0-15.4,12.5-27.8,27.9-27.8h100.4
			c27.9,0,50.6,22.6,50.6,50.6v3.3C1535,415.3,1512.4,438,1484.4,438z"/>
		<path class="st19" d="M1452.3,409.3h-51c-9.1,0-16.4-7.4-16.4-16.4v-18.1c0-9.1,7.4-16.4,16.4-16.4h51c9.1,0,16.4,7.4,16.4,16.4
			v18.1C1468.7,401.9,1461.4,409.3,1452.3,409.3z"/>
		<path class="st25" d="M1490.6,163.8v3.1c14.9,9.5,24.8,26.2,24.8,45.2s-9.9,35.7-24.8,45.2v118h32.6V163.8H1490.6z"/>
		<rect x="1358.8" y="112.9" class="st25" width="219.3" height="75.7"/>
		<path class="st25" d="M1358.8,188.7c-18.3,0-75.7-61.4-2.6-118.8c-1.3,18.3,18.3,28.7,26.1,31.3c-7.8-11.7-9.1-48.3,39.2-67.9
			c-1.3,24.8,20.9,53.5,33.9,60.1c0-9.1,7.8-30,43.1-33.9c0,17,10.4,39.2,71.8,60.1c-2.6,31.3-197.1,50.9-197.1,50.9L1358.8,188.7z"
			/>
	</g>
	<path class="st26" d="M1701.4,909.9v36.2c0,82.3-66.7,149-149,149c-82.3,0-149-66.7-149-149v-36.2L1701.4,909.9L1701.4,909.9z"/>
	<polygon class="st26" points="1554.6,951.9 1588.9,1784.2 1697.6,1784.2 1697.6,951.9 	"/>
	<path class="st27" d="M1697.6,1865.2h-205.1v-21.4c0-32.9,26.7-59.6,59.6-59.6h145.5V1865.2z"/>
	<ellipse class="st19" cx="1047.7" cy="564.9" rx="79.6" ry="65.1"/>
	<path class="st19" d="M1038.3,549.6H942c-13.3,0-24.1-10.8-24.1-24.1s10.8-24.1,24.1-24.1h96.3c13.3,0,24.1,10.8,24.1,24.1
		C1062.4,538.8,1051.6,549.6,1038.3,549.6z"/>
	<path class="st21" d="M1731.5,755.1c-20.7,0-40-13.3-46.6-34.2l-62.8-198.7c-8.1-25.7,6.1-53.2,31.9-61.3
		c25.7-8.1,53.2,6.1,61.3,31.9l62.8,198.7c8.1,25.7-6.1,53.2-31.9,61.3C1741.3,754.4,1736.3,755.1,1731.5,755.1z"/>
	<circle class="st20" cx="1731.5" cy="706.3" r="64.5"/>
	<path class="st19" d="M1754,834.9c-21.3,0-40.9-14.1-47-35.6l-19.4-68.6c-7.3-26,7.8-53,33.7-60.3c26-7.3,53,7.8,60.3,33.7
		l19.4,68.6c7.3,26-7.8,53-33.7,60.3C1762.9,834.3,1758.4,834.9,1754,834.9z"/>
	<path class="st19" d="M1654.4,843.2c-25.2,0-46.5-19.3-48.6-44.8c-2.2-26.9,17.8-50.5,44.7-52.7l99.6-8.3
		c26.9-2.2,50.5,17.8,52.7,44.7c2.2,26.9-17.8,50.5-44.7,52.7l-99.6,8.3C1657.1,843.1,1655.8,843.2,1654.4,843.2z"/>
	<ellipse class="st19" cx="1639.3" cy="790.2" rx="84.9" ry="55.7"/>
	<g>
		<path class="st28" d="M1664.4,618.1h-222.7c-1.9-0.3-3.9-0.1-5.8,0.5c-6.5,2.2-9.9,9.3-7.7,15.8l47.4,137.2
			c1.8,5.1,6.6,8.3,11.7,8.3c1.3,0,2.7-0.2,4-0.7h226.2L1664.4,618.1z"/>
		<path class="st29" d="M1713.5,780c-5.1,0-9.9-3.2-11.7-8.3l-47.4-137.2c-2.2-6.5,1.2-13.5,7.7-15.8c6.5-2.2,13.5,1.2,15.8,7.7
			l47.4,137.2c2.2,6.5-1.2,13.5-7.7,15.8C1716.2,779.8,1714.9,780,1713.5,780z"/>
		<g>
			<path class="st21" d="M1719.9,791H1481c-8.4,0-15.3-6.8-15.3-15.3l0,0c0-8.4,6.8-15.3,15.3-15.3h238.9c8.4,0,15.3,6.8,15.3,15.3
				l0,0C1735.1,784.2,1728.3,791,1719.9,791z"/>
			<path class="st30" d="M1781.1,791h-60.2c-8.4,0-15.3-6.8-15.3-15.3l0,0c0-8.4,6.8-15.3,15.3-15.3h60.2c8.4,0,15.3,6.8,15.3,15.3
				l0,0C1796.3,784.2,1789.5,791,1781.1,791z"/>
		</g>
		<circle class="st29" cx="1557.5" cy="699" r="17"/>
		<path class="st29" d="M1781.1,780h-15.5c-2.6,0-4.6-2.1-4.6-4.6l0,0c0-2.6,2.1-4.6,4.6-4.6h15.5c2.6,0,4.6,2.1,4.6,4.6l0,0
			C1785.7,777.9,1783.6,780,1781.1,780z"/>
		<path class="st29" d="M1747,780h-15.5c-2.6,0-4.6-2.1-4.6-4.6l0,0c0-2.6,2.1-4.6,4.6-4.6h15.5c2.6,0,4.6,2.1,4.6,4.6l0,0
			C1751.6,777.9,1749.6,780,1747,780z"/>
	</g>
	<rect x="1403.4" y="920.5" class="st27" width="297.9" height="25.6"/>
	<rect x="1483.8" y="909.9" class="st31" width="59.2" height="42.7"/>
	<rect x="1564.1" y="914.1" class="st26" width="19.3" height="46.1"/>
	<rect x="1443" y="914.1" class="st26" width="19.3" height="46.1"/>
	<rect x="1639.3" y="914.1" class="st26" width="19.3" height="46.1"/>
</g>
<g>
	<path class="st1" d="M899.2,1488.8H743.3c-12.1,0-22-9.9-22-22v-96.3c0-12.1,9.9-22,22-22h155.9c12.1,0,22,9.9,22,22v96.3
		C921.2,1478.9,911.4,1488.8,899.2,1488.8z M743.3,1358.1c-6.8,0-12.4,5.5-12.4,12.4v96.3c0,6.8,5.5,12.4,12.4,12.4h155.9
		c6.8,0,12.4-5.5,12.4-12.4v-96.3c0-6.8-5.5-12.4-12.4-12.4H743.3z"/>
	<g>
		
			<rect x="869.3" y="1372.7" transform="matrix(0.7071 -0.7071 0.7071 0.7071 -730.8406 1026.8917)" class="st1" width="9.6" height="46"/>
		
			<rect x="851.1" y="1390.9" transform="matrix(0.7072 -0.707 0.707 0.7072 -730.8419 1026.6826)" class="st1" width="46" height="9.6"/>
	</g>
</g>
</svg>
