<?xml version="1.0" encoding="utf-8"?>
<!-- Generator: Adobe Illustrator 23.0.4, SVG Export Plug-In . SVG Version: 6.00 Build 0)  -->
<svg version="1.1" id="Layer_1" xmlns="http://www.w3.org/2000/svg" xmlns:xlink="http://www.w3.org/1999/xlink" x="0px" y="0px"
	 viewBox="0 0 2000 1685" style="enable-background:new 0 0 2000 1685;" xml:space="preserve">
<style type="text/css">
	.st0{fill:#C7D9FA;}
	.st1{fill:#9EBDF7;}
	.st2{fill:#E4E8EF;}
	.st3{fill:#FFFFFF;}
	.st4{fill:#EFF1F4;}
	.st5{fill:#AFC5E0;}
	.st6{fill:url(#SVGID_1_);}
	.st7{fill:#D1D7E0;}
	.st8{fill:url(#SVGID_2_);}
	.st9{fill:#E9EDF4;}
	.st10{fill:#F77FA4;}
	.st11{fill:#A0BDE5;}
	.st12{fill:#F8F9FB;}
	.st13{fill:#CFF0EF;}
	.st14{fill:#AFE6E4;}
	.st15{fill:url(#SVGID_3_);}
	.st16{fill:url(#SVGID_4_);}
	.st17{fill:url(#SVGID_5_);}
	.st18{fill:url(#SVGID_6_);}
	.st19{fill:url(#SVGID_7_);}
	.st20{fill:url(#SVGID_8_);}
	.st21{fill:url(#SVGID_9_);}
	.st22{fill:url(#SVGID_10_);}
	.st23{fill:url(#SVGID_11_);}
	.st24{fill:url(#SVGID_12_);}
	.st25{fill:url(#SVGID_13_);}
	.st26{fill:url(#SVGID_14_);}
	.st27{fill:#F47D7D;}
	.st28{fill:#3576EE;}
	.st29{fill:url(#SVGID_15_);}
	.st30{fill:url(#SVGID_16_);}
	.st31{fill:#94B2D6;}
	.st32{fill:url(#SVGID_17_);}
	.st33{fill:url(#SVGID_18_);}
	.st34{fill:url(#SVGID_19_);}
	.st35{fill:url(#SVGID_20_);}
</style>
<g>
	<g>
		<g>
			<path class="st0" d="M159.2,671c-6,28-8.4,56.8-7.5,85.7c20-42.4,50.8-79.4,82.1-113.9c29.3-32.3,60.6-62.9,87.9-96.9
				c26.3-36,45.6-76.2,65.8-115.7c-28.1,6.1-55.3,16-81.3,31.2C234.5,503.3,178.1,582.7,159.2,671z"/>
			<path class="st0" d="M1153,285.4c19.3,7.6,39,13.7,59.5,17.4c6.6,0.6,13.1,0.8,19.7,0.8c6.7,0,13.5-0.3,20.2-0.9
				c0.5-0.1,1-0.2,1.5-0.3c-30.7-29.7-62-58.9-97.9-79.7c-31.7-18.5-64.7-29.4-100.3-32.8c-6.3-0.6-12.6-0.9-19-0.9
				c-20.3,0-40.8,2.9-60.7,7.9c33.2,13.8,65.2,30,96.8,47.3C1099.1,258.7,1125.5,273.1,1153,285.4z"/>
			<path class="st0" d="M1293.9,1306.9c-64.1-17-128.6-32.7-194.2-42.2c-31.6-3.9-63.3-6.1-95.2-6.1c-23.7,0-47.3,1.2-70.9,3.9
				c-35.5,5.5-70.2,14.5-104.7,24.4c-67.4,19.2-135.7,39.4-206.5,39.9c-0.6,0-1.3,0-1.9,0c-26.5,0-53.9-2.5-80-8.6
				c1.1,11.9,1.8,23.8,1.8,35.8c0.2,26.4,20.1,51.7,44.3,51.7c0.6,0,1.1,0,1.7,0c13.6-0.7,26.1-7.4,34.8-18.2
				c133.2,31.1,269.4,47.2,405.6,47.2c18.3,0,36.6-0.3,54.9-0.9c84.8-2.7,169.3-11.9,253.1-26.5c57.5-10.1,114.1-24.3,168.6-46.5
				c-4.7-0.8-9.3-1.7-13.8-2.6C1425,1344.5,1359.6,1324.4,1293.9,1306.9z"/>
			<path class="st0" d="M1758.1,449.4c3.9,10.3,7.3,20.7,10.4,31.1c18.6,63.1,23.9,130.7,22.9,196.4c-1,63.6-7.9,127-14,190.3
				c-7,72.5-13.9,145-20.9,217.4c-1.9,20.5-3.7,41.1-5.7,61.5c28.6-49,50.9-101.9,67.8-157.9c22-72.9,33.7-149.9,37.6-226.5
				c3.9-74.9-3.2-151.3-31-220.1C1810.1,504.5,1786.7,473,1758.1,449.4z"/>
			<path class="st0" d="M885.5,170.9c-28.5-4.6-57.1-7.7-85.9-7.7c-5.4,0-10.9,0.1-16.4,0.3c-68.5,2.9-134.5,19.6-195.9,50.1
				C526.1,244,475,290.4,435.9,346.2c-18.6,26.5-33.8,55.2-48.4,84.1c18.8-4.1,38-6.5,57.5-7.8c44.6-2.8,89.6-0.1,134.1-5.8
				c17-3.1,33.7-7.5,50-13.6c4.7-1.7,9.3-3.7,13.8-5.7c1.4-0.6,2.9-1.3,4.4-1.9c8-4.1,16-8.2,23.8-12.8
				c32.3-18.7,62.6-41.4,92.6-64.4c58.3-44.5,116.6-88.8,184.5-112.9c8.9-3.2,18.2-6,27.6-8.3c-2.4-1-4.9-2-7.3-3.1
				C941.8,183.2,913.9,175.6,885.5,170.9z"/>
			<path class="st0" d="M1554.3,1338.3c-16.2,8.3-32.4,15.8-49,22.5c14.6,2.5,29.4,4.5,44,5.7c4.7,0.4,9.4,0.5,13.9,0.5
				c14.5,0,28.8-1.6,43.4-3.9c18.2-2.6,35.7-9.4,52-17.9c16-8.3,30.9-20.4,42.1-34.6c16-19.9,26.9-39.7,34.8-64.4
				c6-18.9,8.1-38.8,10.7-58.4c1.7-13.9,3.3-27.9,4.6-41.8c-9.7,16.5-19.9,32.5-31,48C1675.8,1255.9,1618.2,1305.5,1554.3,1338.3z"
				/>
			<path class="st0" d="M525.4,1251.4c-1.7-5.2-3.7-10.3-5.4-15.5c0.7,2.3,1.3,4.1,1.7,5.3c0.5,1.4,0.8,2.6,0.8,2.6
				s-0.2-0.7-0.8-2.6c-0.6-1.8-1.4-4.3-1.9-5.6c-1-2.5-2.1-5-3.2-7.5c-4.7-10.8-9.9-21.2-15.5-31.5c-5.6-10.3-12.1-19.7-18.1-29.6
				c2.6,4.4,3.7,6,3.6,6c-0.1,0-5.3-8-7.2-10.6c-3.8-4.9-7.5-9.7-11.5-14.3c-7.3-8.6-15-16.9-23.2-24.7c-2.2-2.1-4.5-4.2-6.7-6.2
				c-3.8-3.1-7.5-6.1-11.4-9c-35.6-26.7-75.4-44.9-112.9-68c-21-12.9-40.7-27.8-59.3-44.6c-17-15.4-31-33.4-44.2-52.8
				c-36.2-53-56.5-119.3-58.7-186.1c-1.3,2.6-2.5,5.4-3.7,8.1c-10.4,24-19.8,48-24.2,73.8c-4.9,28.9-6.7,55.7-2.8,84.6
				c3.8,27.8,11.5,53.8,25.5,78.3c12.1,21,28.6,40.4,47.7,55.4c21.4,16.9,43.4,30.9,67.2,44c16.4,9,32.8,18,48.1,28.7
				c4.9,4.2,9.5,8.5,13.7,13.3c4.6,7.1,8.5,14.5,12,22.3c5.6,13.9,11.1,27.9,17.4,41.5c7.7,16.8,18.6,32.1,31.2,45.6
				c24.7,26.2,58.7,42.3,93.9,43.1c13.8,7,28.3,12.8,43.6,17.5c6.3,1.9,12.8,3.7,19.3,5.2c0-0.2,0-0.4-0.1-0.5
				C537.4,1295,532.3,1272.8,525.4,1251.4z"/>
			<path class="st0" d="M1590.5,1193.8c-0.5,0.5-1,0.9-1.6,1.4C1589.7,1194.6,1590.3,1194,1590.5,1193.8z"/>
			<path class="st0" d="M1664.8,304.9c-28.9-25.8-61.6-46.2-98.9-57.2c-20.6-6.1-41.3-8.5-62-8.5c-18.1,0-36.3,1.8-54.6,4.8
				c-57.6,9-110.2,36.6-166.2,52c-9.7,2.6-19.3,4.9-29.2,6.7c12.6,12.2,25.1,24.4,37.7,36.3c4.3,4,8.6,7.9,12.9,11.9
				c-0.2-0.2-0.2-0.2-0.2-0.2s1.2,1,4.5,4c2.3,1.9,4.7,4,7.1,5.9c10.8,8.7,22,17,33.6,24.2c4.7,2.9,9.4,5.7,14.1,8.2
				c-0.2-0.1-0.3-0.2-0.2-0.2c0.2,0,1.8,0.8,6.1,3.2c2.3,1,4.8,2,7.1,2.9c11.9,4.6,24.2,7.8,36.6,10.1c12.7,1.5,25.4,2.2,38.1,2.2
				c1.3,0,2.7,0,4.1,0c33.6-0.4,67-4.7,100.4-7.6c16.1-1.4,31.9-2.2,47.8-2.2c20.1,0,40.2,1.4,60.3,4.8
				c34.5,5.8,66.8,21.1,94.2,43.7c-8.4-22.8-18.8-44.9-30.9-65.8C1710.6,354.8,1689.6,327.1,1664.8,304.9z"/>
			<path class="st0" d="M1371.1,396.5c-0.6-0.3-1.1-0.6-1.7-0.9c-0.4-0.2-0.7-0.3-1.1-0.5C1369.2,395.6,1370.2,396,1371.1,396.5z"/>
			<path class="st0" d="M1363.6,392.7c0.6,0.4,2.2,1.3,3.7,1.9c0.3,0.2,0.7,0.3,1.1,0.5c-0.4-0.2-0.8-0.4-1.2-0.6
				C1365.9,393.9,1364.8,393.3,1363.6,392.7z"/>
			<path class="st0" d="M1307.6,353.4c1.1,0.9,2.1,1.8,3.3,2.8c-0.8-0.7-1.4-1.3-2.1-1.9c-0.3-0.3-0.7-0.5-1-0.8L1307.6,353.4z"/>
			<path class="st0" d="M1304.5,350.6c0.6,0.5,2,1.8,3.2,2.8c-0.1-0.1-0.2-0.2-0.3-0.3C1306.4,352.3,1305.5,351.5,1304.5,350.6z"/>
			<path class="st1" d="M1304.5,350.6c0.9,0.8,1.8,1.7,2.8,2.5c0.1,0.1,0.2,0.2,0.3,0.3l0.1,0.1c0.3,0.3,0.7,0.5,1,0.8
				c-3.3-2.9-4.5-4-4.5-4C1304.3,350.4,1304.4,350.5,1304.5,350.6z"/>
			<path class="st1" d="M1363.6,392.7c1.1,0.6,2.3,1.2,3.5,1.8c0.4,0.2,0.8,0.4,1.2,0.6c0.4,0.2,0.7,0.3,1.1,0.5
				c-4.3-2.3-5.9-3.2-6.1-3.2C1363.3,392.5,1363.4,392.6,1363.6,392.7z"/>
			<path class="st1" d="M522.7,1243.7c0,0-0.4-1.1-0.8-2.6C522.3,1243,522.7,1243.7,522.7,1243.7z"/>
			<path class="st1" d="M1758.1,449.4c-27.5-22.7-59.8-37.9-94.2-43.7c-20.2-3.4-40.3-4.8-60.3-4.8c-15.9,0-31.7,0.8-47.8,2.2
				c-33.4,2.9-66.9,7.3-100.4,7.6c-1.3,0-2.7,0-4.1,0c-12.7,0-25.4-0.6-38.1-2.2c-12.4-2.2-24.7-5.5-36.6-10.1
				c-2.4-0.9-4.8-1.9-7.1-2.9c0.5,0.3,1.1,0.6,1.7,0.9c-0.9-0.5-1.8-1-2.8-1.4c-0.3-0.2-0.7-0.3-1.1-0.5c-1.3-0.6-2.9-1.5-3.7-1.9
				c-4.8-2.5-9.6-5.3-14.1-8.2c-11.6-7.2-22.8-15.5-33.6-24.2c-2.3-1.9-4.8-3.9-7.1-5.9c0.6,0.6,1.3,1.2,2.1,1.9
				c-1-0.9-2.1-1.9-3.3-2.8c-1.1-0.9-2.5-2.2-3.2-2.8c-4.4-3.9-8.6-7.8-12.9-11.9c-12.6-11.8-25.1-24.1-37.7-36.3
				c-0.5,0.1-1,0.2-1.5,0.3c-6.7,0.6-13.5,0.9-20.2,0.9c-6.6,0-13.1-0.3-19.7-0.8c-20.4-3.7-40.2-9.9-59.5-17.4
				c-27.5-12.3-53.8-26.7-80.2-41.1c-31.7-17.3-63.5-33.4-96.8-47.3c-9.4,2.3-18.6,5.2-27.6,8.3c-67.9,24.1-126.4,68.3-184.5,112.9
				c-30,23-60.3,45.6-92.6,64.4c-7.8,4.6-15.8,8.6-23.8,12.8c-1.4,0.6-2.9,1.3-4.4,1.9c-4.6,2-9.3,3.9-13.8,5.7
				c-16.4,6.2-33,10.7-50,13.6c-44.5,5.7-89.4,2.8-134.1,5.8c-19.5,1.2-38.7,3.7-57.5,7.8c-20.1,39.7-39.3,79.7-65.8,115.7
				c-27.5,34-58.7,64.6-87.9,96.9c-31.3,34.5-62.1,71.5-82.1,113.9c2.1,66.8,22.4,133.1,58.7,186.1c13.2,19.3,27.2,37.4,44.2,52.8
				c18.6,16.9,38.2,31.7,59.3,44.6c37.4,23,77.4,41.2,112.9,68c3.9,2.9,7.6,6,11.4,9c2.2,2,4.5,4.1,6.7,6.2
				c8.1,7.7,15.9,16,23.2,24.7c4,4.7,7.8,9.5,11.5,14.3c1.9,2.4,7,10.6,7.2,10.6c0.1,0-0.9-1.6-3.6-6c6,9.9,12.5,19.3,18.1,29.6
				c5.6,10.2,10.8,20.7,15.5,31.5c1.1,2.4,2.1,5,3.2,7.5c0.5,1.2,1.3,3.7,1.9,5.6c-0.4-1.2-0.9-2.9-1.7-5.3
				c1.6,5.2,3.7,10.3,5.4,15.5c6.9,21.5,11.9,43.7,15,66.3c0,0.2,0,0.4,0.1,0.5c26.1,6,53.4,8.6,80,8.6c0.6,0,1.3,0,1.9,0
				c70.8-0.3,139.1-20.6,206.5-39.9c34.6-9.9,69.2-18.9,104.7-24.4c23.6-2.6,47.2-3.9,70.9-3.9c31.8,0,63.5,2.2,95.2,6.1
				c65.6,9.6,130.1,25.2,194.2,42.2c65.7,17.4,130.9,37.5,197.5,51.2c4.6,0.9,9.2,1.8,13.8,2.6c16.6-6.7,32.9-14.1,49-22.5
				c63.9-32.8,121.5-82.4,165.4-144.1c11.1-15.6,21.4-31.5,31-48c1.9-20.5,3.7-41.1,5.7-61.5c7-72.5,13.9-145,20.9-217.4
				c6.1-63.3,13-126.7,14-190.3c1-65.7-4.2-133.2-22.9-196.4C1765.5,470,1762,459.7,1758.1,449.4z M1494.9,1255c0,0,1-0.5,4.1-1.7
				C1497,1254.2,1494.9,1255,1494.9,1255z M1589,1195.2c0.5-0.4,1.1-0.9,1.6-1.4C1590.3,1194,1589.7,1194.6,1589,1195.2z
				 M1677.6,516.2c0.1,0,2,0.7,4,1.6C1678.5,516.6,1677.5,516.2,1677.6,516.2z M1704.8,532.8c0.1,0.1,0.3,0.2,0.4,0.3
				c1,0.9,2,1.9,3.1,2.8c0.6,0.6,1,1.1,0.9,1.1C1709.1,537,1707.9,535.9,1704.8,532.8z"/>
			<path class="st1" d="M1590.5,1193.8c-0.5,0.5-1,0.9-1.6,1.4C1589.7,1194.6,1590.3,1194,1590.5,1193.8z"/>
			<path class="st1" d="M1681.6,517.8c-1.8-0.8-3.9-1.6-4-1.6S1678.5,516.6,1681.6,517.8z"/>
			<path class="st1" d="M1705.2,533.1c-0.1-0.1-0.3-0.2-0.4-0.3c3.2,3.2,4.4,4.3,4.5,4.3c0.1,0-0.3-0.4-0.9-1.1
				C1707.3,535,1706.2,534.1,1705.2,533.1z"/>
			<path class="st1" d="M1499,1253.3c-2.9,1.3-4.1,1.7-4.1,1.7C1494.9,1255,1497,1254.2,1499,1253.3z"/>
		</g>
		<g>
			<g>
				<path class="st2" d="M817.4,128.3H357.3c-10.3,0-18.5,8.3-18.5,18.5v333.4c0,10.3,8.3,18.5,18.5,18.5h460.1
					c10.3,0,18.5-8.3,18.5-18.5V146.8C836,136.7,827.7,128.3,817.4,128.3z"/>
				<path class="st3" d="M789.4,179.3h-404c-3.9,0-7,3.2-7,7v271.3c0,3.9,3.2,7,7,7h404c3.9,0,7-3.2,7-7V186.3
					C796.4,182.4,793.3,179.3,789.4,179.3z"/>
				
					<ellipse transform="matrix(0.9732 -0.2298 0.2298 0.9732 -16.3751 167.1921)" class="st3" cx="709.6" cy="153.9" rx="9.3" ry="9.3"/>
				
					<ellipse transform="matrix(0.9732 -0.2298 0.2298 0.9732 -15.3715 175.8134)" class="st3" cx="747.1" cy="153.9" rx="9.3" ry="9.3"/>
				<circle class="st3" cx="784.7" cy="154" r="9.3"/>
				<rect x="406.5" y="203.9" class="st4" width="105.1" height="105.1"/>
				<rect x="534.9" y="203.9" class="st5" width="105.1" height="105.1"/>
				<rect x="663.2" y="203.9" class="st4" width="105.1" height="105.1"/>
				<rect x="534.9" y="327.6" class="st4" width="105.1" height="105.1"/>
				<rect x="663.2" y="327.6" class="st2" width="105.1" height="105.1"/>
			</g>
			<g>
				<path class="st4" d="M446.4,354.3H216.7c-15.5,0-28.1,12.6-28.1,28.1v258.5c0,15.5,12.6,28.1,28.1,28.1h229.7
					c15.5,0,28.1-12.6,28.1-28.1V382.4C474.5,366.9,461.9,354.3,446.4,354.3z"/>
				
					<linearGradient id="SVGID_1_" gradientUnits="userSpaceOnUse" x1="206.7641" y1="1483.4966" x2="456.3618" y2="1483.4966" gradientTransform="matrix(1 0 0 -1 0 2000)">
					<stop  offset="0" style="stop-color:#A0BDE5"/>
					<stop  offset="1" style="stop-color:#6ED1CE"/>
				</linearGradient>
				<path class="st6" d="M440.7,389H222.4c-8.6,0-15.7,7-15.7,15.7v223.7c0,8.6,7,15.7,15.7,15.7h218.3c8.6,0,15.7-7,15.7-15.7
					V404.7C456.4,396,449.3,389,440.7,389z"/>
				<rect x="283.7" y="369" class="st7" width="95.7" height="3.6"/>
				<circle class="st3" cx="331.5" cy="483.5" r="47.8"/>
				<g>
					<rect x="243.7" y="554.2" class="st3" width="16.8" height="16.8"/>
					<rect x="273.3" y="554.2" class="st3" width="132.5" height="3.4"/>
					<rect x="273.3" y="563.6" class="st3" width="144.3" height="3.4"/>
					<rect x="273.3" y="572.9" class="st3" width="138.3" height="3.4"/>
					<rect x="273.3" y="582.2" class="st3" width="143.4" height="3.4"/>
				</g>
			</g>
			<g>
				
					<linearGradient id="SVGID_2_" gradientUnits="userSpaceOnUse" x1="1472.1543" y1="1712.303" x2="1917.2618" y2="1712.303" gradientTransform="matrix(1 0 0 -1 0 2000)">
					<stop  offset="0" style="stop-color:#A0BDE5"/>
					<stop  offset="1" style="stop-color:#6ED1CE"/>
				</linearGradient>
				<path class="st8" d="M1776.3,72.7h-403.6c-11.5,0-20.7,9.3-20.7,20.7v388.5c0,11.5,9.3,20.7,20.7,20.7h403.6
					c11.5,0,20.7-9.3,20.7-20.7V93.5C1797.1,82,1787.8,72.7,1776.3,72.7z"/>
				<rect x="1514.5" y="87.4" class="st3" width="111.5" height="6.4"/>
				<path class="st9" d="M1754.4,114.9h-359.6c-7.3,0-13.2,5.9-13.2,13.2v142.2c0,7.3,5.9,13.2,13.2,13.2h359.6
					c7.3,0,13.2-5.9,13.2-13.2V128.1C1767.6,120.8,1761.7,114.9,1754.4,114.9z"/>
				<path class="st9" d="M1754.4,298.6h-359.6c-7.3,0-13.2,5.9-13.2,13.2v153.6c0,7.3,5.9,13.2,13.2,13.2h359.6
					c7.3,0,13.2-5.9,13.2-13.2V311.8C1767.6,304.5,1761.7,298.6,1754.4,298.6z"/>
				<g>
					<circle class="st3" cx="1488.5" cy="199.8" r="61.8"/>
					<rect x="1580.8" y="153.5" class="st3" width="141.5" height="13.1"/>
					<rect x="1580.8" y="179.3" class="st3" width="141.5" height="6.6"/>
					<rect x="1580.8" y="195.3" class="st3" width="141.5" height="6.6"/>
					<rect x="1580.8" y="211.4" class="st3" width="141.5" height="6.6"/>
					<rect x="1580.8" y="227.5" class="st3" width="141.5" height="6.6"/>
					<rect x="1580.8" y="243.6" class="st3" width="141.5" height="6.6"/>
				</g>
			</g>
			<g>
				<path class="st3" d="M1604.8,365.8h-541.1c-11.5,0-20.7,9.3-20.7,20.7v403.6c0,11.5,9.3,20.7,20.7,20.7h541.1
					c11.5,0,20.7-9.3,20.7-20.7V386.6C1625.6,375.1,1616.3,365.8,1604.8,365.8z"/>
				<path class="st2" d="M1232,401.8h-140.6c-4.1,0-7.4,3.4-7.4,7.4v358.3c0,4.1,3.4,7.4,7.4,7.4H1232c4.1,0,7.4-3.4,7.4-7.4V409.2
					C1239.4,405.1,1236.2,401.8,1232,401.8z"/>
				<g>
					
						<ellipse transform="matrix(0.9239 -0.3827 0.3827 0.9239 -102.8754 482.6532)" class="st5" cx="1161.8" cy="499.9" rx="38.4" ry="38.4"/>
					<rect x="1133" y="547.9" class="st5" width="57.5" height="5.4"/>
					<rect x="1123.3" y="562.3" class="st5" width="76.9" height="4.7"/>
					
						<ellipse transform="matrix(0.982 -0.1891 0.1891 0.982 -101.6303 231.3811)" class="st5" cx="1161.8" cy="648.3" rx="38.4" ry="38.4"/>
					<rect x="1133" y="696.3" class="st5" width="57.5" height="5.4"/>
					<rect x="1123.3" y="710.6" class="st5" width="76.9" height="4.7"/>
				</g>
				<path class="st4" d="M1587,670.5h-320.6c-4.7,0-8.4,3.8-8.4,8.4v85.3c0,4.7,3.8,8.4,8.4,8.4H1587c4.7,0,8.4-3.8,8.4-8.4V679
					C1595.5,674.3,1591.7,670.5,1587,670.5z"/>
				<g>
					<rect x="1270.2" y="427.4" class="st4" width="19.3" height="19.3"/>
					<rect x="1315.3" y="428.5" class="st4" width="169.8" height="2.5"/>
					<rect x="1315.3" y="435.9" class="st4" width="213.4" height="2.5"/>
					<rect x="1315.3" y="443.3" class="st4" width="202.6" height="2.5"/>
				</g>
				<g>
					<rect x="1270.2" y="476.4" class="st4" width="19.3" height="19.3"/>
					<rect x="1315.3" y="477.4" class="st4" width="169.8" height="2.5"/>
					<rect x="1315.3" y="484.9" class="st4" width="213.4" height="2.5"/>
					<rect x="1315.3" y="492.3" class="st4" width="202.6" height="2.5"/>
				</g>
				<g>
					<rect x="1270.2" y="525.5" class="st4" width="19.3" height="19.3"/>
					<rect x="1315.3" y="526.4" class="st4" width="169.8" height="2.5"/>
					<rect x="1315.3" y="533.8" class="st4" width="213.4" height="2.5"/>
					<rect x="1315.3" y="541.2" class="st4" width="202.6" height="2.5"/>
				</g>
				<g>
					<rect x="1270.2" y="574.4" class="st4" width="19.3" height="19.3"/>
					<rect x="1315.3" y="575.4" class="st4" width="169.8" height="2.5"/>
					<rect x="1315.3" y="582.8" class="st4" width="213.4" height="2.5"/>
					<rect x="1315.3" y="590.2" class="st4" width="202.6" height="2.5"/>
				</g>
				<g>
					<rect x="1270.2" y="623.4" class="st4" width="19.3" height="19.3"/>
					<rect x="1315.3" y="624.3" class="st4" width="169.8" height="2.5"/>
					<rect x="1315.3" y="631.8" class="st4" width="213.4" height="2.5"/>
					<rect x="1315.3" y="639.2" class="st4" width="202.6" height="2.5"/>
				</g>
				<g>
					<rect x="1283.4" y="688.6" class="st3" width="259" height="3.3"/>
					<rect x="1283.4" y="699.1" class="st3" width="277" height="3.3"/>
					<rect x="1283.4" y="709.6" class="st3" width="286.7" height="3.3"/>
					<rect x="1283.4" y="719.9" class="st3" width="275.8" height="3.3"/>
					<rect x="1283.4" y="730.4" class="st3" width="275.8" height="3.3"/>
					<rect x="1283.4" y="740.9" class="st3" width="269.7" height="3.3"/>
					<rect x="1283.4" y="751.4" class="st3" width="259" height="3.3"/>
				</g>
			</g>
			<g>
				<path class="st3" d="M1722.3,515.1c-1.5,0-2.6,1.2-2.6,2.6v6.4c0,1.5,1.2,2.6,2.6,2.6c1.4,0,2.6-1.2,2.6-2.6v-6.4
					C1725.1,516.3,1723.9,515.1,1722.3,515.1z"/>
				<path class="st3" d="M1722.3,534.2c-1.5,0-2.6,1.2-2.6,2.6v12.6c0,1.5,1.2,2.6,2.6,2.6c1.4,0,2.6-1.2,2.6-2.6v-12.6
					C1725.1,535.3,1723.9,534.2,1722.3,534.2z"/>
				<path class="st3" d="M1722.3,685.6c-1.5,0-2.6,1.2-2.6,2.6v12.6c0,1.5,1.2,2.6,2.6,2.6c1.4,0,2.6-1.2,2.6-2.6v-12.5
					C1725.1,686.8,1723.9,685.6,1722.3,685.6z"/>
				<path class="st3" d="M1722.3,635.2c-1.5,0-2.6,1.2-2.6,2.6v12.6c0,1.5,1.2,2.6,2.6,2.6c1.4,0,2.6-1.2,2.6-2.6v-12.6
					C1725.1,636.4,1723.9,635.2,1722.3,635.2z"/>
				<path class="st3" d="M1722.3,660.4c-1.5,0-2.6,1.2-2.6,2.6v12.6c0,1.5,1.2,2.6,2.6,2.6c1.4,0,2.6-1.2,2.6-2.6V663
					C1725.1,661.6,1723.9,660.4,1722.3,660.4z"/>
				<path class="st3" d="M1722.3,559.4c-1.5,0-2.6,1.2-2.6,2.6v12.6c0,1.5,1.2,2.6,2.6,2.6c1.4,0,2.6-1.2,2.6-2.6v-12.6
					C1725.1,560.6,1723.9,559.4,1722.3,559.4z"/>
				<path class="st3" d="M1722.3,609.9c-1.5,0-2.6,1.2-2.6,2.6v12.6c0,1.5,1.2,2.6,2.6,2.6c1.4,0,2.6-1.2,2.6-2.6v-12.6
					C1725.1,611.1,1723.9,609.9,1722.3,609.9z"/>
				<path class="st3" d="M1722.3,584.6c-1.5,0-2.6,1.2-2.6,2.6v12.6c0,1.5,1.2,2.6,2.6,2.6c1.4,0,2.6-1.2,2.6-2.6v-12.6
					C1725.1,585.8,1723.9,584.6,1722.3,584.6z"/>
				<path class="st3" d="M1722.3,710.9c-1.5,0-2.6,1.2-2.6,2.6v3.8h-3.8c-1.5,0-2.6,1.2-2.6,2.6c0,1.5,1.2,2.6,2.6,2.6h9.2v-9.2
					C1725.1,712.1,1723.9,710.9,1722.3,710.9z"/>
				<path class="st3" d="M1671.4,717.3h-14.8c-1.5,0-2.6,1.2-2.6,2.6c0,1.5,1.2,2.6,2.6,2.6h14.8c1.5,0,2.6-1.2,2.6-2.6
					C1674.1,718.5,1672.8,717.3,1671.4,717.3z"/>
				<path class="st3" d="M1701.1,717.3h-14.8c-1.5,0-2.6,1.2-2.6,2.6c0,1.5,1.2,2.6,2.6,2.6h14.8c1.5,0,2.6-1.2,2.6-2.6
					S1702.6,717.3,1701.1,717.3z"/>
				<path class="st3" d="M1641.7,717.3h-6.4c-1.5,0-2.6,1.2-2.6,2.6c0,1.5,1.2,2.6,2.6,2.6h6.4c1.5,0,2.6-1.2,2.6-2.6
					S1643.1,717.3,1641.7,717.3z"/>
			</g>
			<path class="st3" d="M1280.9,908.9H1268c-1.5,0-2.6,1.2-2.6,2.6c0,1.5,1.2,2.6,2.6,2.6h12.9c1.5,0,2.6-1.2,2.6-2.6
				C1283.6,910.2,1282.4,908.9,1280.9,908.9z"/>
			<path class="st3" d="M1332.4,908.9h-12.9c-1.5,0-2.6,1.2-2.6,2.6c0,1.5,1.2,2.6,2.6,2.6h12.9c1.5,0,2.6-1.2,2.6-2.6
				C1335.1,910.2,1333.9,908.9,1332.4,908.9z"/>
			<path class="st3" d="M1306.6,908.9h-12.9c-1.5,0-2.6,1.2-2.6,2.6c0,1.5,1.2,2.6,2.6,2.6h12.9c1.5,0,2.6-1.2,2.6-2.6
				C1309.4,910.2,1308.1,908.9,1306.6,908.9z"/>
			<path class="st3" d="M1255.2,908.9h-12.9c-1.5,0-2.6,1.2-2.6,2.6c0,1.5,1.2,2.6,2.6,2.6h12.9c1.5,0,2.6-1.2,2.6-2.6
				C1257.9,910.2,1256.7,908.9,1255.2,908.9z"/>
			<path class="st3" d="M1383.9,908.9H1371c-1.5,0-2.6,1.2-2.6,2.6c0,1.5,1.2,2.6,2.6,2.6h12.9c1.5,0,2.6-1.2,2.6-2.6
				C1386.5,910.2,1385.3,908.9,1383.9,908.9z"/>
			<path class="st3" d="M1358.2,908.9h-12.9c-1.5,0-2.6,1.2-2.6,2.6c0,1.5,1.2,2.6,2.6,2.6h12.9c1.5,0,2.6-1.2,2.6-2.6
				C1360.8,910.2,1359.6,908.9,1358.2,908.9z"/>
			<path class="st3" d="M1409.6,908.9h-12.9c-1.5,0-2.6,1.2-2.6,2.6c0,1.5,1.2,2.6,2.6,2.6h12.9c1.5,0,2.6-1.2,2.6-2.6
				C1412.3,910.2,1411.1,908.9,1409.6,908.9z"/>
			<path class="st3" d="M1229.5,908.9h-12.9c-1.5,0-2.6,1.2-2.6,2.6c0,1.5,1.2,2.6,2.6,2.6h12.9c1.5,0,2.6-1.2,2.6-2.6
				C1232.1,910.2,1231,908.9,1229.5,908.9z"/>
			<path class="st3" d="M1178,908.9h-12.9c-1.5,0-2.6,1.2-2.6,2.6c0,1.5,1.2,2.6,2.6,2.6h12.9c1.5,0,2.6-1.2,2.6-2.6
				C1180.7,910.2,1179.4,908.9,1178,908.9z"/>
			<path class="st3" d="M1677.6,765.2c-1.5,0-2.6,1.2-2.6,2.6v12.9c0,1.5,1.2,2.6,2.6,2.6c1.5,0,2.6-1.2,2.6-2.6v-12.9
				C1680.3,766.4,1679.1,765.2,1677.6,765.2z"/>
			<path class="st3" d="M1101.4,869.8c-1.5,0-2.6,1.2-2.6,2.6v12.9c0,1.5,1.2,2.6,2.6,2.6c1.5,0,2.6-1.2,2.6-2.6v-12.9
				C1104,871,1102.8,869.8,1101.4,869.8z"/>
			<path class="st3" d="M1101.4,844.1c-1.5,0-2.6,1.2-2.6,2.6v12.9c0,1.5,1.2,2.6,2.6,2.6c1.5,0,2.6-1.2,2.6-2.6v-12.9
				C1104,845.3,1102.8,844.1,1101.4,844.1z"/>
			<path class="st3" d="M1101.4,895.5c-1.5,0-2.6,1.2-2.6,2.6v12.9c0,1.5,1.2,2.6,2.6,2.6c1.5,0,2.6-1.2,2.6-2.6v-12.9
				C1104,896.7,1102.8,895.5,1101.4,895.5z"/>
			<path class="st3" d="M1152.3,908.9h-12.9c-1.5,0-2.6,1.2-2.6,2.6c0,1.5,1.2,2.6,2.6,2.6h12.9c1.5,0,2.6-1.2,2.6-2.6
				C1154.9,910.2,1153.7,908.9,1152.3,908.9z"/>
			<path class="st3" d="M1435.3,908.9h-12.9c-1.5,0-2.6,1.2-2.6,2.6c0,1.5,1.2,2.6,2.6,2.6h12.9c1.5,0,2.6-1.2,2.6-2.6
				C1438,910.2,1436.9,908.9,1435.3,908.9z"/>
			<path class="st3" d="M1203.7,908.9h-12.9c-1.5,0-2.6,1.2-2.6,2.6c0,1.5,1.2,2.6,2.6,2.6h12.9c1.5,0,2.6-1.2,2.6-2.6
				C1206.4,910.2,1205.2,908.9,1203.7,908.9z"/>
			<path class="st3" d="M1126.5,908.9h-12.9c-1.5,0-2.6,1.2-2.6,2.6c0,1.5,1.2,2.6,2.6,2.6h12.9c1.5,0,2.6-1.2,2.6-2.6
				C1129.2,910.2,1128,908.9,1126.5,908.9z"/>
			<path class="st3" d="M1101.4,818.4c-1.5,0-2.6,1.2-2.6,2.6v12.9c0,1.5,1.2,2.6,2.6,2.6c1.5,0,2.6-1.2,2.6-2.6V821
				C1104,819.5,1102.8,818.4,1101.4,818.4z"/>
			<path class="st3" d="M1676.5,758.8c0-1.5-1.2-2.6-2.6-2.6H1661c-1.5,0-2.6,1.2-2.6,2.6s1.2,2.6,2.6,2.6h12.9
				C1675.4,761.4,1676.5,760.2,1676.5,758.8z"/>
			<path class="st3" d="M1677.6,893.9c-1.5,0-2.6,1.2-2.6,2.6v12.9c0,1.5,1.2,2.6,2.6,2.6c1.5,0,2.6-1.2,2.6-2.6v-12.9
				C1680.3,895,1679.1,893.9,1677.6,893.9z"/>
			<path class="st3" d="M1666.9,908.9H1654c-1.5,0-2.6,1.2-2.6,2.6c0,1.5,1.2,2.6,2.6,2.6h12.9c1.5,0,2.6-1.2,2.6-2.6
				C1669.7,910.2,1668.5,908.9,1666.9,908.9z"/>
			<path class="st3" d="M1648.1,756h-12.9c-1.5,0-2.6,1.2-2.6,2.6s1.2,2.6,2.6,2.6h12.9c1.5,0,2.6-1.2,2.6-2.6
				S1649.7,756,1648.1,756z"/>
			<path class="st3" d="M1677.6,868.1c-1.5,0-2.6,1.2-2.6,2.6v12.9c0,1.5,1.2,2.6,2.6,2.6c1.5,0,2.6-1.2,2.6-2.6v-12.9
				C1680.3,869.3,1679.1,868.1,1677.6,868.1z"/>
			<path class="st3" d="M1461.1,908.9h-12.9c-1.5,0-2.6,1.2-2.6,2.6c0,1.5,1.2,2.6,2.6,2.6h12.9c1.5,0,2.6-1.2,2.6-2.6
				C1463.8,910.2,1462.6,908.9,1461.1,908.9z"/>
			<path class="st3" d="M1677.6,842.4c-1.5,0-2.6,1.2-2.6,2.6v12.9c0,1.5,1.2,2.6,2.6,2.6c1.5,0,2.6-1.2,2.6-2.6V845
				C1680.3,843.6,1679.1,842.4,1677.6,842.4z"/>
			<path class="st3" d="M1677.6,816.6c-1.5,0-2.6,1.2-2.6,2.6v12.9c0,1.5,1.2,2.6,2.6,2.6c1.5,0,2.6-1.2,2.6-2.6v-12.9
				C1680.3,817.9,1679.1,816.6,1677.6,816.6z"/>
			<path class="st3" d="M1677.6,790.9c-1.5,0-2.6,1.2-2.6,2.6v12.9c0,1.5,1.2,2.6,2.6,2.6c1.5,0,2.6-1.2,2.6-2.6v-12.9
				C1680.3,792.1,1679.1,790.9,1677.6,790.9z"/>
			<path class="st3" d="M1538.3,908.9h-12.9c-1.5,0-2.6,1.2-2.6,2.6c0,1.5,1.2,2.6,2.6,2.6h12.9c1.5,0,2.6-1.2,2.6-2.6
				C1541,910.2,1539.7,908.9,1538.3,908.9z"/>
			<path class="st3" d="M1512.6,908.9h-12.9c-1.5,0-2.6,1.2-2.6,2.6c0,1.5,1.2,2.6,2.6,2.6h12.9c1.5,0,2.6-1.2,2.6-2.6
				C1515.2,910.2,1514,908.9,1512.6,908.9z"/>
			<path class="st3" d="M1641.2,908.9h-12.9c-1.5,0-2.6,1.2-2.6,2.6c0,1.5,1.2,2.6,2.6,2.6h12.9c1.5,0,2.6-1.2,2.6-2.6
				C1644,910.2,1642.7,908.9,1641.2,908.9z"/>
			<path class="st3" d="M1486.8,908.9H1474c-1.5,0-2.6,1.2-2.6,2.6c0,1.5,1.2,2.6,2.6,2.6h12.9c1.5,0,2.6-1.2,2.6-2.6
				C1489.5,910.2,1488.3,908.9,1486.8,908.9z"/>
			<path class="st3" d="M1615.5,908.9h-12.9c-1.5,0-2.6,1.2-2.6,2.6c0,1.5,1.2,2.6,2.6,2.6h12.9c1.5,0,2.6-1.2,2.6-2.6
				C1618.1,910.2,1617,908.9,1615.5,908.9z"/>
			<path class="st3" d="M1589.8,908.9h-12.9c-1.5,0-2.6,1.2-2.6,2.6c0,1.5,1.2,2.6,2.6,2.6h12.9c1.5,0,2.6-1.2,2.6-2.6
				C1592.4,910.2,1591.2,908.9,1589.8,908.9z"/>
			<path class="st3" d="M1564,908.9h-12.9c-1.5,0-2.6,1.2-2.6,2.6c0,1.5,1.2,2.6,2.6,2.6h12.9c1.5,0,2.6-1.2,2.6-2.6
				C1566.7,910.2,1565.5,908.9,1564,908.9z"/>
			<g>
				<circle class="st10" cx="1161.7" cy="380.2" r="51.7"/>
				<path class="st3" d="M1183.8,358.9l-31.2,34l-12.9-15.3c-1.3-1.6-3.8-1.8-5.4-0.5c-1.6,1.3-1.8,3.8-0.5,5.4l15.7,18.6
					c0.7,0.8,1.7,1.3,2.8,1.3h0.1c1.1,0,2.1-0.4,2.8-1.2l34.2-37.2c1.4-1.5,1.3-4-0.2-5.4C1187.7,357.3,1185.2,357.4,1183.8,358.9z"
					/>
			</g>
			<path class="st11" d="M396.2,87.4l-16.8-3.2c-1.5-6-4-11.6-6.9-16.8l9.7-14.1c1.8-2.7,1.5-6.4-0.8-8.6l-5-5l-5-5
				c-2.3-2.3-6-2.6-8.6-0.8l-14.1,9.7c-5.2-3.1-10.8-5.4-16.8-6.9l-3.2-16.8c-0.6-3.3-3.5-5.6-6.7-5.6h-7h-7c-3.3,0-6.1,2.3-6.7,5.6
				l-3.2,16.8c-6,1.5-11.6,4-16.8,6.9l-14.1-9.7c-2.7-1.8-6.4-1.5-8.6,0.8l-5,5l-5,5c-2.3,2.3-2.6,6-0.8,8.6l9.7,14.1
				c-3.1,5.2-5.4,10.8-6.9,16.8l-16.8,3.2c-3.3,0.6-5.6,3.5-5.6,6.7v7v7c0,3.3,2.3,6.1,5.6,6.7l16.8,3.2c1.5,6,4,11.6,6.9,16.8
				l-9.7,14.1c-1.8,2.7-1.5,6.4,0.8,8.6l5,5l5,5c2.3,2.3,6,2.6,8.6,0.8l14.1-9.7c5.2,3.1,10.8,5.4,16.8,6.9l3.2,16.8
				c0.6,3.3,3.5,5.6,6.7,5.6h7h7c3.3,0,6.1-2.3,6.7-5.6l3.2-16.8c6-1.5,11.6-4,16.8-6.9l14.1,9.7c2.7,1.8,6.4,1.5,8.6-0.8l5-5l5-5
				c2.3-2.3,2.6-6,0.8-8.6l-9.7-14.1c3.1-5.2,5.4-10.8,6.9-16.8l16.8-3.2c3.3-0.6,5.6-3.5,5.6-6.7v-7v-7
				C401.8,90.8,399.4,88,396.2,87.4z M314.7,144.1c-23.8,0-43-19.2-43-43s19.2-43,43-43c23.8,0,43,19.2,43,43
				C357.7,124.9,338.5,144.1,314.7,144.1z"/>
			<path class="st12" d="M1841.7,780.4l-12.8-2.4c-1.2-4.5-2.9-8.8-5.3-12.7l7.3-10.8c1.4-2,1.1-4.9-0.6-6.6l-3.8-3.8l-3.8-3.8
				c-1.7-1.7-4.6-2-6.6-0.6l-10.8,7.3c-4-2.3-8.2-4.1-12.7-5.3l-2.4-12.8c-0.5-2.4-2.6-4.3-5.1-4.3h-5.4h-5.4
				c-2.5,0-4.7,1.7-5.1,4.3l-2.4,12.8c-4.5,1.2-8.8,2.9-12.7,5.3l-10.8-7.3c-2-1.4-4.9-1.1-6.6,0.6l-3.8,3.8l-3.8,3.8
				c-1.7,1.7-2,4.6-0.6,6.6l7.3,10.8c-2.3,4-4.1,8.2-5.3,12.7l-12.8,2.4c-2.4,0.5-4.3,2.6-4.3,5.1v5.4v5.4c0,2.5,1.7,4.7,4.3,5.1
				l12.8,2.4c1.2,4.5,2.9,8.8,5.3,12.7l-7.3,10.8c-1.4,2-1.1,4.9,0.6,6.6l3.8,3.8l3.8,3.8c1.7,1.7,4.6,2,6.6,0.6l10.8-7.3
				c4,2.3,8.2,4.1,12.7,5.3l2.4,12.8c0.5,2.4,2.6,4.3,5.1,4.3h5.4h5.4c2.5,0,4.7-1.7,5.1-4.3l2.4-12.8c4.5-1.2,8.8-2.9,12.7-5.3
				l10.8,7.3c2,1.4,4.9,1.1,6.6-0.6l3.8-3.8l3.8-3.8c1.7-1.7,2-4.6,0.6-6.6l-7.3-10.8c2.3-4,4.1-8.2,5.3-12.7l12.8-2.4
				c2.4-0.5,4.3-2.6,4.3-5.1v-5.4v-5.4C1846,783.1,1844.1,780.9,1841.7,780.4z M1779.9,823.5c-18.1,0-32.6-14.6-32.6-32.6
				c0-18.1,14.6-32.6,32.6-32.6s32.6,14.6,32.6,32.6C1812.5,808.9,1797.9,823.5,1779.9,823.5z"/>
			<path class="st12" d="M1069.7,306.3l-8.9-1.7c-0.8-3.2-2.1-6.2-3.7-8.9l5.2-7.5c1-1.4,0.8-3.4-0.4-4.6l-2.6-2.6l-2.6-2.6
				c-1.2-1.2-3.2-1.4-4.6-0.4l-7.5,5.2c-2.7-1.6-5.7-2.8-8.9-3.7l-1.7-8.9c-0.3-1.7-1.8-2.9-3.6-2.9h-3.8h-3.8
				c-1.7,0-3.3,1.2-3.6,2.9l-1.7,8.9c-3.2,0.8-6.2,2.1-8.9,3.7l-7.5-5.2c-1.4-1-3.4-0.8-4.6,0.4l-2.6,2.6l-2.6,2.6
				c-1.2,1.2-1.4,3.2-0.4,4.6l5.2,7.5c-1.6,2.7-2.8,5.7-3.7,8.9l-8.9,1.7c-1.7,0.3-2.9,1.8-2.9,3.6v3.8v3.8c0,1.7,1.2,3.3,2.9,3.6
				l8.9,1.7c0.8,3.2,2.1,6.2,3.7,8.9l-5.2,7.5c-1,1.4-0.8,3.4,0.4,4.6l2.6,2.6l2.6,2.6c1.2,1.2,3.2,1.4,4.6,0.4l7.5-5.2
				c2.7,1.6,5.7,2.8,8.9,3.7l1.7,8.9c0.3,1.7,1.8,2.9,3.6,2.9h3.8h3.8c1.7,0,3.3-1.2,3.6-2.9l1.7-8.9c3.2-0.8,6.2-2.1,8.9-3.7
				l7.5,5.2c1.4,1,3.4,0.8,4.6-0.4l2.6-2.6l2.6-2.6c1.2-1.2,1.4-3.2,0.4-4.6l-5.2-7.5c1.6-2.7,2.8-5.7,3.7-8.9l8.9-1.7
				c1.7-0.3,2.9-1.8,2.9-3.6v-3.8v-3.8C1072.7,308.1,1071.5,306.6,1069.7,306.3z M1026.4,336.4c-12.6,0-22.9-10.3-22.9-22.9
				s10.3-22.9,22.9-22.9c12.6,0,22.9,10.3,22.9,22.9C1049.3,326.2,1039.1,336.4,1026.4,336.4z"/>
			<path class="st3" d="M915.3,433c-1.5,0-2.6,1.2-2.6,2.6v12.9c0,1.5,1.2,2.6,2.6,2.6c1.5,0,2.6-1.2,2.6-2.6v-12.9
				C917.9,434.3,916.8,433,915.3,433z"/>
			<path class="st3" d="M915.3,510.3c-1.5,0-2.6,1.2-2.6,2.6v12.9c0,1.5,1.2,2.6,2.6,2.6c1.5,0,2.6-1.2,2.6-2.6v-12.9
				C917.9,511.4,916.8,510.3,915.3,510.3z"/>
			<path class="st3" d="M915.3,484.5c-1.5,0-2.6,1.2-2.6,2.6V500c0,1.5,1.2,2.6,2.6,2.6c1.5,0,2.6-1.2,2.6-2.6v-12.9
				C917.9,485.7,916.8,484.5,915.3,484.5z"/>
			<path class="st3" d="M915.3,458.8c-1.5,0-2.6,1.2-2.6,2.6v12.9c0,1.5,1.2,2.6,2.6,2.6c1.5,0,2.6-1.2,2.6-2.6v-12.9
				C917.9,460,916.8,458.8,915.3,458.8z"/>
			<path class="st3" d="M915.3,536c-1.5,0-2.6,1.2-2.6,2.6v12.9c0,1.5,1.2,2.6,2.6,2.6c1.5,0,2.6-1.2,2.6-2.6v-12.9
				C917.9,537.2,916.8,536,915.3,536z"/>
			<path class="st3" d="M873.7,333.1h-12.9c-1.5,0-2.6,1.2-2.6,2.6c0,1.5,1.2,2.6,2.6,2.6h12.9c1.5,0,2.6-1.2,2.6-2.6
				C876.4,334.3,875.1,333.1,873.7,333.1z"/>
			<path class="st3" d="M899.4,333.1h-12.9c-1.5,0-2.6,1.2-2.6,2.6c0,1.5,1.2,2.6,2.6,2.6h12.9c1.5,0,2.6-1.2,2.6-2.6
				S900.9,333.1,899.4,333.1z"/>
			<path class="st3" d="M915.3,587.5c-1.5,0-2.6,1.2-2.6,2.6V603c0,1.5,1.2,2.6,2.6,2.6c1.5,0,2.6-1.2,2.6-2.6v-12.9
				C917.9,588.7,916.8,587.5,915.3,587.5z"/>
			<path class="st3" d="M915.3,561.7c-1.5,0-2.6,1.2-2.6,2.6v12.9c0,1.5,1.2,2.6,2.6,2.6c1.5,0,2.6-1.2,2.6-2.6v-12.9
				C917.9,563,916.8,561.7,915.3,561.7z"/>
			<path class="st3" d="M915.3,613.2c-1.5,0-2.6,1.2-2.6,2.6v12.9c0,1.5,1.2,2.6,2.6,2.6c1.5,0,2.6-1.2,2.6-2.6v-12.9
				C917.9,614.4,916.8,613.2,915.3,613.2z"/>
			<path class="st3" d="M987,631.6h-12.9c-1.5,0-2.6,1.2-2.6,2.6c0,1.4,1.2,2.6,2.6,2.6H987c1.5,0,2.6-1.2,2.6-2.6
				C989.6,632.8,988.5,631.6,987,631.6z"/>
			<path class="st3" d="M1012.7,631.6h-12.9c-1.5,0-2.6,1.2-2.6,2.6c0,1.4,1.2,2.6,2.6,2.6h12.9c1.5,0,2.6-1.2,2.6-2.6
				C1015.3,632.8,1014.2,631.6,1012.7,631.6z"/>
			<path class="st3" d="M961.3,631.6h-12.9c-1.5,0-2.6,1.2-2.6,2.6c0,1.4,1.2,2.6,2.6,2.6h12.9c1.5,0,2.6-1.2,2.6-2.6
				C963.9,632.8,962.8,631.6,961.3,631.6z"/>
			<path class="st3" d="M1027.3,631.6h-1.7c-1.5,0-2.6,1.2-2.6,2.6c0,1.4,1.2,2.6,2.6,2.6h1.7c1.5,0,2.6-1.2,2.6-2.6
				C1030,632.8,1028.9,631.6,1027.3,631.6z"/>
			<path class="st3" d="M915.3,381.6c-1.5,0-2.6,1.2-2.6,2.6v12.9c0,1.5,1.2,2.6,2.6,2.6c1.5,0,2.6-1.2,2.6-2.6v-12.9
				C917.9,382.8,916.8,381.6,915.3,381.6z"/>
			<path class="st3" d="M915.3,355.9c-1.5,0-2.6,1.2-2.6,2.6v12.9c0,1.5,1.2,2.6,2.6,2.6c1.5,0,2.6-1.2,2.6-2.6v-12.9
				C917.9,357.1,916.8,355.9,915.3,355.9z"/>
			<path class="st3" d="M915.3,407.3c-1.5,0-2.6,1.2-2.6,2.6v12.9c0,1.5,1.2,2.6,2.6,2.6c1.5,0,2.6-1.2,2.6-2.6V410
				C917.9,408.5,916.8,407.3,915.3,407.3z"/>
			<path class="st3" d="M935.5,631.6h-12.9c-1.5,0-2.6,1.2-2.6,2.6c0,1.4,1.2,2.6,2.6,2.6h12.9c1.5,0,2.6-1.2,2.6-2.6
				C938.2,632.8,937.1,631.6,935.5,631.6z"/>
			<path class="st3" d="M909.6,335.8c0,1.5,1.2,2.6,2.6,2.6h0.3v7.1c0,1.5,1.2,2.6,2.6,2.6c1.5,0,2.6-1.2,2.6-2.6v-12.5h-5.7
				C910.8,333.1,909.6,334.3,909.6,335.8z"/>
			<path class="st3" d="M410,756h-12.9c-1.5,0-2.6,1.2-2.6,2.6s1.2,2.6,2.6,2.6H410c1.5,0,2.6-1.2,2.6-2.6S411.5,756,410,756z"/>
			<path class="st3" d="M487.3,756h-12.9c-1.5,0-2.6,1.2-2.6,2.6s1.2,2.6,2.6,2.6h12.9c1.5,0,2.6-1.2,2.6-2.6S488.7,756,487.3,756z"
				/>
			<path class="st3" d="M384.3,756h-12.9c-1.5,0-2.6,1.2-2.6,2.6s1.2,2.6,2.6,2.6h12.9c1.5,0,2.6-1.2,2.6-2.6S385.8,756,384.3,756z"
				/>
			<path class="st3" d="M435.7,756h-12.9c-1.5,0-2.6,1.2-2.6,2.6s1.2,2.6,2.6,2.6h12.9c1.5,0,2.6-1.2,2.6-2.6S437.2,756,435.7,756z"
				/>
			<path class="st3" d="M461.4,756h-12.9c-1.5,0-2.6,1.2-2.6,2.6s1.2,2.6,2.6,2.6h12.9c1.5,0,2.6-1.2,2.6-2.6S463,756,461.4,756z"/>
			<path class="st3" d="M314.7,702.3c1.5,0,2.6-1.2,2.6-2.6v-12.9c0-1.5-1.2-2.6-2.6-2.6c-1.5,0-2.6,1.2-2.6,2.6v12.8
				C312.1,701,313.3,702.3,314.7,702.3z"/>
			<path class="st3" d="M314.7,728c1.5,0,2.6-1.2,2.6-2.6v-12.9c0-1.5-1.2-2.6-2.6-2.6c-1.5,0-2.6,1.2-2.6,2.6v12.9
				C312.1,726.8,313.3,728,314.7,728z"/>
			<path class="st3" d="M317.5,738.1c0-1.5-1.2-2.6-2.6-2.6c-1.5,0-2.6,1.2-2.6,2.6v12.9c0,1.5,1.2,2.6,2.6,2.6
				c1.5,0,2.6-1.2,2.6-2.6V738.1z"/>
			<path class="st3" d="M332.8,756h-12.9c-1.5,0-2.6,1.2-2.6,2.6s1.2,2.6,2.6,2.6h12.9c1.5,0,2.6-1.2,2.6-2.6S334.3,756,332.8,756z"
				/>
			<path class="st3" d="M358.6,756h-12.9c-1.5,0-2.6,1.2-2.6,2.6s1.2,2.6,2.6,2.6h12.9c1.5,0,2.6-1.2,2.6-2.6S360,756,358.6,756z"/>
			<path class="st3" d="M511.8,651.9c-1.5,0-2.6,1.2-2.6,2.6v12.9c0,1.5,1.2,2.6,2.6,2.6s2.6-1.2,2.6-2.6v-12.9
				C514.5,653.1,513.3,651.9,511.8,651.9z"/>
			<path class="st3" d="M511.8,549c-1.5,0-2.6,1.2-2.6,2.6v12.9c0,1.5,1.2,2.6,2.6,2.6s2.6-1.2,2.6-2.6v-12.9
				C514.5,550.3,513.3,549,511.8,549z"/>
			<path class="st3" d="M511.8,574.8c-1.5,0-2.6,1.2-2.6,2.6v12.9c0,1.5,1.2,2.6,2.6,2.6s2.6-1.2,2.6-2.6v-12.9
				C514.5,576,513.3,574.8,511.8,574.8z"/>
			<path class="st3" d="M511.8,600.5c-1.5,0-2.6,1.2-2.6,2.6V616c0,1.5,1.2,2.6,2.6,2.6s2.6-1.2,2.6-2.6v-12.9
				C514.5,601.7,513.3,600.5,511.8,600.5z"/>
			<path class="st3" d="M511.8,523.3c-1.5,0-2.6,1.2-2.6,2.6v12.9c0,1.5,1.2,2.6,2.6,2.6s2.6-1.2,2.6-2.6V526
				C514.5,524.4,513.3,523.3,511.8,523.3z"/>
			<path class="st3" d="M511.8,754.9c-0.9,0-1.7,0.4-2.2,1.1H500c-1.5,0-2.6,1.2-2.6,2.6s1.2,2.6,2.6,2.6h14.4v-3.9
				C514.5,756.1,513.3,754.9,511.8,754.9z"/>
			<path class="st3" d="M511.8,729.2c-1.5,0-2.6,1.2-2.6,2.6v12.9c0,1.5,1.2,2.6,2.6,2.6s2.6-1.2,2.6-2.6v-12.9
				C514.5,730.4,513.3,729.2,511.8,729.2z"/>
			<path class="st3" d="M511.8,626.2c-1.5,0-2.6,1.2-2.6,2.6v12.9c0,1.5,1.2,2.6,2.6,2.6s2.6-1.2,2.6-2.6v-12.9
				C514.5,627.4,513.3,626.2,511.8,626.2z"/>
			<path class="st3" d="M511.8,703.5c-1.5,0-2.6,1.2-2.6,2.6V719c0,1.5,1.2,2.6,2.6,2.6s2.6-1.2,2.6-2.6v-12.9
				C514.5,704.6,513.3,703.5,511.8,703.5z"/>
			<path class="st3" d="M511.8,677.6c-1.5,0-2.6,1.2-2.6,2.6v12.9c0,1.5,1.2,2.6,2.6,2.6s2.6-1.2,2.6-2.6v-12.9
				C514.5,678.9,513.3,677.6,511.8,677.6z"/>
		</g>
		<g>
			<path class="st13" d="M165.6,1317.9c-18.3,18.5-28.6,42.9-28.4,68.4c0.3,31.7,14.9,59.2,36.9,80.9
				c-8.9-49.3,4.8-103.5,34.4-143.6c12.8-17.3,28-32.4,44.7-45.4c-10.4,2.5-20.8,5.3-31,8.5C201.6,1293.4,180.8,1302.5,165.6,1317.9
				z"/>
			<path class="st13" d="M706.8,1253.2c44,11.8,89,20.2,134.2,26.3c7.3,0.9,14.5,1.7,21.9,2.5c-43.9-8.8-87-20.6-128.9-36.1
				c-5.2-22.1-24.7-39.7-49.9-39.7c-0.1,0-0.3,0-0.4,0c-37.9,0.3-75.8,2.8-113.6,7.1c29.8,1.5,59.7,3.2,89.5,3.3
				C683.3,1216.7,701.6,1232.6,706.8,1253.2z"/>
			<path class="st13" d="M718,1524c-9.7-1-19.4-1.5-29.1-1.5c-8.4,0-17,0.4-25.4,1.2c-15.3,2.3-30.1,5.9-44.6,10.2
				c18.1,3.1,35.8,7.4,53,13.7c38.2,16.8,72,42.9,113.8,51.7c13.3,2.8,26.5,4.2,39.8,4.2c14.8,0,29.8-1.6,44.6-4.7
				c17.4-3.6,34.3-9.6,50.7-16.2c-11.5-2.8-22.8-6.1-34-9.6C830.9,1555.6,776.3,1532.8,718,1524z"/>
			<path class="st13" d="M1570.2,1292.6c-16-0.4-31.8-0.5-47.8-0.5c-29.5,0-59,0.6-88.5,1.4c16.3,0.9,32.5,1.9,48.8,3.3
				c50,4.2,98.6,10.9,144.6,30.9c42.4,18.5,74.5,50.5,92.3,90.9c15.9-26.3,12.3-60.4-7.1-84.3
				C1679.1,1293.3,1619.9,1293.9,1570.2,1292.6z"/>
			<path class="st13" d="M554.8,1530c-49.1,0-98.3,4.9-147.4,5.4c-2.9,0-5.8,0.1-8.7,0.1c-65.7,0-135.2-8.7-191.4-42.9
				c-12-7.3-23.2-15.9-32.9-25.5c3.8,20.8,11.6,40.8,24,58.5c23.5,33.7,58.1,56.3,98.2,68.9c22.5,7,45.8,10,69,10
				c17.7,0,35.5-1.6,53.1-4.4c70.4-11.1,132.9-46.6,200.4-66.3c-1.9-0.3-4-0.6-5.9-0.9C593.5,1530.9,574.1,1530,554.8,1530z"/>
			<path class="st13" d="M330.5,1258.8c36.8-9,73.8-17.6,111.1-25c42.4-8.4,85.3-15.6,128.4-20.4c-13.1-0.7-26.2-1.3-39.4-1.8
				c-10.7-0.4-21.4-0.6-31.9-0.6c-31.8,0-63.4,1.8-95.1,6.5c-54.5,8-107.9,27.8-150.3,60.6c6.9-1.7,13.8-3.4,20.6-5.2
				C292.8,1268.1,311.6,1263.4,330.5,1258.8z"/>
			<path class="st13" d="M960.6,1296.7c53.5,5.2,107.3,7.1,160.9,7.1c44.5,0,89.2-1.3,133.7-3.1c59.6-2.3,119.2-5.4,178.7-7.2
				c-46.9-2.5-93.8-3.3-140.8-3.3c-40.7,0-81.2,0.5-121.9,1c-27.7,0.3-55.4,0.6-83.1,0.6c-72.2,0-144.3-1.7-216.1-8.8
				c-3.1-0.3-6.2-0.6-9.3-0.9c22.7,4.6,45.5,8.3,68.4,11.4C941.1,1294.7,950.9,1295.7,960.6,1296.7z"/>
			<path class="st13" d="M1719.8,1418.6c-1.4,2.3-2.9,4.6-4.6,6.7c-17,22-40.4,37-65.6,49.5c-80.8,40.3-172.9,50.7-263.2,50.7
				c-4.7,0-9.3,0-13.9-0.1c-62.3-0.7-124.6-5.7-187-5.7c-30.3,0-60.7,1.2-90.9,4.6c-32.9,4.7-65.3,12.3-96.2,24
				c-20,8.3-39.4,17.9-59.5,26.3c-6.1,2.5-12.2,5.2-18.3,7.6c30.7,7.7,62.3,12.8,93.8,12.8c22.1,0,44-2.4,65.7-8.2
				c38.2-10.2,72.3-30,108.4-45.2c14.2-5.3,28.7-9.4,43.7-11.8c8.2-0.8,16.5-1.1,24.7-1.1c10.8,0,21.6,0.6,32.3,1.7
				c95.5,14.2,181.4,64.7,278.7,70.6c4.4,0.3,8.8,0.4,13.4,0.4c43.1,0,89.5-12.6,118-44.4c32.4-36.2,40.9-86.2,23.7-130.8
				C1721.9,1423.7,1720.9,1421.2,1719.8,1418.6z"/>
			<path class="st14" d="M1627.5,1327.8c-46-20-94.6-26.7-144.6-30.9c-16.3-1.3-32.5-2.4-48.8-3.3c-59.6,1.8-119.2,4.9-178.7,7.2
				c-44.5,1.7-89.2,3.1-133.7,3.1c-53.8,0-107.5-1.8-160.9-7.1c-9.8-0.9-19.5-2-29.3-3.3c-23-3.1-45.9-6.8-68.4-11.4
				c-7.3-0.8-14.5-1.6-21.9-2.5c-45.3-6.1-90.3-14.5-134.2-26.3c-5.2-20.6-23.5-36.6-47.3-36.6c-29.9-0.1-59.7-1.7-89.5-3.3
				c-43.1,4.9-86,12-128.4,20.4c-37.2,7.4-74.2,16-111.1,25c-18.9,4.7-37.7,9.5-56.6,14.2c-6.8,1.7-13.7,3.5-20.6,5.2
				c-16.9,13-32,28.2-44.7,45.4c-29.6,40-43.3,94.1-34.4,143.6c9.8,9.7,20.9,18.2,32.9,25.5c56.2,34.2,125.8,42.9,191.4,42.9
				c2.9,0,5.9,0,8.7-0.1c49.1-0.6,98.3-5.4,147.4-5.4c19.4,0,38.8,0.7,58.2,2.8c1.9,0.3,4,0.6,5.9,0.9c14.6-4.3,29.5-7.7,44.6-10.2
				c8.4-0.8,17-1.2,25.4-1.2c9.7,0,19.4,0.5,29.1,1.5c58.4,8.7,113,31.5,168.7,48.9c11.2,3.5,22.5,6.7,34,9.6
				c6.2-2.5,12.3-5.1,18.3-7.6c19.9-8.5,39.4-18,59.5-26.3c31-11.7,63.3-19.3,96.2-24c30.3-3.5,60.6-4.6,90.9-4.6
				c62.3,0,124.6,5,187,5.7c4.6,0.1,9.3,0.1,13.9,0.1c90.3,0,182.4-10.5,263.2-50.7c25.2-12.5,48.6-27.6,65.6-49.5
				c1.7-2.1,3.3-4.5,4.6-6.7C1702,1378.3,1670,1346.2,1627.5,1327.8z"/>
		</g>
		<g>
			
				<linearGradient id="SVGID_3_" gradientUnits="userSpaceOnUse" x1="1196.3606" y1="681.6121" x2="1196.3606" y2="810.1125" gradientTransform="matrix(1 0 0 -1 0 2000)">
				<stop  offset="0" style="stop-color:#F8F9FB"/>
				<stop  offset="1" style="stop-color:#A0BDE5"/>
			</linearGradient>
			<path class="st15" d="M804.6,1312.8h756c15.3,0,27.6-12.3,27.6-27.6v-17H804.6V1312.8z"/>
			
				<linearGradient id="SVGID_4_" gradientUnits="userSpaceOnUse" x1="794.9743" y1="1042.3131" x2="763.0742" y2="1192.3528" gradientTransform="matrix(1 0 0 -1 0 2000)">
				<stop  offset="0" style="stop-color:#2A4A93"/>
				<stop  offset="1" style="stop-color:#22395E"/>
			</linearGradient>
			<path class="st16" d="M986.2,895.5c-7.3-8.7-16.2-15.9-24-24.1c-3.8-4-6-6.7-8.8-11.4c-0.5-0.8-1-1.7-1.4-2.5
				c0.1,0.2-1.2-2.6-1.2-2.6c-0.4-1.2-0.8-2.4-1.1-3.7c-0.1-0.3-0.5-2.7-0.6-2.7c-1.2-10.5,5.3-22.5,6.4-34c0.1-1.2,0.2-2.5,0.2-3.8
				c5.3-6.5,9.9-13.2,11.9-20.9c3.3-12,0.9-25.4-6.3-35.5c-7.1-10-18-16.1-28.4-22.2c-12.1-7-25.3-15.6-28.1-30.4
				c-0.8-4.5-7.7-2.6-6.9,1.9c4.8,26.1,34.1,32.3,51.2,47.9c9.8,8.8,14.7,22,11.7,35c-1.1,5-3.4,9.6-6.1,13.7
				c-2.8-18.4-14.1-35.3-26.4-48.9c-8-8.8-16.8-16.9-24.8-25.7c-3.3-3.6-6-6.7-8.5-10.5c-2.8-4.2-6.2-10.1-7.5-13.5
				c-0.8-2.2-1.6-4.6-2.1-6.8c-0.3-1.4-0.6-2.7-0.9-4.2c-0.1-0.5-0.2-0.9-0.2-1.1s0-0.6,0-1.1c-0.1-5.8-0.1-7.6,1.7-13.2
				c2.1-6.6-2.5-14.1-9-15.9c-2.6-0.7-5.3-0.6-7.6,0.3c-26.2-26.7-66.2-34.7-102.8-27c-44.8,9.4-81.9,40.7-114.8,70.8
				c-35,32.1-67.3,69.5-81.2,115.9c-12.9,43.2-7,90.8,23.5,125.3c14,15.8,33.2,27.5,54.1,31.3c26.4,4.9,51.5-1,77.7-4.5
				c-0.8,0.1,1.2-0.1,1.3-0.1c1.5-0.1,2.9-0.2,4.5-0.2c-0.1,0,2.2,0.2,2.7,0.2c0.6,0.2,1.6,0.4,2,0.5c0.3,0.2,0.8,0.5,1.3,0.7
				c0.3,0.3,0.9,0.8,1.3,1.2c0.2,0.2,0.4,0.5,0.5,0.7c0.5,0.8,1,1.7,1.4,2.5c0,0.2,0.8,1.9,0.9,2.1c0.3,0.7,0.5,1.5,0.7,2.2
				c0.7,2.3,1.3,4.7,2,7c1.4,5,2.9,9.9,5.2,14.5c8.8,19,29.2,28.6,48.6,33.1c11.2,2.6,22.7,4.1,34.1,5.5c12.8,1.7,25.8,2.9,38.7,3.2
				c24.5,0.4,48.9-3.3,71.5-13c19.8-8.6,37.8-22.7,49-41.4c11.4-19,15.8-42.5,10.7-64.2C999.5,914.6,993.7,904.6,986.2,895.5z
				 M738.8,973.5C738.1,972.8,738.4,973.1,738.8,973.5L738.8,973.5z M772.2,990.6C771.5,989.3,772,990.1,772.2,990.6L772.2,990.6z"
				/>
			
				<linearGradient id="SVGID_5_" gradientUnits="userSpaceOnUse" x1="879.8218" y1="1477.3568" x2="879.1974" y2="1478.4542" gradientTransform="matrix(1 0 0 -1 0 2000)">
				<stop  offset="0" style="stop-color:#2A4A93"/>
				<stop  offset="1" style="stop-color:#22395E"/>
			</linearGradient>
			<path class="st17" d="M879.6,522.3c0.4,0.2,0.8,0.4,1.2,0.6h0.1C878,521.6,877.6,521.4,879.6,522.3z"/>
			
				<linearGradient id="SVGID_6_" gradientUnits="userSpaceOnUse" x1="898.0196" y1="1466.7208" x2="897.3171" y2="1467.9554" gradientTransform="matrix(1 0 0 -1 0 2000)">
				<stop  offset="0" style="stop-color:#2A4A93"/>
				<stop  offset="1" style="stop-color:#22395E"/>
			</linearGradient>
			<path class="st18" d="M897.8,533c0.3,0.3,0.6,0.5,0.9,0.8c0.1,0,0.1,0,0.2,0C896.4,531.9,896.1,531.6,897.8,533z"/>
			
				<linearGradient id="SVGID_7_" gradientUnits="userSpaceOnUse" x1="922.3318" y1="1373.7134" x2="921.9069" y2="1374.4603" gradientTransform="matrix(1 0 0 -1 0 2000)">
				<stop  offset="0" style="stop-color:#2A4A93"/>
				<stop  offset="1" style="stop-color:#22395E"/>
			</linearGradient>
			<path class="st19" d="M922.7,624.9c-0.2,0.4-0.4,0.9-0.6,1.3C921.4,627.9,921.6,627.5,922.7,624.9z"/>
			
				<linearGradient id="SVGID_8_" gradientUnits="userSpaceOnUse" x1="933.8849" y1="1404.8759" x2="879.9759" y2="1499.6086" gradientTransform="matrix(1 0 0 -1 0 2000)">
				<stop  offset="0" style="stop-color:#2A4A93"/>
				<stop  offset="1" style="stop-color:#22395E"/>
			</linearGradient>
			<path class="st20" d="M928.9,504.6c-12.5-10.7-26.2-18.6-41.8-24c-10.4-3.6-23.4,4.1-25.7,14.6c-2.6,11.7,3.6,21.9,14.6,25.7
				c0.8,0.3,4,1.9,4.9,1.8c-0.4-0.2-0.8-0.4-1.2-0.6c-2-0.9-1.6-0.7,1.3,0.5h-0.1c0.4,0.2,0.8,0.3,1.1,0.5c3.2,1.5,6.3,3.3,9.3,5.1
				c1,0.6,6.1,5,7.4,5.2c-0.3-0.3-0.6-0.5-0.9-0.8c-1.7-1.4-1.3-1.1,1.1,0.8c0,0-0.1,0-0.2,0c0.4,0.3,0.7,0.6,1.1,0.9
				c1.3,1.1,2.6,2.3,3.9,3.6c2.5,2.4,5,5,7.2,7.7c0.8,1,1.6,2,2.5,3.1c-4.1-4.7-0.2-0.1,0.6,1.1c2,2.9,3.9,5.9,5.5,9
				c0.8,1.5,1.6,3.2,2.3,4.7c0.1,0.3,0.3,0.6,0.4,0.9c-0.1-0.1-0.1-0.3-0.2-0.4c-0.6-1.5-0.3-0.8,0.8,1.9c-0.2-0.5-0.4-1-0.7-1.5
				c1.1,3.2,2.3,6.3,3.2,9.6c0.5,1.8,0.9,3.8,1.3,5.6c0.3,1.3,1.4,4.5,1,5.7c-0.4-3.2-0.5-3.6-0.2-1.2c0.1,0.9,0.2,1.9,0.3,2.8
				c0.1,1.4,0.2,2.8,0.2,4.4c0.1,3.9,0,7.7-0.3,11.6c-0.1,0.9-0.2,1.9-0.3,2.8c-0.3,2.3-0.2,1.9,0.2-1.2c0.5,0.9-0.8,4.7-1,5.7
				c-0.7,3.4-1.5,6.6-2.6,9.8c-0.6,1.8-1.3,3.7-1.9,5.5c-0.1,0.1-0.1,0.2-0.1,0.4c0.2-0.4,0.4-0.9,0.6-1.3c-1.1,2.5-1.3,3.1-0.6,1.3
				c-0.2,0.4-0.4,0.9-0.6,1.3c-1.6,3.5-3.6,6.9-5.6,10.2c-5.8,9.4-2.3,23.5,7.5,28.7c10.3,5.4,22.5,2.4,28.7-7.5
				C982.5,609.6,973.1,542.4,928.9,504.6z"/>
			
				<linearGradient id="SVGID_9_" gradientUnits="userSpaceOnUse" x1="922.749" y1="1434.7083" x2="921.9439" y2="1436.1233" gradientTransform="matrix(1 0 0 -1 0 2000)">
				<stop  offset="0" style="stop-color:#2A4A93"/>
				<stop  offset="1" style="stop-color:#22395E"/>
			</linearGradient>
			<path class="st21" d="M922.2,564.3c0.1,0.1,0.1,0.3,0.2,0.4c0.2,0.5,0.5,1,0.7,1.5C921.9,563.5,921.6,562.9,922.2,564.3z"/>
			
				<linearGradient id="SVGID_10_" gradientUnits="userSpaceOnUse" x1="850.9856" y1="1057.0128" x2="896.28" y2="1154.4789" gradientTransform="matrix(1 0 0 -1 0 2000)">
				<stop  offset="0" style="stop-color:#F47D7D"/>
				<stop  offset="1" style="stop-color:#E56767"/>
			</linearGradient>
			<path class="st22" d="M792.4,869.4c-19.2-17.8,0-90.5,0-90.5l5-54.2l-80.1-31.6c0,0,1.8,157.2-146,215.4
				c-152,60-108.8,350.4-108.8,350.4l577.1,9.4c0,0,0-262.6-78.1-344C925.6,886.8,811.6,887.2,792.4,869.4z"/>
			
				<linearGradient id="SVGID_11_" gradientUnits="userSpaceOnUse" x1="844.4865" y1="1287.6104" x2="766.3703" y2="1411.218" gradientTransform="matrix(1 0 0 -1 0 2000)">
				<stop  offset="0" style="stop-color:#F47D7D"/>
				<stop  offset="1" style="stop-color:#E56767"/>
			</linearGradient>
			<path class="st23" d="M876.2,476.8c-216.1-28.1-224,134.9-215.6,225.6c8.3,90.6,127.4,137.1,176.4,142.4
				c37.2,4.1,54.9-41.5,68.6-100.3l14.6-70.6c3.1-15.3,6.3-30.5,9.8-45.1C953.5,529.5,876.2,476.8,876.2,476.8z"/>
			
				<linearGradient id="SVGID_12_" gradientUnits="userSpaceOnUse" x1="726.136" y1="886.9677" x2="795.1524" y2="739.526" gradientTransform="matrix(1 0 0 -1 0 2000)">
				<stop  offset="0" style="stop-color:#F8F9FB"/>
				<stop  offset="1" style="stop-color:#A0BDE5"/>
			</linearGradient>
			<path class="st24" d="M951.5,915.4c-30.6-23.4-89-31.5-128.3-37.9c0-0.1,0.1-0.2,0.1-0.4c1.4-6.9-0.6-13.9-5.9-18.7
				c-10.3-9-24.4-6.1-34.2,1.8c-2.1,1.7-4.1,3.7-6.1,5.5c-0.8,0.8-1.6,1.6-2.5,2.3c0,0,0,0-0.1,0c-0.2,0.1-0.6,0.4-1.2,0.8
				c-0.6,0.4-1.2,0.7-1.7,0.9c-0.2-0.3-0.4-0.7-0.5-1c-2.5-4.9-5-9.7-10.1-12.5c-5.6-3.3-12.3-3.2-18.1-0.3
				c-3.4,1.6-6.2,4.2-8.8,6.8c-0.9,0.9-1.8,1.9-2.7,2.8c-2.5-4.1-5.2-7.9-9.6-10.4c-10.4-5.8-20-0.5-29.1,4.9
				c-0.3,0.2-0.6,0.3-0.8,0.5c-0.4-1.4-0.8-2.8-1.2-4.3c-1.9-6.3-5.2-12.5-11-16.1c-6.1-3.7-13.6-4.3-20.4-2.2
				c-14.8,4.5-20.7,18.7-23.7,32.6c-17.4,14.7-38.5,27.9-64.2,37.9c-152,60-108.8,350.4-108.8,350.4l577.1,9.4
				C1039.5,1268.2,1039.5,982.6,951.5,915.4z"/>
			
				<linearGradient id="SVGID_13_" gradientUnits="userSpaceOnUse" x1="938.4352" y1="929.7461" x2="916.7844" y2="821.6434" gradientTransform="matrix(1 0 0 -1 0 2000)">
				<stop  offset="0" style="stop-color:#3576EE"/>
				<stop  offset="1" style="stop-color:#296BCC"/>
			</linearGradient>
			<path class="st25" d="M951.5,915.4c-27.5-21-77.2-29.7-115.6-35.9c10.4,46.6,16.8,90.8,20.4,138c3.9,49.3,4.3,98.8,1.8,148.1
				c-1.2,24.7-3.2,49.4-5.8,74c-0.9,8.9-2,17.4-3.2,25.6l190.3,3.1C1039.5,1268.2,1039.5,982.6,951.5,915.4z"/>
			
				<linearGradient id="SVGID_14_" gradientUnits="userSpaceOnUse" x1="598.1373" y1="862.7281" x2="706.0784" y2="729.1418" gradientTransform="matrix(1 0 0 -1 0 2000)">
				<stop  offset="0" style="stop-color:#3576EE"/>
				<stop  offset="1" style="stop-color:#296BCC"/>
			</linearGradient>
			<path class="st26" d="M722.7,1041.5c-28.2-47.2-60.3-91.8-87-139.8c-4.1-7.3-7.9-14.6-11.7-22.1c-15,11.1-32.5,20.9-52.8,29
				c-152,60-108.8,350.4-108.8,350.4l326.5,5.3c2-23.9,0.3-47.8-4-71.4C775.1,1138.8,750.7,1088.3,722.7,1041.5z"/>
			<path class="st27" d="M1176.6,990.5c-28.5,17.8-48.1,48.1-76.6,85.5c-28.5,37.4-290.3,176.3-290.3,176.3l-169.2-242.2
				l-119.3,138.8c0,0,219,254.7,267.1,256.4c48.1,1.8,359.7-270.6,359.7-270.6c147.8-33.9,140.7-144.3,140.7-144.3
				S1205.2,972.6,1176.6,990.5z"/>
			<path class="st12" d="M885.8,1210.9c-43.4,24-75.9,41.3-75.9,41.3l-179.2-209.8l-85.2,107.5c0,0,195,253.8,243.1,255.5
				c19.6,0.7,83-44.1,151.2-97.5C900.2,1272.3,889,1232.8,885.8,1210.9z"/>
			<path class="st28" d="M839.9,1236c-18.5,10.1-30.1,16.2-30.1,16.2L640.6,1010l-119.3,138.9c0,0,219,254.7,267.1,256.4
				c15.9,0.6,60.7-28.9,113.4-68.4C868,1312.5,847.9,1260.5,839.9,1236z"/>
			
				<linearGradient id="SVGID_15_" gradientUnits="userSpaceOnUse" x1="1387.0455" y1="903.4306" x2="1404.1492" y2="443.8114" gradientTransform="matrix(1 0 0 -1 0 2000)">
				<stop  offset="0" style="stop-color:#F8F9FB"/>
				<stop  offset="1" style="stop-color:#A0BDE5"/>
			</linearGradient>
			<path class="st29" d="M1692,864.5l-476.3-0.5c-20.5,0-38.5,13.5-44.3,33.1l-108.7,371.2h526.1l120.1-380.5
				C1712.6,876.2,1704,864.5,1692,864.5z"/>
			
				<linearGradient id="SVGID_16_" gradientUnits="userSpaceOnUse" x1="658.3167" y1="1272.0034" x2="718.4112" y2="1599.7584" gradientTransform="matrix(1 0 0 -1 0 2000)">
				<stop  offset="0" style="stop-color:#2A4A93"/>
				<stop  offset="1" style="stop-color:#22395E"/>
			</linearGradient>
			<path class="st30" d="M905.4,502.3c0-2-1.5-3.2-3.1-3.4c-1-3.1-2.7-6-5.2-8.6C852,440.6,777.5,425.2,714,442.1
				c-65.1,17.3-117.8,68.4-147.5,127.6c-7.8,15.6-14.2,31.9-19.6,48.5c-5.2,16.2-9.9,32.5-15.9,48.4c-0.6,1.6-1.3,3.3-1.9,4.9
				c-0.3,0.7-0.7,1.5-1,2.2c-1.4,3.3-3.1,6.4-4.7,9.5c-12.3,10.8-27,19.5-39.3,29.4c-11.3,8.9-21.7,19.6-27.7,32.8
				c-6.2,13.6-6.4,28-1.4,42c4.9,13.7,12.1,26.7,19.1,39.7c-20.8,28.6-52.4,51-63.2,85.8C396,960,431.4,1013.2,479,1022.2
				c2.5,0.5,5.1,0.8,7.6,1c19.2,11.3,41.8,17.6,63.2,21.5c8.2,1.5,16.5,2.7,24.8,3.9c1.6,0.2,3.3,0.4,4.8,0.5
				c12.1,1.9,24.3,2,36.4,0.5c12.8,1.1,26.1-1.3,37.7-6.5c26.7-12,40.2-41.2,43.4-68.6c3.6-30.1-8.4-60-21.5-86.4
				c-3.1-6.1-6.1-12.1-8.9-18.2c-1.1-2.4-2.2-4.8-3.3-7.2c-0.2-0.6-0.6-1.3-0.8-1.9c-0.8-1.9-1.5-3.9-2.2-5.8
				c-2-5.7-3.5-11.5-4.7-17.5c0-0.5-0.2-1.1-0.2-1.5c0-0.3,0-0.7-0.1-1c4.8-9.2,14-16.5,22.8-21.5c14.2-8.1,29.1-14.5,42.1-24.6
				c11.8-9.2,22-20.5,27.3-34.7c6.6-17.5,3.7-36.5,0-54.3c-1.2-5.9-2.5-11.8-3.6-17.8c-0.2-2-0.4-4.1-0.5-6.1
				c-0.2-3.3-0.3-6.5-0.3-9.8c0-1.5,0.1-2.9,0.2-4.5c0-0.2,0-0.4,0.1-0.7l0,0c0.5-2.7,1.3-5.4,2.2-8l0,0c0.7-1.3,1.4-2.6,2.1-4
				c0.6-1.1,1.3-2.1,2.1-3.3c0.1-0.1,0.1-0.2,0.2-0.3c1.8-2,3.7-4.1,5.7-6c0.9-0.9,1.9-1.7,2.9-2.6c0.1-0.1,0.3-0.2,0.5-0.4
				c0.6-0.4,2.4-1.8,2.9-2.1c1.3-0.9,2.6-1.7,4-2.5c2.2-1.4,4.6-2.7,7-4c1.4-0.7,2.7-1.4,4.2-2c0.5-0.2,2-0.9,2.8-1.3
				c0.7-0.3,1.3-0.5,1.6-0.6c1.5-0.6,3.1-1.1,4.6-1.7c3.6-1.3,7.1-2.4,10.7-3.7c3.3-1,6.4-2,9.7-3.1c2.6,0,5.4,0,8-0.1
				c14-0.5,28.7-1.7,42.2-5.7c12.3-3.7,23.8-10.1,31.9-20.1c7.9-9.8,12.8-21.7,15.1-33.9c3.2-15.9,2.4-32.1,1.4-48.2
				C905.4,505.6,905.5,504,905.4,502.3z M427,977.1c-12.3-19.8-16.2-43.8-8.1-66c5.7-15.8,16-29.1,27-41.6
				c-5.7,10-9.8,20.8-11.8,32.1c-6.3,34.4,1.5,68.9,23.3,96.5c4.4,5.5,9.3,10.4,14.5,14.7C453.4,1006.9,437.2,993.6,427,977.1z
				 M511.3,701.5c-10,11.5-22.4,20.6-32.1,32.4c-6.6,7.9-11.8,15.8-15.3,25.5c-2.7,7.7-3.5,15.8-2.6,23.8
				c-3.8-12.1-3.7-24.4,2.2-36.3c10.3-20.7,30-32.9,48.4-46.1C511.6,701,511.5,701.3,511.3,701.5z M744.2,723.5
				c0.6,8.2,0.2,16.6-2.2,24.7c-4.7,15.8-16.6,28.2-29.7,37.5c-13.6,9.8-29.5,15.7-43.4,24.8c-4.3,2.8-8.4,6.3-12,10.2
				c0.3-0.9,0.6-1.9,0.9-2.8c0.5-1,1-2,1.6-3.1s1.2-2,1.9-3.1c0.2-0.2,0.5-0.7,0.8-1.1c0.1-0.1,0.1-0.1,0.1-0.2
				c0.8-0.9,1.6-1.8,2.4-2.7c3.1-3.2,6.3-6,9.7-8.8c0.8-0.6,1.7-1.2,2.5-1.8c1.9-1.4,3.9-2.7,5.9-4.1c18.1-12.3,36.5-23.6,49.6-41.5
				C738.6,743,742.2,733.5,744.2,723.5z M871.9,595.1c-12.1,7.8-26.7,10.6-41,11.9c2.5-0.9,5-1.9,7.4-2.9
				c26.3-11.1,49.2-29.9,59.2-57.3c0.2-0.7,0.5-1.3,0.7-2C896.2,564.6,889.7,583.6,871.9,595.1z"/>
			
				<ellipse transform="matrix(0.7295 -0.684 0.684 0.7295 -352.3617 1238.6738)" class="st11" cx="1389.8" cy="1064.8" rx="34.2" ry="25"/>
			<path class="st31" d="M1414.8,1058.3c-5.5,16.4-22.8,29.3-38.5,28.8c-6.9-0.2-12.4-3.1-16-7.4c2.2,8.5,9.3,14.4,19.5,14.7
				c15.8,0.5,33-12.4,38.5-28.8c3.1-9.2,1.8-17.5-2.6-23.1C1416.9,1047.1,1416.7,1052.5,1414.8,1058.3z"/>
			<g>
				<g>
					
						<linearGradient id="SVGID_17_" gradientUnits="userSpaceOnUse" x1="394.041" y1="1085.0256" x2="376.1286" y2="961.6813" gradientTransform="matrix(1 0 0 -1 0 2000)">
						<stop  offset="0" style="stop-color:#3576EE"/>
						<stop  offset="1" style="stop-color:#F77FA4"/>
					</linearGradient>
					<path class="st32" d="M429.3,1024.2c-3.2-6-6.6-11.7-9.5-17.8c-2.9-6.3-4.8-12.9-5.4-19.8c-1.2-13.2-0.5-26.3-4-39.2
						c-2.8-10.8-7.6-21.1-13.9-30.3c-14.2-20.7-35.9-36.4-60.6-41.8c-3.4-0.7-5.8,3.2-3.4,5.7c25.5,26.6,25.2,67,18.8,100.9
						c-4,20.7-10,41-13.9,61.7c-3.9,20.4-5.2,41.2-3.8,61.9c1.5,21.9,6.1,43.5,13.5,64.1c-0.5,1.3,0.2,3.1,1.5,4
						c1.5,3.6,7.1,2.3,6.7-1.1c21.8-10.3,42.4-23.9,58.1-42.4c16.3-19.3,26.5-44.1,25.6-69.6
						C438.7,1047.5,435.1,1035.5,429.3,1024.2z"/>
					<path class="st12" d="M414.1,1048.7c-3.5,5.3-7.2,10.3-11.5,14.8c0.7-9,0.4-18.2-0.9-27.2c-1.6-11.2-5.4-21.5-9.3-31.8
						c6.9-12.5,11.1-26.1,12.4-40.5c0.5-5.4-7.8-5.3-8.3,0c-0.9,10.3-3.7,20.3-7.9,29.7c-3.5-11.1-4.4-22.2-5-33.9
						c-0.7-13.6-1.9-27.5-9.4-39.2c-2.8-4.6-10.1-0.3-7.2,4.2c6.4,10.2,7.5,22,8.1,33.8c0,0.5,0.1,1,0.1,1.4
						c-2.1-1.3-4.4-2.6-6.5-3.9c-4.6-2.7-8.8,4.5-4.2,7.2c3.7,2.2,7.4,4.5,11.1,6.7c0.1,0,0.1,0.1,0.2,0.1c0.6,8.1,1.5,16.2,4,23.9
						c3.8,12,9.5,23.3,12.3,35.7c0.1,0.4,0.2,0.8,0.3,1.3c-5.2-2.6-9.7-6.4-13-11.2c-3.2-4.4-10.4-0.2-7.2,4.2
						c5.6,7.7,12.8,13.3,21.8,16.7h0.1c1,8.5,1.1,17.2,0.2,25.8c-1.4,14-5.6,27.8-12,40.4c-2.4,4.8,4.8,8.9,7.2,4.2
						c5.6-10.8,9.5-22.4,11.6-34.3c0.5-0.2,1.1-0.5,1.6-1c7.1-6.8,13.4-14.4,18.8-22.8C424.2,1048.3,417,1044.2,414.1,1048.7z"/>
				</g>
				<g>
					
						<linearGradient id="SVGID_18_" gradientUnits="userSpaceOnUse" x1="266.7787" y1="1190.0947" x2="266.7787" y2="776.6035" gradientTransform="matrix(1 0 0 -1 0 2000)">
						<stop  offset="0" style="stop-color:#3576EE"/>
						<stop  offset="1" style="stop-color:#F77FA4"/>
					</linearGradient>
					<path class="st33" d="M370.5,1036.4c-6.9-12.5-16.6-22.6-28.2-30.7c-12.6-8.9-26.5-16-36.9-27.7
						c-10.1-11.3-16.5-25.8-18.2-40.9c-2-17.4,1-34.8,2.2-52.1c1.9-27.1-2.9-62.6-31.3-74.8c-3.5-1.4-6.5,0.9-6,4.6
						c2.8,19.1-6.7,38-18.9,52.1c-13.1,15-29.6,26.4-44.6,39.2c-13.9,11.8-27.1,25.4-34.6,42.4c-7.5,17.4-7.5,36.8-1.1,54.5
						c6.3,17.5,18.1,32.4,32.6,43.9c7.4,5.8,15.3,10.9,23.6,15.1c7.8,4.1,16.1,7.3,24.2,11c7.7,3.5,15.6,7.4,22,13.1
						c6.8,6.1,11.3,13.8,13.7,22.7c4.9,17.1,3.4,35.2,6.9,52.5c3.4,16.3,11.4,32.1,27.3,39c18.2,7.8,38,2.5,55.2-5.3
						c1.5-0.7,3.2-1.4,4.7-2.2c-1.7,8.8-3.2,17.7-4.3,26.6c-0.6,5.2,7.5,5.1,8.1,0c1.2-10.3,3.1-20.6,5.1-31.1
						c0.1-0.1,0.2-0.1,0.3-0.2c2.6-1.3,2.4-4.3,0.9-6C383.2,1133.1,395.9,1082.3,370.5,1036.4z"/>
					<path class="st12" d="M345,1068.5c-2.1,10.4-4.9,20.5-8.3,30.5c-0.1-0.5-0.2-1-0.2-1.5c-2.1-13.2-4.6-26.6-9.5-39.1
						c-4.6-11.8-11.3-22.5-21.2-30.4c-0.9-0.7-1.8-1.4-2.8-2.1c2.9-9.3,3.6-18.8,2.2-28.5c-0.9-6.4-10.6-3.7-9.7,2.6
						c0.9,6.8,0.4,13.5-1.3,20c-6.8-4.1-13.9-7.5-20.9-11.2c-9.7-5-19.5-10.6-26.8-18.7c12.6-9.6,20.2-24.5,20.2-40.6
						c0-6.4-10.1-6.4-10.1,0c0,12.7-5.9,24.8-16,32.4c-4.9-9.4-5.4-20-2.7-30.5c7.3-29.2,31.6-51.1,34-82c0.5-6.4-9.6-6.4-10.1,0
						c-1.7,23.4-17.9,42.3-27.7,63.1c-4-7.1-5.7-15.3-4.5-23.4c1-6.3-8.6-9-9.7-2.6c-1.9,12.1,0.5,24.3,7.5,34.5
						c0.7,0.9,1.5,1.5,2.3,1.9c-4,11.9-5.5,25.1-1.2,37c1.7,5,4.4,9.4,7.5,13.4c-12.8,3.7-25.5-2.1-31.2-14.5
						c-2.6-5.9-11.3-0.8-8.6,5.1c7.7,17,27.9,25.1,45.2,18.2c0.7-0.3,1.3-0.7,1.7-1.1c2.2,2,4.6,4,7,5.8
						c16.3,11.9,37.4,17.8,52.2,31.6c-14,10.9-33.2,11.4-48.3,1.9c-5.5-3.5-10.5,5.2-5.1,8.6c18.9,11.9,42.6,10.3,60-3.2
						c0.7,1,1.4,2,2.1,3.1c6.7,10.6,10.1,22.9,12.6,35c2,9.9,3.7,19.8,4.9,29.9c-10.8-0.8-20.4-5.8-27.7-13.7
						c-4.4-4.8-11.4,2.3-7.1,7.1c9.2,10.1,21.7,15.8,35.1,16.7c0.2,0,0.5,0,0.7,0c0.1,1.4,0.2,2.8,0.3,4.3c2.4,33.3,0.1,66.9-7,99.5
						c-1.3,6.3,8.3,8.9,9.7,2.6c6.3-29.1,9.2-58.9,8-88.7c-0.3-7.4-0.7-14.8-1.5-22.3c6.8-15.6,12-31.6,15.5-48.3
						C356,1064.8,346.4,1062.1,345,1068.5z"/>
				</g>
				<g>
					
						<linearGradient id="SVGID_19_" gradientUnits="userSpaceOnUse" x1="472.6696" y1="1157.7577" x2="442.5662" y2="959.9923" gradientTransform="matrix(1 0 0 -1 0 2000)">
						<stop  offset="0" style="stop-color:#3576EE"/>
						<stop  offset="1" style="stop-color:#F77FA4"/>
					</linearGradient>
					<path class="st34" d="M525.6,1015.4c-2.4-10.3-2.8-20.7-1.5-31.3c2.7-20.6,10.5-40.3,12.9-61c2.1-18.4-0.8-36-10-52.2
						c-13.4-23.5-35.4-40.6-52.5-61.3c-3.2-9.6-8.6-18.4-16.8-25.4c-4-3.5-9,1-6.9,5.5c4.2,8.8,9.7,16.7,15.7,24.1
						c5,16.1,3.1,34.7-2.3,50.4c-11.1,32.1-34.2,58.6-44.9,90.9c-4.9,14.6-7.1,30.3-4.4,45.6c2.6,14.5,11,27,14.6,41.2
						c9.2,35.3-30.6,54.3-52.9,72.5c-27.5,22.5-49.3,51.5-63.4,84.1c-0.4,1-0.5,2-0.3,2.9c-1.4,1.4-2.7,2.8-4.1,4.5
						c-3.5,4.5,2.8,10.7,6.4,6.2c13.1-16.8,35.6-18.3,55.2-19.7c4.2-0.3,8.3-0.6,12.6-1.1c10.9,2.4,22,3.1,33.1-0.1
						c9.7-2.6,17.6-8.2,24.2-15.8c6.4-7.3,11.7-16.1,19.7-21.9c13.2-9.7,30.5-11.1,45.8-16c16.9-5.4,30.4-15.9,35.5-33.4
						c5.8-19.7,0.4-40.4-6.1-59.2C531.7,1035.4,528,1025.7,525.6,1015.4z"/>
					<path class="st12" d="M499.5,935.9c-2.9,9.7-8.5,18.2-16.3,24.5c1.6-5.5,3.5-10.9,5.3-16.3c8.4-24.9,17.3-52.3,7.6-78.2
						c-2.2-6-11.9-3.4-9.7,2.6c4.3,11.6,4.6,23.5,2.7,35.3c-2-3.9-3.1-8.1-2.9-12.8c0.1-6.4-9.9-6.4-10.1,0
						c-0.2,9.7,3.5,19,10.3,25.8c-2,7.8-4.6,15.6-7.1,23.1c-3.9,11.5-7.8,23.1-9.9,35.1c-1.4,8.6-1.7,17.4-1.4,26.1
						c-8.3-6.7-13.9-16.4-14.9-27.2c-0.6-6.4-10.7-6.4-10.1,0c1.6,16.7,11.1,31.7,25.8,39.9c1.5,16.8,4.2,34.6,1.5,51.4
						c-0.8,1.1-1,2.4-0.7,3.8c-0.9,4.5-2.2,8.9-4.2,13.2c-5.9,13.5-17,21.4-29.1,28c0.7-6.8,1.8-13.5,3.5-20.2
						c1.5-6.3-8.1-8.9-9.7-2.6c-2.2,9.4-3.7,18.9-4.3,28.5c-3.7,1.9-7.2,3.9-10.7,5.9c-10.2,6.1-20,14-25.1,25
						c-4.9,10.6-5.6,23.2,0.8,33.3c3.5,5.4,12.1,0.4,8.6-5.1c-5.4-8.5-3.7-19,1.4-27.2c14.7,1.4,29.5-0.8,43.1-6.5
						c2.5-1,4.3-3.3,3.5-6.2c-0.6-2.3-3.7-4.6-6.2-3.5c-10.4,4.4-21.1,6.5-32.1,6.6c5.3-4.6,11.6-8.1,17.6-11.4
						c9.9-5.3,20.1-10,29.1-16.9c8.5-6.6,14.9-14.8,19.1-24.8c1.9-4.6,3.3-9.3,4.2-13.9c13.1-8.7,21.2-23.3,22.1-39.1
						c0.3-6.4-9.8-6.4-10.1,0c-0.4,9.3-4.2,17.8-10.3,24.5c0.6-12.8-0.7-25.9-1.9-38.6s-2.2-25.7-0.3-38.4c0.3-1.9,0.6-3.8,1-5.7
						c1,0.2,2.1,0,3.3-0.7c12.5-7.9,21.7-20,26-34.3C511.1,932.4,501.4,929.8,499.5,935.9z"/>
				</g>
				
					<linearGradient id="SVGID_20_" gradientUnits="userSpaceOnUse" x1="371.4004" y1="774.9516" x2="371.4004" y2="530.6407" gradientTransform="matrix(1 0 0 -1 0 2000)">
					<stop  offset="0" style="stop-color:#6ED1CE"/>
					<stop  offset="1" style="stop-color:#45A1D0"/>
				</linearGradient>
				<path class="st35" d="M468.1,1172.3h-96.7h-96.7c-12.5,0-21.7,14-18.7,28.6l35.8,177.4c4.6,22.5,21.4,38.3,40.6,38.3h39h39.1
					c19.3,0,36.1-15.9,40.6-38.3l35.8-177.4C489.7,1186.3,480.6,1172.3,468.1,1172.3z"/>
			</g>
		</g>
		<path class="st11" d="M241.1,165.1l-8.2-3.9c0-3.2-0.5-6.4-1.4-9.6l6.8-6c1.3-1.1,1.6-3.1,0.7-4.6l-1.9-3.3l-1.9-3.3
			c-0.9-1.5-2.7-2.1-4.4-1.5l-8.5,3.2c-2.3-2.3-5-4.2-7.7-5.7l0.5-9c0.1-1.7-1-3.4-2.7-3.8l-3.7-0.9l-3.7-0.9
			c-1.7-0.4-3.5,0.4-4.2,2l-3.9,8.2c-3.2,0-6.4,0.5-9.6,1.4l-6-6.8c-1.1-1.3-3.1-1.6-4.6-0.7l-3.3,1.9l-3.3,1.9
			c-1.5,0.9-2.1,2.7-1.5,4.4l3.2,8.5c-2.3,2.3-4.2,5-5.7,7.7l-9-0.5c-1.7-0.1-3.4,1-3.8,2.7l-0.9,3.7l-0.9,3.7
			c-0.4,1.7,0.4,3.5,2,4.2l8.2,3.9c0,3.2,0.5,6.4,1.4,9.6l-6.8,6c-1.3,1.1-1.6,3.1-0.7,4.6l1.9,3.3l1.9,3.3c0.9,1.5,2.7,2.1,4.4,1.5
			l8.5-3.2c2.3,2.3,5,4.2,7.7,5.7l-0.5,9c-0.1,1.7,1,3.4,2.7,3.8l3.7,0.9l3.7,0.9c1.7,0.4,3.5-0.4,4.2-2l3.9-8.2
			c3.2,0,6.4-0.5,9.6-1.4l6,6.8c1.1,1.3,3.1,1.6,4.6,0.7l3.3-1.9l3.3-1.9c1.5-0.9,2.1-2.7,1.5-4.4l-3.2-8.5c2.3-2.3,4.2-5,5.7-7.7
			l9,0.5c1.7,0.1,3.4-1,3.8-2.7l0.9-3.7l0.9-3.7C243.6,167.7,242.7,165.9,241.1,165.1z M209.1,181.4c-10.9,6.5-24.9,2.9-31.4-7.8
			c-6.5-10.9-2.9-24.9,7.8-31.4c10.9-6.5,24.9-2.9,31.4,7.8C223.4,160.9,219.9,174.9,209.1,181.4z"/>
	</g>
</g>
</svg>
