<svg xmlns="http://www.w3.org/2000/svg" viewBox="0 0 1671.21 299.95"><defs><style>.cls-1{fill:#729f00;}</style></defs><title>mixcore-logo-green</title><g id="Layer_2" data-name="Layer 2"><g id="Layer_1-2" data-name="Layer 1"><path class="cls-1" d="M199.19,0V300L252.62,239V41.71Zm-38.9,237.62-41.72,26.24V36.09L160.29,53.9ZM47.34,227.31,83,214.65v-150l-35.62-7.5Z"/><polygon class="cls-1" points="252.62 28.12 240.43 18.75 299.95 18.75 299.95 276.52 282.14 276.52 282.14 267.14 282.14 28.12 252.62 28.12"/><polygon class="cls-1" points="185.59 267.14 185.59 276.52 0 276.52 0 18.75 17.81 18.75 17.81 28.12 17.81 267.14 185.59 267.14"/><path class="cls-1" d="M599.09,59.16q27.61,0,43.55,16.76t15.94,46.35V234H602.05V132.78q0-12.15-5.59-19.22T581,106.49a23.52,23.52,0,0,0-19.22,9.2q-7.39,9.21-7.4,24.32v94H497.86V132.78q0-12.15-5.59-19.22t-15.45-7.07q-12.15,0-19.39,9.2T450.2,140v94H393.67V64.42h53.24l1.65,21.36q16.76-26.61,47.66-26.62,35.49,0,50.28,28.92Q564.57,59.18,599.09,59.16Z"/><path class="cls-1" d="M751.26,42.73H694.73V0h56.53Zm0,191.28H694.73V64.42h56.53Z"/><path class="cls-1" d="M894.56,144.94,955,234H891l-26.3-48-28.26,48H772.62l61.79-88.74-53.9-80.85h62.78l22,40.43,23-40.43h61.46Z"/><path class="cls-1" d="M1049.37,240.26q-40.75,0-64.42-24.65-24-24.31-24-66.06,0-41.42,24-65.74,23.65-24.65,64.42-24.65,35.16,0,57.84,18.08t26.63,49l-55.22,1.64q-4.93-27.27-28.6-27.28-32.54,0-32.53,49,0,49.29,32.53,49.3,23.34,0,28.27-28.27l55.55,1.64q-4.62,31.56-27.12,49.8T1049.37,240.26Z"/><path class="cls-1" d="M1308.69,215q-25.32,25.32-65.74,25.31T1177.22,215q-25.32-25.3-25.31-65.4,0-39.77,25.31-65.08T1243,59.16q40.42,0,65.74,25.31T1334,149.55Q1334,189.65,1308.69,215ZM1217.32,186q8.87,12.81,25.63,12.82,16.44,0,26-12.82,8.86-12.5,8.87-36.48,0-23.67-9-36.32T1243,100.57q-16.76,0-25.63,12.66t-8.88,36.32Q1208.44,173.53,1217.32,186Z"/><path class="cls-1" d="M1458.56,58.5a57.33,57.33,0,0,1,16.1,2.3v50a80.76,80.76,0,0,0-12.49-1q-44.37,0-44.37,45.35V234h-56.53V64.42h53.58l.65,24.32Q1429,58.5,1458.56,58.5Z"/><path class="cls-1" d="M1671.21,155.79v8.55H1547.63q4.26,34.83,35.5,34.84,21.69,0,29.58-18.08l54.23,3.61q-8.88,26.63-30.41,41.09t-53.08,14.46q-42.72,0-67.37-25.31t-24.65-65.73q0-40.09,24.65-65.08,24-25,64.42-25,42.39,0,66.72,27.28Q1671.21,113.4,1671.21,155.79ZM1548,130.48h65.4q-3.94-31.21-32.21-31.22T1548,130.48Z"/></g></g></svg>