<svg id="Layer_1" data-name="Layer 1" xmlns="http://www.w3.org/2000/svg" viewBox="0 0 292.71 64"><defs><style>.cls-1{fill:#729f00;}</style></defs><title>mixcore-logo-green</title><path class="cls-1" d="M41.61,0V64L53,51V8.9ZM33.35,50.69l-8.86,5.57V7.74l8.86,3.78ZM9.26,48.54l7.64-2.65V13.82L9.29,12.19Z"/><path class="cls-1" d="M2,4V57H37.65v2H0V4ZM53.25,6,50.68,4H64V59H60.19V6Z"/><path class="cls-1" d="M115.43,16.11c3.53,0,6.29,1.05,8.28,3.17s3,5,3,8.85V49H117V29.81q0-5.41-4.8-5.42a5,5,0,0,0-4,1.75,7.61,7.61,0,0,0-1.5,5.1V49H96.93V29.81q0-5.41-4.8-5.42A5.23,5.23,0,0,0,88,26.14a7.61,7.61,0,0,0-1.5,5.1V49H76.8V16.85h9.47V21.4q3.56-5.29,9.16-5.29,7.23,0,10,5.79Q109.33,16.11,115.43,16.11Z"/><path class="cls-1" d="M141.82,13.18h-9.28V5h9.28ZM142,49h-9.72V16.85H142Z"/><path class="cls-1" d="M178.22,16.85,167.13,32.43,178.84,49h-11L167,47.82q-1-1.44-5.35-8.1-2.43,3.62-5.42,8.1L155.42,49H144.58l11.83-16.45L145.2,16.85h11.09l1.18,1.69c2.33,3.48,3.8,5.73,4.43,6.72q2.29-3.74,4.36-6.72l1.18-1.69Z"/><path class="cls-1" d="M212,24.11,208.94,26A13,13,0,0,0,198,20.71a12.7,12.7,0,0,0-9.22,3.57,11.63,11.63,0,0,0-3.64,8.65,12.32,12.32,0,0,0,1.67,6.24,11.9,11.9,0,0,0,4.62,4.53,14,14,0,0,0,17.5-3.7L212,42a14.63,14.63,0,0,1-5.84,5.07,18.7,18.7,0,0,1-8.32,1.78A16.47,16.47,0,0,1,186,44.31a14.85,14.85,0,0,1-4.73-11.1,15.9,15.9,0,0,1,2.2-8.15,15.61,15.61,0,0,1,6.1-5.91A17.73,17.73,0,0,1,198.17,17,18.37,18.37,0,0,1,204,18a16.08,16.08,0,0,1,4.76,2.39A13,13,0,0,1,212,24.11Z"/><path class="cls-1" d="M229.18,17a15,15,0,0,1,11.57,5.06A15.76,15.76,0,0,1,244.93,33a15.83,15.83,0,0,1-4.43,11.11,14.76,14.76,0,0,1-11.32,4.73,14.91,14.91,0,0,1-11.39-4.73A15.87,15.87,0,0,1,213.4,33a15.75,15.75,0,0,1,4.17-10.91A15,15,0,0,1,229.18,17Zm0,3.81a11.21,11.21,0,0,0-8.33,3.59,12,12,0,0,0-3.47,8.69A12.3,12.3,0,0,0,219,39.25a11.42,11.42,0,0,0,4.29,4.4,12.24,12.24,0,0,0,11.85,0,11.42,11.42,0,0,0,4.29-4.4A12.31,12.31,0,0,0,241,33.13a12,12,0,0,0-3.51-8.69A11.16,11.16,0,0,0,229.18,20.85Z"/><path class="cls-1" d="M248,17.82h4v4.42a13.76,13.76,0,0,1,3.76-3.89A7.38,7.38,0,0,1,259.87,17a7,7,0,0,1,3.45,1l-2,3.28a5.47,5.47,0,0,0-2.06-.53,5.61,5.61,0,0,0-3.76,1.62,10.08,10.08,0,0,0-2.75,4.95Q252,30,252,37.86V48.1h-4Z"/><path class="cls-1" d="M288.42,38.05l3.29,1.73A18.07,18.07,0,0,1,288,44.9a15.09,15.09,0,0,1-4.76,3,16.8,16.8,0,0,1-6,1q-7.39,0-11.58-4.84a16.48,16.48,0,0,1-4.17-11A16.19,16.19,0,0,1,265,22.77,14.43,14.43,0,0,1,277,17a14.93,14.93,0,0,1,12.36,5.87,16.44,16.44,0,0,1,3.34,10.36H265.49A12.37,12.37,0,0,0,268.86,42a10.76,10.76,0,0,0,8,3.37,12.72,12.72,0,0,0,4.48-.81,11.77,11.77,0,0,0,3.73-2.14A18.25,18.25,0,0,0,288.42,38.05Zm0-8.15a12.79,12.79,0,0,0-2.28-5,10.47,10.47,0,0,0-3.93-3,12,12,0,0,0-5.14-1.14,11.07,11.07,0,0,0-7.66,2.87,12.83,12.83,0,0,0-3.53,6.26Z"/></svg>