<svg xmlns="http://www.w3.org/2000/svg" viewBox="0 0 304.82 64"><defs><style>.cls-1{fill:#729f00;}</style></defs><title>Asset 1</title><g id="Layer_2" data-name="Layer 2"><g id="Layer_1-2" data-name="Layer 1"><path class="cls-1" d="M41.61,0V64L53,51V8.9ZM33.35,50.69l-8.86,5.57V7.74l8.86,3.78ZM9.26,48.54l7.64-2.65V13.82L9.29,12.19Z"/><path class="cls-1" d="M2,4V57H37.65v2H0V4ZM53.25,6,50.68,4H64V59H60.19V6Z"/><path class="cls-1" d="M115.43,16.11c3.53,0,6.29,1.05,8.28,3.17s3,5,3,8.85V49H117V29.81q0-5.41-4.8-5.42a5,5,0,0,0-4,1.75,7.61,7.61,0,0,0-1.5,5.1V49H96.93V29.81q0-5.41-4.8-5.42A5.23,5.23,0,0,0,88,26.14a7.61,7.61,0,0,0-1.5,5.1V49H76.8V16.85h9.47V21.4q3.56-5.29,9.16-5.29,7.23,0,10,5.79Q109.33,16.11,115.43,16.11Zm26.39-2.93h-9.28V5h9.28ZM142,49h-9.72V16.85H142Zm36.21-32.15L167.13,32.43,178.84,49h-11L167,47.82q-1-1.44-5.35-8.1-2.43,3.62-5.42,8.1L155.42,49H144.58l11.83-16.45L145.2,16.85h11.09l1.18,1.69c2.33,3.48,3.8,5.73,4.43,6.72q2.29-3.74,4.36-6.72l1.18-1.69Z"/><path class="cls-1" d="M213,24.11,209.94,26A13,13,0,0,0,199,20.71a12.7,12.7,0,0,0-9.22,3.57,11.63,11.63,0,0,0-3.64,8.65,12.32,12.32,0,0,0,1.67,6.24,11.9,11.9,0,0,0,4.62,4.53,14,14,0,0,0,17.5-3.7L213,42a14.63,14.63,0,0,1-5.84,5.07,18.7,18.7,0,0,1-8.32,1.78A16.47,16.47,0,0,1,187,44.31a14.85,14.85,0,0,1-4.73-11.1,15.9,15.9,0,0,1,2.2-8.15,15.68,15.68,0,0,1,6.1-5.91A17.73,17.73,0,0,1,199.17,17,18.37,18.37,0,0,1,205,18a16.08,16.08,0,0,1,4.76,2.39A13,13,0,0,1,213,24.11ZM234.88,17a15,15,0,0,1,11.58,5.06A15.81,15.81,0,0,1,250.63,33a15.82,15.82,0,0,1-4.42,11.11,16,16,0,0,1-22.71,0A15.88,15.88,0,0,1,219.1,33a15.75,15.75,0,0,1,4.17-10.91A15,15,0,0,1,234.88,17Zm0,3.81a11.19,11.19,0,0,0-8.32,3.59,12,12,0,0,0-3.48,8.69,12.31,12.31,0,0,0,1.59,6.12,11.32,11.32,0,0,0,4.28,4.4,12.26,12.26,0,0,0,11.86,0,11.42,11.42,0,0,0,4.29-4.4,12.4,12.4,0,0,0,1.58-6.12,12,12,0,0,0-3.5-8.69A11.2,11.2,0,0,0,234.88,20.85Zm21.54-3h4v4.42a13.76,13.76,0,0,1,3.76-3.89A7.38,7.38,0,0,1,268.28,17a7,7,0,0,1,3.45,1l-2,3.28a5.47,5.47,0,0,0-2.06-.53,5.61,5.61,0,0,0-3.76,1.62,10.08,10.08,0,0,0-2.75,4.95q-.74,2.59-.73,10.47V48.1h-4Zm44.12,20.23,3.28,1.73a18.07,18.07,0,0,1-3.73,5.12,15.09,15.09,0,0,1-4.76,3,16.74,16.74,0,0,1-6,1q-7.41,0-11.58-4.84a16.48,16.48,0,0,1-4.17-11,16.18,16.18,0,0,1,3.53-10.27,14.45,14.45,0,0,1,12-5.73,14.93,14.93,0,0,1,12.35,5.87,16.38,16.38,0,0,1,3.34,10.36H277.6A12.46,12.46,0,0,0,281,42a10.76,10.76,0,0,0,8,3.37,12.68,12.68,0,0,0,4.48-.81,11.77,11.77,0,0,0,3.73-2.14A18.25,18.25,0,0,0,300.54,38.05Zm0-8.15a12.66,12.66,0,0,0-2.29-5,10.51,10.51,0,0,0-3.92-3,12.05,12.05,0,0,0-5.15-1.14,11,11,0,0,0-7.65,2.87A12.92,12.92,0,0,0,278,29.9Z"/></g></g></svg>