<svg xmlns="http://www.w3.org/2000/svg" viewBox="0 0 278.03 64"><defs><style>.cls-1{fill:#729f00;}</style></defs><title>mixcore-logo-green</title><g id="Layer_2" data-name="Layer 2"><g id="Layer_1-2" data-name="Layer 1"><path class="cls-1" d="M78.55,16.85h6.87V20a11.65,11.65,0,0,1,3.91-2.89,11.33,11.33,0,0,1,4.69-1,8.8,8.8,0,0,1,4.63,1.25A9.14,9.14,0,0,1,102,21.07a10.79,10.79,0,0,1,9.21-4.92,9.68,9.68,0,0,1,5.13,1.35,7.92,7.92,0,0,1,3.18,3.55q1,2.19,1,7.11v16h-6.91V30.33c0-3.11-.39-5.2-1.16-6.3a4,4,0,0,0-3.47-1.65,5.26,5.26,0,0,0-3.15,1,5.86,5.86,0,0,0-2.08,2.77,17.38,17.38,0,0,0-.68,5.7V44.2H96.1V31a18.65,18.65,0,0,0-.54-5.31,4.78,4.78,0,0,0-1.63-2.45,4.24,4.24,0,0,0-2.62-.81,5.15,5.15,0,0,0-3.11,1,6.09,6.09,0,0,0-2.09,2.85A17.73,17.73,0,0,0,85.42,32V44.2H78.55Z"/><path class="cls-1" d="M129.67,5.59a4.16,4.16,0,0,1,3.1,1.31,4.32,4.32,0,0,1,1.29,3.16,4.29,4.29,0,0,1-1.28,3.13,4.12,4.12,0,0,1-3.06,1.3,4.2,4.2,0,0,1-3.12-1.32A4.42,4.42,0,0,1,125.31,10a4.23,4.23,0,0,1,1.28-3.09A4.21,4.21,0,0,1,129.67,5.59Zm-3.43,11.26h6.86V44.2h-6.86Z"/><path class="cls-1" d="M136.87,16.85h8l5.41,7.45,5.38-7.45h7.83l-9.28,12.87,10.5,14.48h-8l-6.51-9-6.47,9h-7.84l10.39-14.39Z"/><path class="cls-1" d="M195.17,22.53l-2.79,1.74a11.7,11.7,0,0,0-9.87-4.81,11.41,11.41,0,0,0-8.29,3.22,10.45,10.45,0,0,0-3.31,7.81,11.08,11.08,0,0,0,1.52,5.62,10.61,10.61,0,0,0,4.17,4.1,12.15,12.15,0,0,0,5.94,1.45,12,12,0,0,0,9.84-4.8l2.79,1.84a13.3,13.3,0,0,1-5.26,4.58,16.93,16.93,0,0,1-7.53,1.63,14.87,14.87,0,0,1-10.76-4.13,13.41,13.41,0,0,1-4.28-10,14.38,14.38,0,0,1,2-7.38,14.08,14.08,0,0,1,5.49-5.31,16,16,0,0,1,7.82-1.91,16.47,16.47,0,0,1,5.24.83,14.37,14.37,0,0,1,4.29,2.16A11.85,11.85,0,0,1,195.17,22.53Z"/><path class="cls-1" d="M214.88,16.15a13.56,13.56,0,0,1,10.48,4.57,14.23,14.23,0,0,1,3.78,9.88,14.26,14.26,0,0,1-4,10,14.45,14.45,0,0,1-20.55,0,14.25,14.25,0,0,1-4-10,14.18,14.18,0,0,1,3.78-9.85A13.53,13.53,0,0,1,214.88,16.15Zm0,3.44a10.14,10.14,0,0,0-7.54,3.24,10.84,10.84,0,0,0-3.16,7.85,11.13,11.13,0,0,0,1.44,5.53,10.15,10.15,0,0,0,3.89,4,11.07,11.07,0,0,0,10.74,0,10.22,10.22,0,0,0,3.89-4,11.13,11.13,0,0,0,1.44-5.53,10.85,10.85,0,0,0-3.17-7.85A10.17,10.17,0,0,0,214.87,19.59Z"/><path class="cls-1" d="M234.31,16.85h3.6v4a12.38,12.38,0,0,1,3.39-3.53A6.69,6.69,0,0,1,245,16.15a6.45,6.45,0,0,1,3.12.93l-1.84,3a4.77,4.77,0,0,0-1.86-.47A5.1,5.1,0,0,0,241.05,21a9.12,9.12,0,0,0-2.49,4.49q-.65,2.34-.65,9.45V44.2h-3.6Z"/><path class="cls-1" d="M274.16,35.13l3,1.56a16.16,16.16,0,0,1-3.38,4.62,13.4,13.4,0,0,1-4.3,2.68,15,15,0,0,1-5.41.92q-6.69,0-10.47-4.39a14.84,14.84,0,0,1-3.77-9.92A14.64,14.64,0,0,1,253,21.32a13.07,13.07,0,0,1,10.85-5.17A13.47,13.47,0,0,1,275,21.45a14.8,14.8,0,0,1,3,9.35H253.42a11.19,11.19,0,0,0,3,7.82,9.73,9.73,0,0,0,7.28,3,11.74,11.74,0,0,0,4.06-.72A10.77,10.77,0,0,0,271.16,39,16.48,16.48,0,0,0,274.16,35.13Zm0-7.37a11.6,11.6,0,0,0-2.05-4.5,9.72,9.72,0,0,0-3.56-2.71,10.88,10.88,0,0,0-4.66-1A10,10,0,0,0,257,22.1a11.74,11.74,0,0,0-3.2,5.66Z"/><path class="cls-1" d="M41.78,0V64L53.17,51V8.9ZM33.52,50.69l-8.86,5.57V7.74l8.86,3.78ZM9.43,48.54l7.64-2.65V13.82L9.46,12.19Z"/><path class="cls-1" d="M2,4.5v53H37.65v2H0V4.5Zm54.2,2-2.57-2H64.17v55H60.36V6.5Z"/></g></g></svg>