<?xml version="1.0" encoding="utf-8"?>
<!-- Generator: Adobe Illustrator 24.0.2, SVG Export Plug-In . SVG Version: 6.00 Build 0)  -->
<svg version="1.1" id="Layer_1" xmlns="http://www.w3.org/2000/svg" xmlns:xlink="http://www.w3.org/1999/xlink" x="0px" y="0px"
	 viewBox="0 0 292 64" style="enable-background:new 0 0 292 64;" xml:space="preserve">
<style type="text/css">
	.st0{fill:#729F00;}
</style>
<path class="st0" d="M43.1,0v64l11.4-13V8.9L43.1,0z M34.8,50.7L26,56.3V7.7l8.9,3.8V50.7z M10.8,48.5l7.6-2.7V13.8l-7.6-1.6
	L10.8,48.5z"/>
<path class="st0" d="M3.8,6v51H39v2H0V4h3.8V6z M55,6l-2.5-2H64v55h-3.8v-2V6H55z"/>
<path class="st0" d="M115.7,15.2c3.5,0,6.3,1.1,8.3,3.2c2,2.1,3,5,3,8.9v21h-9.7V29c0-3.6-1.6-5.4-4.8-5.4c-1.7,0-3.1,0.6-4.1,1.8
	c-1,1.2-1.5,2.9-1.5,5.1v17.8h-9.7V29c0-3.6-1.6-5.4-4.8-5.4c-1.7,0-3.1,0.6-4.1,1.8c-1,1.2-1.5,2.9-1.5,5.1v17.8H77V16h9.5v4.6
	c2.4-3.5,5.4-5.3,9.2-5.3c4.8,0,8.1,1.9,10,5.8C108.2,17.1,111.6,15.2,115.7,15.2z"/>
<path class="st0" d="M142.1,12.3h-9.3V4h9.3V12.3z M142.2,48.2h-9.7V16h9.7V48.2z"/>
<path class="st0" d="M178.5,16l-11.1,15.6l11.7,16.6h-11l-0.8-1.2c-0.7-1-2.5-3.7-5.4-8.1c-1.6,2.4-3.4,5.1-5.4,8.1l-0.8,1.2h-10.8
	l11.8-16.5L145.4,16h11.1l1.2,1.7c2.3,3.5,3.8,5.8,4.4,6.8c1.5-2.5,3-4.8,4.4-6.8l1.2-1.7H178.5z"/>
<path class="st0" d="M195.7,49c-4.3,0-7.8-1.5-10.3-4.6c-2.5-3-3.8-7.2-3.8-12.3c0-5.2,1.3-9.3,3.9-12.4c2.6-3,6-4.5,10.2-4.5
	c3.4,0,6.3,1,8.6,3.1c2.3,2,3.7,4.6,4.2,7.9h-1.7c-0.5-2.8-1.8-5-3.8-6.8c-2-1.8-4.4-2.6-7.3-2.6c-3.8,0-6.8,1.4-9,4.1
	c-2.2,2.7-3.3,6.4-3.3,11.2s1.1,8.5,3.3,11.3c2.2,2.7,5.3,4.1,9,4.1c3,0,5.5-1,7.5-2.9c2.1-2,3.3-4.4,3.7-7.3h1.7
	c-0.5,3.4-1.9,6.2-4.2,8.4C202,47.9,199.1,49,195.7,49z"/>
<path class="st0" d="M237.6,44.3c-2.6,3.1-6.1,4.7-10.4,4.7c-4.3,0-7.8-1.6-10.3-4.7c-2.6-3.1-3.9-7.2-3.9-12.2
	c0-5,1.3-9.1,3.9-12.2c2.6-3.1,6-4.7,10.3-4.7c4.3,0,7.8,1.6,10.4,4.7c2.6,3.2,3.9,7.2,3.9,12.2C241.4,37.1,240.1,41.1,237.6,44.3z
	 M218,43.2c2.3,2.8,5.4,4.3,9.1,4.3c3.7,0,6.8-1.4,9.1-4.3c2.3-2.8,3.4-6.5,3.4-11.1s-1.1-8.3-3.4-11.1c-2.3-2.8-5.4-4.3-9.1-4.3
	c-3.7,0-6.8,1.4-9.1,4.3c-2.3,2.8-3.4,6.5-3.4,11.1S215.8,40.4,218,43.2z"/>
<path class="st0" d="M261.3,15.6c1,0,1.6,0,2,0.1v1.6h-1.9c-3.8,0-6.8,1.2-8.9,3.6c-2.1,2.4-3.1,5.6-3.1,9.6v17.7h-1.7V16h1.7v8.3
	c0.8-2.6,2.3-4.7,4.3-6.3C255.7,16.4,258.2,15.6,261.3,15.6z"/>
<path class="st0" d="M292,32v0.6h-26.2c0.1,4.6,1.2,8.3,3.4,11c2.2,2.6,5.2,3.9,9.1,3.9c3,0,5.5-0.9,7.5-2.7c2-1.8,3.3-4.3,3.9-7.4
	h1.7c-0.5,3.5-2,6.4-4.4,8.5c-2.4,2.1-5.3,3.2-8.8,3.2c-4.5,0-8-1.5-10.5-4.6c-2.5-3.1-3.7-7.2-3.7-12.3c0-5,1.2-9.1,3.7-12.3
	c2.5-3.1,5.9-4.6,10.3-4.6c4.4,0,7.9,1.6,10.3,4.7C290.8,23,292,27,292,32z M278,16.8c-3.7,0-6.6,1.3-8.7,3.8
	c-2.1,2.5-3.3,6-3.5,10.4h24.4c-0.2-4.3-1.3-7.8-3.4-10.3C284.6,18.1,281.7,16.8,278,16.8z"/>
</svg>
